<svg width="190" height="35" viewBox="0 0 190 35" fill="none" xmlns="http://www.w3.org/2000/svg">
<path d="M43.6712 7.03573C46.6901 16.7607 37.6207 28.5668 23.9945 32.96C10.3682 37.3465 2.94498 32.5724 0.472681 25.4996C-1.58651 19.617 3.01489 8.6679 15.5671 3.30214C27.7379 -1.9004 41.148 -1.07071 43.6648 7.03573H43.6712Z" fill="#E32228"/>
<path d="M13.8768 34.9932C7.31788 34.9932 2.53217 31.5316 2.42412 25.0914C2.30972 10.8915 17.1054 -0.445275 29.4478 0.0307741C40.7924 0.391211 40.1251 10.4087 29.6703 15.7812C26.3336 17.4542 21.3318 18.8823 18.2176 18.7667C16.3237 18.6443 16.1012 17.6922 18.3256 17.6922C20.2132 17.6922 24.8846 16.5021 28.7805 14.3531C39.0129 8.38884 34.4496 0.989674 26.6705 4.81167C20.6645 7.79038 13.6607 16.3865 12.4341 23.6632C11.6523 28.3149 13.5463 31.8989 17.9952 31.7765C25.7807 31.6541 39.4578 19.372 44.6884 13.9994C46.3599 12.2108 46.3599 14.3599 45.3557 15.312C36.9029 23.6632 26.1175 34.8776 13.8831 35L13.8768 34.9932Z" fill="white"/>
<path d="M58.5434 7.67479C58.5815 7.77 58.6133 7.85841 58.645 7.93321C58.6768 8.01482 58.7022 8.09643 58.7277 8.17124C59.4014 9.87141 60.0433 11.5104 60.647 13.0745C61.2508 14.6455 61.7656 15.8832 62.1914 16.7945L65.2802 7.38916C65.3056 7.34835 65.3247 7.29395 65.3438 7.22594C65.3628 7.15793 65.3755 7.09673 65.3883 7.04232C65.4264 6.89271 65.4582 6.75669 65.4836 6.62068C65.509 6.48466 65.5217 6.38265 65.5217 6.30104V6.23984C65.5217 6.23984 65.5027 6.21264 65.5027 6.19903C65.4645 6.07662 65.3565 5.96781 65.1849 5.8658C65.0069 5.76379 64.8163 5.67538 64.6065 5.59377C64.543 5.56657 64.4858 5.53937 64.4286 5.51216C64.3714 5.48496 64.3142 5.45776 64.2506 5.43055L63.7422 5.19253H68.9474L68.5342 5.35575C68.5342 5.35575 68.4834 5.39655 68.4516 5.40335C68.4198 5.41015 68.3944 5.42375 68.369 5.43055C68.2927 5.45776 68.2101 5.48496 68.1275 5.51896C68.0385 5.55297 67.9559 5.58017 67.886 5.60737C67.6635 5.67538 67.4538 5.75699 67.2695 5.8454C67.0852 5.94061 66.9581 6.04942 66.8945 6.16503C66.8564 6.23304 66.8183 6.30104 66.7801 6.36905C66.742 6.43706 66.7102 6.50507 66.6848 6.57307C66.6339 6.65468 66.5895 6.74309 66.5513 6.8315C66.5132 6.92671 66.4751 7.02872 66.4369 7.13073C66.3225 7.38236 66.0874 8.04883 65.7315 9.12334C65.3755 10.1978 65.0006 11.3608 64.6002 12.6189C64.5875 12.6597 64.5748 12.7005 64.562 12.7481C64.5493 12.7957 64.5303 12.8365 64.5048 12.8773C64.1044 14.1627 63.7295 15.3664 63.3799 16.4817C63.0304 17.6038 62.8143 18.3043 62.7253 18.6035C62.6872 18.7531 62.6554 18.8892 62.63 19.0184C62.6045 19.1476 62.5855 19.27 62.5728 19.3924C62.5728 19.4604 62.5728 19.5216 62.5664 19.5828C62.56 19.644 62.5601 19.7052 62.5601 19.7732C62.5601 19.8548 62.5601 19.9297 62.5537 20.0045C62.5473 20.0793 62.541 20.1609 62.5283 20.2561H61.6131C61.5749 20.1337 61.5432 20.0317 61.5114 19.9365C61.4796 19.8412 61.4478 19.7392 61.4097 19.6372C61.397 19.61 61.3906 19.5828 61.3843 19.5488C61.3779 19.5148 61.3716 19.4876 61.3589 19.4604C61.3334 19.3924 61.3144 19.3244 61.2953 19.2496C61.2762 19.1748 61.2572 19.1 61.2317 19.0184C61.0792 18.5219 60.8949 17.9507 60.6725 17.2978C60.45 16.6449 60.2085 15.9852 59.9606 15.3188C59.9225 15.2236 59.8907 15.1284 59.859 15.04C59.8272 14.9447 59.7954 14.8563 59.7573 14.7815C59.3823 13.7478 59.0264 12.7957 58.6895 11.9252C58.3527 11.0547 58.1303 10.4903 58.0159 10.2387L57.3994 8.7697L56.7447 10.4767C56.6685 10.6807 56.5032 11.1703 56.249 11.966C55.9948 12.7549 55.7215 13.605 55.4355 14.5163C55.4355 14.5435 55.4355 14.5639 55.4292 14.5843C55.4228 14.6047 55.4164 14.6183 55.4037 14.6319C55.1304 15.5024 54.8699 16.3253 54.6347 17.0938C54.3996 17.8622 54.2343 18.3927 54.1453 18.6715C54.1072 18.8211 54.0754 18.9504 54.0436 19.0728C54.0119 19.1952 53.9865 19.3108 53.961 19.4332C53.961 19.4604 53.961 19.4876 53.9547 19.5216C53.9483 19.5556 53.942 19.5828 53.9292 19.61C53.9165 19.7188 53.8975 19.8208 53.872 19.9229C53.8466 20.0249 53.8212 20.1337 53.7958 20.2561H52.8806C52.8425 20.1337 52.8107 20.0317 52.7789 19.9365C52.7471 19.8412 52.7217 19.7392 52.6963 19.6372C52.6709 19.542 52.6454 19.4468 52.6137 19.3448C52.5819 19.2428 52.5501 19.134 52.512 19.0116C52.334 18.4335 52.0671 17.6446 51.7048 16.6381C51.3425 15.6316 50.9549 14.5843 50.5418 13.4826C50.529 13.4282 50.51 13.3738 50.4846 13.3126C50.4591 13.2514 50.4337 13.1902 50.4083 13.1222C49.9062 11.796 49.4422 10.5719 49.0101 9.44297C48.5779 8.32085 48.2983 7.59318 48.1775 7.27355C48.1521 7.20554 48.133 7.14433 48.1139 7.08993C48.0949 7.03552 48.0758 6.98111 48.0504 6.92671C48.0377 6.88591 48.0313 6.8519 48.025 6.8247C48.0186 6.7975 48.0059 6.76349 47.9805 6.72269C47.9551 6.65468 47.9296 6.58667 47.8979 6.51187C47.8661 6.43706 47.8343 6.36225 47.7962 6.28064C47.7326 6.15823 47.6246 6.05622 47.4657 5.96781C47.3068 5.8794 47.1288 5.79779 46.9318 5.71618C46.9191 5.71618 46.9064 5.71618 46.8873 5.69578C46.8683 5.68218 46.8492 5.67538 46.8238 5.67538C46.7348 5.63458 46.6458 5.59377 46.5505 5.55297C46.4552 5.51216 46.3662 5.46456 46.2772 5.41015L45.9022 5.17213H51.5968L51.1074 5.39655C51.0311 5.43735 50.9358 5.47816 50.8278 5.51896C50.7134 5.55977 50.599 5.60057 50.4718 5.64138C50.2939 5.70938 50.1286 5.79099 49.9761 5.8794C49.8172 5.97461 49.7219 6.09022 49.6838 6.21944C49.671 6.24664 49.6647 6.27384 49.6647 6.30785V6.43706C49.6647 6.50507 49.6647 6.57987 49.671 6.66148C49.671 6.74309 49.6838 6.8315 49.6965 6.91991C49.7219 7.02872 49.7473 7.13753 49.7727 7.23954C49.7982 7.34835 49.8236 7.44356 49.849 7.51837L53.5606 16.985C53.7449 16.4341 54.0691 15.4888 54.5267 14.1423C54.9843 12.7957 55.4673 11.3676 55.9757 9.85101C56.1028 9.47697 56.2236 9.10293 56.338 8.7357C56.4587 8.36846 56.5795 8.00122 56.7003 7.64078C56.7892 7.37556 56.8719 7.12393 56.9418 6.89951C57.018 6.67508 57.0879 6.45066 57.1451 6.23304L57.1642 6.21264V6.19223C57.2405 5.97461 57.3167 5.75019 57.3867 5.51896C57.4629 5.28774 57.5455 5.02931 57.6282 4.74368C57.6917 4.96131 57.7489 5.16533 57.8061 5.35575C57.8633 5.55297 57.9142 5.73659 57.965 5.9066C57.9777 5.97461 57.9968 6.04262 58.0222 6.11062C58.0476 6.17863 58.0667 6.24664 58.0794 6.31465C58.143 6.53227 58.2129 6.74309 58.2955 6.96071C58.3781 7.17834 58.4671 7.40956 58.5688 7.66119V7.64078L58.5434 7.67479Z" fill="#231F20"/>
<path d="M76.5484 4.92038C76.5484 4.92038 76.5993 4.94078 76.631 4.94078H76.9043C78.8618 4.94078 80.5651 5.62765 82.0015 7.0082C83.4378 8.38874 84.1814 10.2453 84.2322 12.578C84.2577 14.9242 83.5014 16.8012 81.9633 18.2158C80.4253 19.6303 78.614 20.324 76.5294 20.2968C74.5655 20.2832 72.9067 19.5283 71.5339 18.0389C70.1675 16.5428 69.4811 14.727 69.4811 12.5848C69.4811 10.4426 70.1738 8.72197 71.5593 7.25982C72.9448 5.79767 74.6036 5.02919 76.5421 4.94758V4.92718L76.5484 4.92038ZM76.5294 6.0493C74.8324 6.1173 73.4851 6.79057 72.4936 8.06911C71.5021 9.34764 71.0128 10.837 71.0255 12.544C71.0509 14.1761 71.5848 15.6723 72.6398 17.0256C73.6884 18.379 75.0231 19.1067 76.6501 19.2155H76.8344C76.8344 19.2155 76.8853 19.2359 76.917 19.2359H77.0187C78.5441 19.2359 79.866 18.651 80.9909 17.4745C82.1159 16.3048 82.6751 14.7882 82.6751 12.9452C82.6751 11.1022 82.1032 9.53806 80.9592 8.14391C79.8152 6.74977 78.4106 6.0629 76.7327 6.0765H76.5294V6.0561V6.0493Z" fill="#231F20"/>
<path d="M91.4395 13.163L91.0645 13.2446L93.1428 15.72C93.3652 15.9989 93.5749 16.2573 93.772 16.4953C93.9626 16.7333 94.1533 16.9578 94.344 17.189C94.3948 17.257 94.4457 17.3182 94.5029 17.3794C94.5601 17.4406 94.6109 17.5018 94.6617 17.5698C94.8143 17.7466 94.9732 17.9167 95.1384 18.0935C95.31 18.2703 95.488 18.4539 95.6723 18.6579C95.7867 18.7667 95.882 18.862 95.9646 18.9504C96.0472 19.0388 96.1299 19.1204 96.2188 19.202C96.2697 19.2428 96.3142 19.2836 96.3587 19.3244C96.4032 19.3652 96.454 19.406 96.5176 19.4468C96.632 19.5284 96.7591 19.61 96.8989 19.6984C97.0451 19.7868 97.2294 19.8889 97.4518 20.0113L97.9603 20.2493L97.3438 20.4125C97.3438 20.4125 97.2866 20.4329 97.2484 20.4329H97.115C96.918 20.4329 96.6701 20.3989 96.3777 20.3241C96.0854 20.2493 95.7803 20.1609 95.4689 20.0521C95.1193 19.9025 94.6999 19.5624 94.2041 19.0252C93.7084 18.4879 93.2 17.9099 92.6788 17.2978C92.6661 17.2842 92.6534 17.2774 92.6407 17.2706C92.628 17.2706 92.6216 17.257 92.6216 17.2434C92.5072 17.121 92.4055 17.0054 92.3038 16.8829C92.2022 16.7605 92.1068 16.6449 92.0051 16.5225L89.2723 13.3874H88.7638V18.1479C88.7638 18.3791 88.7702 18.5763 88.7892 18.7395C88.8083 18.9096 88.8782 19.0728 89.0053 19.2292C89.0816 19.338 89.2151 19.4264 89.4057 19.5012C89.5964 19.576 89.7998 19.6372 90.0159 19.6916C90.054 19.7052 90.0858 19.7188 90.1175 19.7324C90.1493 19.746 90.1811 19.7528 90.2192 19.7528C90.3209 19.78 90.4099 19.8072 90.4989 19.8413C90.5878 19.8753 90.6705 19.9025 90.7404 19.9297L91.1535 20.0929H84.8043L85.2365 19.9501C85.3382 19.9365 85.4526 19.9093 85.586 19.8685C85.7195 19.8277 85.853 19.7868 85.9864 19.746C86.1263 19.6916 86.2534 19.644 86.3805 19.5964C86.5076 19.5488 86.6093 19.5012 86.6983 19.4468C86.7745 19.4196 86.8317 19.3856 86.8762 19.3448C86.9207 19.304 86.9525 19.27 86.9779 19.2428C87.0415 19.1612 87.086 19.0728 87.1114 18.9708C87.1368 18.8688 87.1559 18.7667 87.1686 18.6579V7.17154C87.1686 6.99472 87.1622 6.8383 87.1432 6.68869C87.1241 6.53907 87.0669 6.40306 86.9652 6.26704C86.8762 6.15823 86.7364 6.05622 86.5457 5.95421C86.3487 5.8522 86.1517 5.75699 85.9356 5.66178C85.8085 5.60737 85.6877 5.55977 85.5733 5.51216C85.4526 5.46456 85.3445 5.42376 85.2429 5.38295L84.8297 5.19933H88.2363C88.4206 5.21293 88.5986 5.21973 88.7638 5.20613C88.9291 5.20613 89.0879 5.19253 89.2532 5.17893H89.4057C89.5455 5.17893 89.679 5.17893 89.8188 5.17213C89.9587 5.17213 90.0985 5.16533 90.251 5.16533C90.3908 5.16533 90.5306 5.16533 90.6705 5.17213C90.8166 5.17893 90.9692 5.18573 91.1281 5.19933C91.2298 5.21293 91.3251 5.22654 91.4204 5.24014C91.5158 5.25374 91.6111 5.26734 91.7128 5.28094C92.4627 5.45776 93.1555 5.8794 93.791 6.54587C94.4266 7.21914 94.7444 8.14404 94.7444 9.34096C94.7444 10.2523 94.5346 10.9663 94.1152 11.49C93.6957 12.0136 93.2381 12.4081 92.736 12.6733C92.5136 12.7957 92.2848 12.8977 92.0623 12.9725C91.8399 13.0541 91.6302 13.1222 91.4458 13.1766V13.1562L91.4395 13.163ZM90.5751 6.11063C90.537 6.12423 90.5052 6.13103 90.4734 6.13103C90.4417 6.13103 90.4162 6.13103 90.3908 6.11063H90.1112C89.876 6.11063 89.6472 6.13103 89.4248 6.15823C89.2087 6.19224 89.0625 6.23304 88.9863 6.28745C88.8719 6.36905 88.8083 6.47786 88.7892 6.60708C88.7702 6.74309 88.7638 6.87911 88.7638 7.02872V12.5169L89.6472 12.4965C90.6323 12.4965 91.484 12.2041 92.1958 11.6192C92.9076 11.0343 93.2572 10.2727 93.2445 9.32056V9.08254C93.1809 8.26645 92.9076 7.59998 92.431 7.08313C91.9479 6.56627 91.4204 6.26024 90.8484 6.17183C90.8103 6.15823 90.7722 6.15143 90.7277 6.14463C90.6832 6.14463 90.6387 6.13783 90.5878 6.13783V6.11743L90.5751 6.11063Z" fill="#231F20"/>
<path d="M102.606 18.1275C102.606 18.2771 102.619 18.4131 102.644 18.5491C102.67 18.6851 102.727 18.794 102.816 18.8892C102.892 18.9708 102.988 19.0252 103.115 19.0524C103.242 19.0796 103.363 19.1 103.49 19.1136H103.661L105.968 19.0932C106.057 19.1068 106.146 19.1136 106.242 19.1C106.337 19.1 106.432 19.0796 106.534 19.0524C106.661 19.0388 106.782 19.0116 106.909 18.9708C107.036 18.93 107.138 18.8756 107.227 18.8076C107.398 18.6851 107.532 18.5355 107.621 18.3451C107.71 18.1547 107.792 17.9507 107.862 17.7194C107.875 17.665 107.888 17.6174 107.907 17.5698C107.926 17.5222 107.938 17.4814 107.951 17.4406L108.193 16.6993V20.0725H98.6594L99.0916 19.9297C99.1933 19.9161 99.3077 19.8889 99.4412 19.8481C99.5746 19.8073 99.7081 19.7665 99.8416 19.7256C99.9687 19.6712 100.089 19.6236 100.217 19.576C100.344 19.5284 100.452 19.4808 100.553 19.4264C100.617 19.3992 100.674 19.3652 100.725 19.3244C100.776 19.2836 100.814 19.2496 100.839 19.2224C100.865 19.1816 100.884 19.1408 100.903 19.1C100.922 19.0592 100.941 19.0184 100.966 18.9776C100.992 18.896 101.005 18.8144 101.011 18.7395C101.011 18.6579 101.024 18.5763 101.024 18.5015V7.16474C101.024 7.16474 101.024 7.09674 101.043 7.05593V6.83151C101.043 6.7771 101.043 6.7295 101.036 6.68189C101.03 6.63429 101.024 6.58668 101.011 6.53228C100.998 6.45067 100.979 6.37586 100.954 6.30105C100.928 6.22625 100.89 6.15824 100.839 6.09023C100.814 6.06303 100.776 6.02903 100.725 5.98822C100.674 5.94742 100.617 5.91342 100.553 5.88621C100.452 5.83181 100.344 5.7842 100.217 5.7366C100.089 5.68899 99.9687 5.64139 99.8416 5.58698C99.7017 5.54618 99.5683 5.50537 99.4412 5.46457C99.3077 5.42376 99.1933 5.38976 99.0916 5.36256L98.6594 5.19934H105.009L104.595 5.38296C104.519 5.43737 104.43 5.47817 104.335 5.50537C104.233 5.53258 104.132 5.55978 104.017 5.58698C103.992 5.60058 103.966 5.60738 103.941 5.61418C103.915 5.62098 103.89 5.62779 103.865 5.64139C103.655 5.69579 103.451 5.757 103.254 5.83181C103.057 5.90661 102.924 5.98822 102.854 6.08343C102.841 6.11064 102.829 6.13104 102.81 6.15144C102.791 6.17184 102.778 6.19224 102.765 6.21945C102.689 6.36226 102.644 6.51188 102.632 6.66149C102.619 6.81111 102.613 6.98113 102.613 7.16474V18.1207L102.606 18.1275Z" fill="#231F20"/>
<path d="M123.497 11.7552C123.509 11.9184 123.516 12.0681 123.522 12.2177C123.522 12.3673 123.529 12.5101 123.529 12.6597C123.529 14.3055 123.179 15.6316 122.48 16.6381C121.781 17.6446 121.012 18.4131 120.173 18.9504C119.601 19.3244 119.048 19.61 118.514 19.7937C117.98 19.9841 117.567 20.0929 117.268 20.1337C117.09 20.1609 116.893 20.1813 116.677 20.2017C116.461 20.2221 116.232 20.2289 115.991 20.2289C115.864 20.2289 115.743 20.2289 115.616 20.2221C115.489 20.2153 115.368 20.2085 115.241 20.2085C115.063 20.1949 114.891 20.1881 114.713 20.1813C114.535 20.1813 114.37 20.1677 114.205 20.1541C113.932 20.1269 113.671 20.1065 113.43 20.0929C113.188 20.0793 112.985 20.0725 112.819 20.0725H108.847L109.26 19.9093C109.349 19.8821 109.445 19.8481 109.559 19.8073C109.674 19.7664 109.782 19.7256 109.896 19.6848C110.106 19.6032 110.309 19.5148 110.506 19.4128C110.697 19.3108 110.837 19.2088 110.906 19.1C110.932 19.0728 110.951 19.0456 110.964 19.0184C110.976 18.9912 110.989 18.9708 111.002 18.9572C111.078 18.8211 111.129 18.6919 111.161 18.5627C111.192 18.4335 111.205 18.2907 111.205 18.1275V7.17154C111.205 6.99472 111.192 6.83831 111.18 6.68869C111.161 6.53908 111.104 6.40306 111.002 6.26705C110.913 6.15824 110.773 6.06303 110.582 5.97462C110.392 5.88621 110.188 5.8114 109.972 5.7434C109.845 5.68899 109.724 5.64818 109.61 5.61418C109.489 5.58018 109.381 5.54617 109.279 5.50537L108.866 5.32175H112.273C112.438 5.33535 112.629 5.33535 112.851 5.32175C113.074 5.30815 113.328 5.29455 113.601 5.28095C113.875 5.28095 114.167 5.28095 114.472 5.26055C114.777 5.24694 115.101 5.24014 115.438 5.24014C115.66 5.24014 115.889 5.24014 116.112 5.24694C116.334 5.25374 116.563 5.26055 116.785 5.27415C116.951 5.28775 117.103 5.30135 117.256 5.31495C117.408 5.32855 117.554 5.34895 117.707 5.37616C118.031 5.43056 118.393 5.52577 118.794 5.66859C119.194 5.8114 119.607 6.00862 120.033 6.26025C120.834 6.7431 121.577 7.43677 122.27 8.34126C122.963 9.24576 123.363 10.3883 123.478 11.7688V11.7484L123.497 11.7552ZM112.819 7.17154V17.9847C112.819 18.2023 112.845 18.3927 112.896 18.5559C112.947 18.7259 113.055 18.862 113.214 18.9708C113.226 18.9844 113.239 18.9912 113.258 18.998C113.277 19.0048 113.303 19.0116 113.341 19.0116C113.506 19.0524 113.766 19.0932 114.135 19.134C114.504 19.1748 114.904 19.1952 115.343 19.1952H115.635C115.73 19.1952 115.819 19.1952 115.908 19.1748C116.309 19.1612 116.696 19.1204 117.078 19.0524C117.459 18.9844 117.79 18.8824 118.063 18.7531C118.273 18.6443 118.514 18.5287 118.787 18.3995C119.054 18.2703 119.334 18.1139 119.62 17.9303C120.166 17.5562 120.681 16.9986 121.158 16.2641C121.635 15.5296 121.895 14.4687 121.946 13.0882V12.8297C121.946 11.354 121.52 10.0074 120.662 8.79011C119.804 7.57278 118.648 6.7839 117.186 6.43707C117.033 6.39626 116.766 6.36226 116.379 6.33506C115.991 6.30785 115.578 6.30105 115.139 6.31465H115.063C114.624 6.31465 114.218 6.32826 113.836 6.36226C113.455 6.39626 113.194 6.45067 113.061 6.53228C112.959 6.58668 112.896 6.67509 112.864 6.7907C112.832 6.91312 112.819 7.04233 112.819 7.19195V7.17154Z" fill="#231F20"/>
<path d="M124.939 5.20608H133.78L134.752 4.82524L134.714 9.32731L134.416 8.2596C134.416 8.2596 134.396 8.23239 134.39 8.21199C134.39 8.19159 134.384 8.17799 134.384 8.16439C134.358 8.08278 134.339 8.00117 134.32 7.92636C134.301 7.84475 134.282 7.76315 134.257 7.68834C134.168 7.42311 134.072 7.17148 133.977 6.93346C133.875 6.70224 133.742 6.54582 133.564 6.47781C133.5 6.45061 133.437 6.43021 133.38 6.41661C133.316 6.403 133.252 6.3962 133.195 6.3962C133.132 6.3826 133.068 6.3758 133.011 6.3758H130.202V18.1342C130.202 18.3654 130.215 18.5627 130.227 18.7259C130.246 18.8959 130.316 19.0591 130.443 19.2155C130.52 19.3243 130.653 19.4128 130.844 19.4876C131.034 19.5624 131.238 19.6236 131.454 19.678C131.492 19.6916 131.524 19.7052 131.556 19.7188C131.587 19.7324 131.619 19.7392 131.657 19.7392C131.759 19.7664 131.848 19.7936 131.937 19.8276C132.026 19.8616 132.108 19.8888 132.178 19.916L132.591 20.0792H126.242L126.674 19.9364C126.776 19.9228 126.891 19.8956 127.024 19.8548C127.157 19.814 127.291 19.7732 127.424 19.7324C127.552 19.678 127.672 19.6304 127.799 19.5828C127.927 19.5352 128.035 19.4876 128.136 19.4332C128.2 19.406 128.257 19.372 128.308 19.3311C128.359 19.2903 128.397 19.2563 128.422 19.2291C128.46 19.1611 128.492 19.0999 128.524 19.0387C128.556 18.9775 128.575 18.9163 128.587 18.8483C128.6 18.7803 128.607 18.7123 128.613 18.6511C128.613 18.5831 128.619 18.5219 128.619 18.4675V18.2702C128.607 18.2294 128.6 18.1954 128.6 18.1614V6.369H125.696C125.632 6.3826 125.575 6.3894 125.518 6.3894C125.461 6.3894 125.41 6.3962 125.359 6.40981C125.333 6.42341 125.308 6.43701 125.276 6.45061C125.244 6.46421 125.219 6.47781 125.194 6.49141C125.041 6.60023 124.927 6.78384 124.838 7.05587C124.749 7.3211 124.672 7.61353 124.615 7.91956C124.603 7.96037 124.596 8.00117 124.59 8.04878C124.584 8.09638 124.577 8.13718 124.564 8.17799C124.552 8.246 124.539 8.314 124.52 8.38201C124.501 8.45002 124.488 8.51802 124.475 8.58603L124.272 9.2661L124.177 4.88645L124.965 5.20608H124.939Z" fill="#6E6F71"/>
<path d="M142.004 13.163L141.629 13.2446L143.707 15.72C143.93 15.9989 144.14 16.2573 144.337 16.4953C144.527 16.7333 144.718 16.9578 144.909 17.189C144.96 17.257 145.01 17.3182 145.068 17.3794C145.125 17.4406 145.176 17.5018 145.226 17.5698C145.379 17.7466 145.538 17.9167 145.703 18.0935C145.875 18.2703 146.053 18.4539 146.237 18.6579C146.351 18.7667 146.447 18.862 146.529 18.9504C146.612 19.0388 146.695 19.1204 146.784 19.202C146.834 19.2428 146.879 19.2836 146.923 19.3244C146.968 19.3652 147.019 19.406 147.082 19.4468C147.197 19.5284 147.324 19.61 147.464 19.6984C147.61 19.7868 147.794 19.8889 148.017 20.0113L148.525 20.2493L147.908 20.4125C147.908 20.4125 147.851 20.4329 147.813 20.4329H147.68C147.483 20.4329 147.235 20.3989 146.942 20.3241C146.65 20.2493 146.345 20.1609 146.034 20.0521C145.684 19.9025 145.265 19.5624 144.769 19.0252C144.273 18.4879 143.765 17.9099 143.244 17.2978C143.231 17.2842 143.218 17.2774 143.205 17.2706C143.193 17.2706 143.186 17.257 143.186 17.2434C143.072 17.121 142.97 17.0054 142.869 16.8829C142.767 16.7605 142.672 16.6449 142.57 16.5225L139.837 13.3874H139.329V18.1479C139.329 18.3791 139.335 18.5763 139.354 18.7395C139.373 18.9096 139.443 19.0728 139.57 19.2292C139.646 19.338 139.78 19.4264 139.97 19.5012C140.161 19.576 140.364 19.6372 140.581 19.6916C140.619 19.7052 140.65 19.7188 140.682 19.7324C140.714 19.746 140.746 19.7528 140.784 19.7528C140.886 19.78 140.975 19.8072 141.064 19.8413C141.153 19.8753 141.235 19.9025 141.305 19.9297L141.718 20.0929H135.369L135.801 19.9501C135.903 19.9365 136.017 19.9093 136.151 19.8685C136.284 19.8277 136.418 19.7868 136.551 19.746C136.691 19.6916 136.818 19.644 136.945 19.5964C137.072 19.5488 137.174 19.5012 137.263 19.4468C137.339 19.4196 137.396 19.3856 137.441 19.3448C137.485 19.304 137.517 19.27 137.543 19.2428C137.606 19.1612 137.651 19.0728 137.676 18.9708C137.701 18.8688 137.721 18.7667 137.733 18.6579V7.17154C137.733 6.99472 137.721 6.8383 137.708 6.68869C137.689 6.53907 137.632 6.40306 137.53 6.26704C137.441 6.15823 137.301 6.05622 137.11 5.95421C136.92 5.8522 136.716 5.75699 136.5 5.66178C136.373 5.60737 136.252 5.55977 136.138 5.51216C136.017 5.46456 135.909 5.42376 135.808 5.38295L135.394 5.19933H138.801C138.992 5.21293 139.163 5.21973 139.329 5.20613C139.487 5.20613 139.653 5.19253 139.818 5.17893H139.97C140.11 5.17893 140.244 5.17893 140.384 5.17213C140.523 5.17213 140.663 5.16533 140.816 5.16533C140.956 5.16533 141.095 5.16533 141.235 5.17213C141.381 5.17893 141.534 5.18573 141.693 5.19933C141.794 5.21293 141.89 5.22654 141.985 5.24014C142.08 5.25374 142.176 5.26734 142.277 5.28094C143.027 5.45776 143.72 5.8794 144.356 6.54587C144.991 7.21914 145.309 8.14404 145.309 9.34096C145.309 10.2523 145.099 10.9663 144.68 11.49C144.26 12.0136 143.803 12.4081 143.301 12.6733C143.078 12.7957 142.849 12.8977 142.627 12.9725C142.405 13.0541 142.195 13.1222 142.011 13.1766V13.1562L142.004 13.163ZM141.14 6.11063C141.102 6.12423 141.07 6.13103 141.038 6.13103C141.006 6.13103 140.981 6.13103 140.956 6.11063H140.676C140.441 6.11063 140.212 6.13103 139.989 6.15823C139.773 6.19224 139.627 6.23304 139.551 6.28745C139.437 6.36905 139.373 6.47786 139.354 6.60708C139.335 6.74309 139.329 6.87911 139.329 7.02872V12.5169L140.212 12.4965C141.197 12.4965 142.049 12.2041 142.76 11.6192C143.472 11.0343 143.822 10.2727 143.809 9.32056V9.08254C143.746 8.26645 143.472 7.59998 142.996 7.08313C142.513 6.56627 141.985 6.26024 141.413 6.17183C141.375 6.15823 141.337 6.15143 141.292 6.14463C141.248 6.14463 141.203 6.13783 141.153 6.13783V6.11743L141.14 6.11063Z" fill="#6E6F71"/>
<path d="M157.423 5.49856C157.448 5.58697 157.474 5.66858 157.499 5.75019C157.512 5.8454 157.531 5.93381 157.556 6.00862C157.582 6.09022 157.607 6.18543 157.632 6.28744C157.804 6.8655 158.065 7.65439 158.401 8.66769C158.738 9.681 159.094 10.7283 159.469 11.8164C159.495 11.8844 159.52 11.9524 159.545 12.0204C159.571 12.0884 159.596 12.1565 159.622 12.2245C160.073 13.5506 160.499 14.7747 160.905 15.89C161.312 17.0122 161.586 17.7262 161.719 18.0527C161.757 18.1615 161.795 18.2567 161.833 18.3315C161.872 18.4131 161.91 18.5015 161.948 18.5899C161.973 18.6579 162.005 18.7259 162.043 18.8007C162.081 18.8755 162.119 18.9504 162.158 19.032C162.221 19.168 162.348 19.2836 162.539 19.3924C162.73 19.5012 162.939 19.6032 163.168 19.6916C163.219 19.7052 163.27 19.7256 163.321 19.7528C163.371 19.78 163.422 19.8004 163.473 19.814C163.511 19.8276 163.543 19.8412 163.575 19.8617C163.607 19.8821 163.638 19.8957 163.677 19.9093L164.071 20.0725H158.522L159.012 19.8685C159.088 19.8548 159.17 19.8276 159.253 19.7868C159.342 19.746 159.431 19.7052 159.533 19.6644C159.704 19.5964 159.87 19.5148 160.009 19.4264C160.156 19.3312 160.245 19.2224 160.283 19.0864C160.283 19.0728 160.283 19.0592 160.302 19.0456V18.9844C160.302 18.9164 160.289 18.8279 160.264 18.7259C160.238 18.6171 160.206 18.5219 160.168 18.4267C160.156 18.3723 160.143 18.3247 160.13 18.2839C160.117 18.2431 160.105 18.2023 160.092 18.1615C160.079 18.1071 160.067 18.0595 160.047 18.0119C160.028 17.9643 160.016 17.9234 160.003 17.8826L158.751 14.1015H154.124L152.815 17.8622C152.802 17.903 152.796 17.9303 152.789 17.9507C152.789 17.9711 152.783 17.9915 152.783 18.0187C152.758 18.0731 152.739 18.1343 152.72 18.2023C152.701 18.2703 152.688 18.3383 152.675 18.4063C152.637 18.5559 152.605 18.6919 152.58 18.8279C152.554 18.964 152.542 19.066 152.542 19.1272V19.1884C152.592 19.3108 152.688 19.406 152.834 19.4808C152.98 19.5556 153.139 19.6236 153.311 19.6916C153.336 19.6916 153.361 19.6916 153.387 19.7052C153.412 19.7052 153.431 19.7188 153.444 19.7324C153.508 19.7596 153.571 19.78 153.635 19.8004C153.698 19.8208 153.756 19.8412 153.806 19.8685L154.315 20.0725H149.199L149.612 19.9093C149.701 19.8821 149.796 19.848 149.904 19.8072C150.012 19.7664 150.114 19.7256 150.215 19.6848C150.425 19.6032 150.629 19.508 150.813 19.406C151.004 19.2972 151.124 19.1816 151.188 19.066C151.226 18.998 151.258 18.93 151.283 18.8619C151.309 18.7939 151.334 18.7327 151.359 18.6783C151.385 18.6375 151.404 18.5967 151.417 18.5559C151.429 18.5151 151.442 18.4675 151.455 18.4131C151.48 18.3587 151.499 18.3043 151.518 18.2499C151.537 18.1955 151.557 18.1343 151.582 18.0663C151.747 17.6922 151.906 17.2978 152.059 16.8897C152.217 16.4817 152.376 16.0601 152.535 15.6316C152.624 15.414 152.707 15.1964 152.796 14.9787C152.885 14.7543 152.967 14.5367 153.056 14.3055C153.705 12.5781 154.296 10.9595 154.817 9.44977C155.344 7.94002 155.669 6.98112 155.789 6.56627C155.827 6.43026 155.859 6.31465 155.891 6.20584C155.923 6.09702 155.948 5.98821 155.974 5.8862C155.974 5.8454 155.974 5.8114 155.993 5.77739C156.005 5.74339 156.012 5.70938 156.012 5.66858C156.037 5.60057 156.056 5.52577 156.075 5.44416C156.094 5.36255 156.107 5.28094 156.12 5.20613L157.378 5.18573C157.404 5.29454 157.429 5.38975 157.454 5.47816L157.423 5.49856ZM156.412 7.7972L154.499 13.0609H158.3L156.406 7.7972H156.412Z" fill="#6E6F71"/>
<path d="M179.139 11.7552C179.152 11.9184 179.159 12.0681 179.165 12.2177C179.165 12.3673 179.171 12.5101 179.171 12.6597C179.171 14.3055 178.822 15.6316 178.123 16.6381C177.423 17.6446 176.654 18.4131 175.816 18.9504C175.244 19.3244 174.691 19.61 174.157 19.7937C173.623 19.9841 173.21 20.0929 172.911 20.1337C172.733 20.1609 172.536 20.1813 172.32 20.2017C172.104 20.2221 171.875 20.2289 171.634 20.2289C171.506 20.2289 171.386 20.2289 171.259 20.2221C171.132 20.2153 171.011 20.2085 170.884 20.2085C170.706 20.1949 170.534 20.1881 170.356 20.1813C170.178 20.1813 170.013 20.1677 169.848 20.1541C169.574 20.1269 169.314 20.1065 169.072 20.0929C168.831 20.0793 168.627 20.0725 168.462 20.0725H164.49L164.903 19.9093C164.992 19.8821 165.087 19.8481 165.202 19.8073C165.316 19.7664 165.424 19.7256 165.539 19.6848C165.748 19.6032 165.952 19.5148 166.149 19.4128C166.339 19.3108 166.479 19.2088 166.549 19.1C166.575 19.0728 166.594 19.0456 166.606 19.0184C166.619 18.9912 166.632 18.9708 166.645 18.9572C166.721 18.8211 166.772 18.6919 166.803 18.5627C166.835 18.4335 166.848 18.2907 166.848 18.1275V7.17154C166.848 6.99472 166.835 6.83831 166.822 6.68869C166.803 6.53908 166.746 6.40306 166.645 6.26705C166.556 6.15824 166.416 6.06303 166.225 5.97462C166.034 5.88621 165.831 5.8114 165.615 5.7434C165.488 5.68899 165.367 5.64818 165.253 5.61418C165.132 5.58018 165.024 5.54617 164.922 5.50537L164.509 5.32175H167.916C168.081 5.33535 168.272 5.33535 168.494 5.32175C168.716 5.30815 168.971 5.29455 169.244 5.28095C169.517 5.28095 169.81 5.28095 170.115 5.26055C170.42 5.24694 170.744 5.24014 171.081 5.24014C171.303 5.24014 171.532 5.24014 171.754 5.24694C171.977 5.25374 172.206 5.26055 172.428 5.27415C172.593 5.28775 172.746 5.30135 172.898 5.31495C173.051 5.32855 173.197 5.34895 173.35 5.37616C173.674 5.43056 174.036 5.52577 174.436 5.66859C174.837 5.8114 175.25 6.00862 175.676 6.26025C176.477 6.7431 177.22 7.43677 177.913 8.34126C178.606 9.24576 179.006 10.3883 179.12 11.7688V11.7484L179.139 11.7552ZM168.462 7.17154V17.9847C168.462 18.2023 168.488 18.3927 168.538 18.5559C168.589 18.7259 168.697 18.862 168.856 18.9708C168.869 18.9844 168.882 18.9912 168.901 18.998C168.92 19.0048 168.945 19.0116 168.983 19.0116C169.149 19.0524 169.409 19.0932 169.778 19.134C170.146 19.1748 170.547 19.1952 170.985 19.1952H171.278C171.373 19.1952 171.462 19.1952 171.551 19.1748C171.951 19.1612 172.339 19.1204 172.72 19.0524C173.102 18.9844 173.432 18.8824 173.706 18.7531C173.915 18.6443 174.157 18.5287 174.43 18.3995C174.697 18.2703 174.977 18.1139 175.263 17.9303C175.809 17.5562 176.324 16.9986 176.801 16.2641C177.277 15.5296 177.538 14.4687 177.589 13.0882V12.8297C177.589 11.354 177.163 10.0074 176.305 8.79011C175.447 7.57278 174.29 6.7839 172.828 6.43707C172.676 6.39626 172.409 6.36226 172.021 6.33506C171.634 6.30785 171.22 6.30105 170.782 6.31465H170.706C170.267 6.31465 169.86 6.32826 169.479 6.36226C169.098 6.39626 168.837 6.45067 168.704 6.53228C168.602 6.58668 168.538 6.67509 168.507 6.7907C168.475 6.91312 168.462 7.04233 168.462 7.19195V7.17154Z" fill="#6E6F71"/>
<path d="M189.175 5.20614L189.156 8.50448L188.895 7.702C188.87 7.64759 188.851 7.58638 188.832 7.51838C188.812 7.45037 188.793 7.38916 188.768 7.33476C188.704 7.14434 188.641 6.98112 188.571 6.84511C188.501 6.70229 188.393 6.57988 188.24 6.47107C188.139 6.40306 188.031 6.34866 187.904 6.30785C187.777 6.26705 187.656 6.23984 187.529 6.22624C187.452 6.22624 187.382 6.22624 187.313 6.21944C187.243 6.21944 187.173 6.21264 187.096 6.21264L184.789 6.19224C184.789 6.19224 184.739 6.21264 184.713 6.21264H184.618C184.465 6.21264 184.319 6.21944 184.179 6.23304C184.033 6.24664 183.925 6.29425 183.849 6.37586C183.798 6.43026 183.766 6.51867 183.753 6.64789C183.741 6.7771 183.734 6.91311 183.734 7.06273V12.0068H186.842C186.995 12.0068 187.135 12 187.262 11.9796C187.395 11.9592 187.516 11.9048 187.624 11.8096C187.649 11.7824 187.675 11.762 187.7 11.7416C187.726 11.7212 187.745 11.7008 187.757 11.6736C187.821 11.6192 187.865 11.5648 187.897 11.5104C187.929 11.456 187.961 11.388 187.999 11.3064L188.393 10.4223V15.1624L188.221 14.6999C188.209 14.6591 188.196 14.6115 188.177 14.5571C188.158 14.5027 188.145 14.4483 188.132 14.3939C188.12 14.3667 188.113 14.3463 188.107 14.3259C188.101 14.3055 188.094 14.2851 188.082 14.2579C188.018 14.0471 187.948 13.8362 187.865 13.6458C187.783 13.4486 187.675 13.3126 187.535 13.231C187.459 13.1766 187.382 13.1358 187.313 13.1086C187.236 13.0814 187.16 13.061 187.09 13.0473C187.014 13.0337 186.938 13.0269 186.855 13.0269H183.734V17.9575C183.734 18.0255 183.734 18.1003 183.741 18.1751C183.741 18.2567 183.753 18.3315 183.766 18.3927C183.792 18.5423 183.823 18.6715 183.868 18.7803C183.912 18.896 183.97 18.9708 184.046 19.0116C184.148 19.066 184.236 19.1 184.319 19.1136C184.402 19.1272 184.484 19.134 184.573 19.134H184.675C184.675 19.134 184.739 19.134 184.777 19.1136H184.98L188.05 19.0932C188.088 19.1068 188.126 19.1136 188.164 19.1136H188.279C188.279 19.1136 188.336 19.134 188.374 19.134H188.488C188.552 19.134 188.615 19.134 188.679 19.1136C188.743 19.1 188.806 19.0796 188.863 19.0524C188.965 18.998 189.048 18.8892 189.118 18.7327C189.187 18.5695 189.251 18.3927 189.315 18.1887C189.327 18.1479 189.34 18.1071 189.353 18.0595C189.365 18.0119 189.378 17.9711 189.391 17.9303C189.416 17.8486 189.442 17.767 189.473 17.6922C189.505 17.6106 189.531 17.5358 189.556 17.4678L189.798 16.8217L189.702 20.0793H179.775L180.207 19.9365C180.309 19.9229 180.423 19.8957 180.557 19.8549C180.69 19.814 180.824 19.7732 180.957 19.7324C181.084 19.678 181.205 19.6304 181.332 19.5828C181.459 19.5352 181.567 19.4876 181.669 19.4332C181.732 19.406 181.79 19.372 181.84 19.3312C181.891 19.2904 181.929 19.2564 181.955 19.2292C182.018 19.1476 182.063 19.0592 182.088 18.9572C182.114 18.8552 182.133 18.7531 182.146 18.6443V6.7907C182.146 6.65469 182.133 6.53227 182.12 6.41666C182.101 6.30105 182.05 6.19224 181.961 6.08343C181.936 6.05622 181.898 6.02222 181.847 5.98142C181.796 5.94061 181.739 5.90661 181.675 5.87941C181.574 5.825 181.465 5.7774 181.338 5.72979C181.211 5.68219 181.09 5.63458 180.963 5.58018C180.824 5.53937 180.69 5.49857 180.563 5.45776C180.43 5.41696 180.315 5.38295 180.213 5.35575L179.781 5.19254H189.168L189.175 5.20614Z" fill="#6E6F71"/>
<path d="M51.5713 28.4033L52.4928 28.655C52.3022 29.4642 51.9526 30.0831 51.4505 30.5115C50.9485 30.94 50.3383 31.1508 49.6138 31.1508C48.8893 31.1508 48.2537 30.9876 47.7834 30.6612C47.3131 30.3347 46.9572 29.8587 46.7093 29.2398C46.4615 28.621 46.3407 27.9545 46.3407 27.2404C46.3407 26.4651 46.4805 25.7851 46.7538 25.207C47.0335 24.6289 47.4275 24.1869 47.9359 23.8877C48.4444 23.5884 49.01 23.4388 49.6265 23.4388C50.3256 23.4388 50.9103 23.6292 51.3806 24.0101C51.8573 24.3909 52.1878 24.9282 52.3721 25.615L51.4633 25.8463C51.3044 25.3022 51.0692 24.9078 50.7578 24.6561C50.4527 24.4113 50.065 24.2821 49.6011 24.2821C49.0672 24.2821 48.616 24.4181 48.2601 24.6969C47.8978 24.969 47.6499 25.343 47.5038 25.8055C47.3576 26.2679 47.2877 26.744 47.2877 27.2404C47.2877 27.8729 47.3766 28.4305 47.5482 28.9066C47.7198 29.3826 47.9868 29.7363 48.3554 29.9675C48.7177 30.1987 49.1117 30.3211 49.5375 30.3211C50.0523 30.3211 50.4909 30.1647 50.8468 29.8451C51.2027 29.5254 51.4442 29.0494 51.5713 28.4237V28.4033Z" fill="#231F20"/>
<path d="M53.351 28.3149C53.351 27.3152 53.6115 26.5739 54.1327 26.0911C54.5649 25.6899 55.0924 25.4926 55.7216 25.4926C56.4143 25.4926 56.98 25.7375 57.4185 26.2203C57.857 26.71 58.0795 27.3832 58.0795 28.2401C58.0795 28.9338 57.9841 29.4846 57.7871 29.8859C57.5901 30.2871 57.3104 30.5932 56.9355 30.8176C56.5605 31.0352 56.1601 31.1508 55.7152 31.1508C55.0097 31.1508 54.4378 30.906 54.0056 30.4231C53.5734 29.9403 53.351 29.2398 53.351 28.3217V28.3149ZM54.228 28.3149C54.228 29.0086 54.3678 29.5254 54.6538 29.8723C54.9335 30.2191 55.2894 30.3891 55.7152 30.3891C56.141 30.3891 56.4906 30.2191 56.7766 29.8723C57.0562 29.5254 57.196 28.995 57.196 28.2877C57.196 27.6213 57.0562 27.1112 56.7702 26.7644C56.4842 26.4175 56.1347 26.2475 55.7152 26.2475C55.2957 26.2475 54.9335 26.4175 54.6538 26.7644C54.3742 27.1044 54.228 27.6281 54.228 28.3149Z" fill="#231F20"/>
<path d="M59.2361 31.0216V25.615H60.0051V26.3835C60.3737 25.7919 60.9076 25.4926 61.6067 25.4926C61.9118 25.4926 62.1914 25.5538 62.4456 25.6694C62.6998 25.7851 62.8905 25.9415 63.0176 26.1319C63.1447 26.3223 63.2337 26.5467 63.2846 26.812C63.3163 26.982 63.329 27.2812 63.329 27.7029V31.0284H62.4774V27.7369C62.4774 27.3628 62.4456 27.084 62.3757 26.9004C62.3122 26.7168 62.1914 26.5671 62.0198 26.4583C61.8482 26.3495 61.6512 26.2951 61.4224 26.2951C61.0601 26.2951 60.7423 26.4175 60.4818 26.6692C60.2148 26.914 60.0877 27.39 60.0877 28.0769V31.0284H59.2361V31.0216Z" fill="#231F20"/>
<path d="M64.7971 31.0216V25.615H65.5661V26.3835C65.9348 25.7919 66.4686 25.4926 67.1677 25.4926C67.4728 25.4926 67.7524 25.5538 68.0067 25.6694C68.2609 25.7851 68.4515 25.9415 68.5787 26.1319C68.7058 26.3223 68.7947 26.5467 68.8456 26.812C68.8774 26.982 68.8901 27.2812 68.8901 27.7029V31.0284H68.0384V27.7369C68.0384 27.3628 68.0067 27.084 67.9368 26.9004C67.8732 26.7168 67.7524 26.5671 67.5808 26.4583C67.4092 26.3495 67.2122 26.2951 66.9834 26.2951C66.6212 26.2951 66.3034 26.4175 66.0428 26.6692C65.7759 26.914 65.6488 27.39 65.6488 28.0769V31.0284H64.7971V31.0216Z" fill="#231F20"/>
<path d="M73.8092 29.2806L74.6926 29.3962C74.5528 29.9471 74.2922 30.3823 73.9172 30.6816C73.5423 30.9876 73.0592 31.1372 72.4745 31.1372C71.7373 31.1372 71.1526 30.8924 70.7204 30.4095C70.2882 29.9199 70.0721 29.2398 70.0721 28.3625C70.0721 27.4852 70.2882 26.744 70.7268 26.2407C71.1653 25.7375 71.7309 25.4858 72.4237 25.4858C73.1164 25.4858 73.6503 25.7307 74.0761 26.2271C74.5019 26.7168 74.718 27.4104 74.718 28.3081C74.718 28.3625 74.718 28.4441 74.718 28.5529H70.9556C70.9873 29.1446 71.1462 29.6003 71.4259 29.9199C71.7055 30.2327 72.0614 30.3959 72.4809 30.3959C72.7923 30.3959 73.0592 30.3075 73.2817 30.1307C73.5041 29.9539 73.6757 29.6751 73.8092 29.2874V29.2806ZM71.0064 27.7981H73.8219C73.7838 27.3424 73.6757 27.0024 73.4978 26.7712C73.2245 26.4175 72.8749 26.2407 72.4364 26.2407C72.0424 26.2407 71.7119 26.3835 71.4449 26.6623C71.178 26.9412 71.0318 27.322 71 27.7913L71.0064 27.7981Z" fill="#231F20"/>
<path d="M79.2115 29.0426L80.0505 29.1582C79.9615 29.7771 79.7263 30.2667 79.345 30.6204C78.9637 30.974 78.4997 31.1508 77.9532 31.1508C77.2604 31.1508 76.7075 30.906 76.288 30.4231C75.8685 29.9403 75.6588 29.2466 75.6588 28.3421C75.6588 27.7573 75.7478 27.2472 75.9321 26.812C76.1101 26.3767 76.3897 26.0435 76.7583 25.8259C77.1269 25.6082 77.5273 25.4994 77.9595 25.4994C78.5061 25.4994 78.9573 25.6491 79.3005 25.9483C79.6501 26.2475 79.8725 26.6692 79.9679 27.2132L79.1353 27.3492C79.059 26.9888 78.9128 26.71 78.7158 26.5263C78.5124 26.3427 78.2709 26.2543 77.9849 26.2543C77.5528 26.2543 77.2032 26.4175 76.9363 26.7508C76.6693 27.084 76.5359 27.6077 76.5359 28.3217C76.5359 29.0358 76.663 29.5799 76.9236 29.9063C77.1841 30.2327 77.521 30.4027 77.9404 30.4027C78.2773 30.4027 78.5569 30.2939 78.7794 30.0695C79.0018 29.8519 79.148 29.5118 79.2052 29.0494L79.2115 29.0426Z" fill="#231F20"/>
<path d="M82.8088 30.2055L82.9296 31.0148C82.6881 31.0692 82.472 31.0964 82.2813 31.0964C81.9699 31.0964 81.7284 31.042 81.5568 30.94C81.3852 30.838 81.2644 30.6952 81.1945 30.5251C81.1246 30.3551 81.0928 29.9947 81.0928 29.4438V26.3291H80.4636V25.615H81.0928V24.2753L81.9445 23.7244V25.615H82.8025V26.3291H81.9445V29.4914C81.9445 29.7499 81.9572 29.9199 81.9889 29.9947C82.0207 30.0695 82.0652 30.1307 82.1351 30.1715C82.205 30.2191 82.3004 30.2395 82.4275 30.2395C82.5228 30.2395 82.6499 30.2259 82.8025 30.2055H82.8088Z" fill="#231F20"/>
<path d="M83.8002 24.6084V23.5543H84.6518V24.6084H83.8002ZM83.8002 31.0215V25.6149H84.6518V31.0215H83.8002Z" fill="#231F20"/>
<path d="M86.1135 31.0216V25.615H86.8825V26.3835C87.2512 25.7919 87.785 25.4926 88.4841 25.4926C88.7892 25.4926 89.0688 25.5538 89.3231 25.6694C89.5773 25.7851 89.768 25.9415 89.8951 26.1319C90.0222 26.3223 90.1111 26.5467 90.162 26.812C90.1938 26.982 90.2065 27.2812 90.2065 27.7029V31.0284H89.3548V27.7369C89.3548 27.3628 89.3231 27.084 89.2532 26.9004C89.1896 26.7168 89.0688 26.5671 88.8972 26.4583C88.7256 26.3495 88.5286 26.2951 88.2998 26.2951C87.9376 26.2951 87.6198 26.4175 87.3592 26.6692C87.0923 26.914 86.9652 27.39 86.9652 28.0769V31.0284H86.1135V31.0216Z" fill="#231F20"/>
<path d="M91.5223 31.4704L92.3549 31.5997C92.3867 31.8717 92.4883 32.0757 92.6472 32.1981C92.857 32.3681 93.1493 32.4497 93.5179 32.4497C93.912 32.4497 94.217 32.3681 94.4331 32.1981C94.6492 32.0281 94.7954 31.7901 94.8717 31.484C94.9161 31.3004 94.9352 30.906 94.9352 30.3075C94.5602 30.7768 94.0963 31.0148 93.537 31.0148C92.8442 31.0148 92.304 30.7496 91.929 30.2123C91.5477 29.6751 91.3571 29.0358 91.3571 28.2809C91.3571 27.7641 91.446 27.288 91.6176 26.8528C91.7892 26.4175 92.0435 26.0775 92.3739 25.8395C92.7044 25.6014 93.0921 25.4858 93.537 25.4858C94.1344 25.4858 94.6238 25.7443 95.0115 26.2611V25.6082H95.7996V30.2871C95.7996 31.1304 95.7169 31.7289 95.5581 32.0757C95.3992 32.4293 95.1449 32.7082 94.8017 32.9054C94.4522 33.1094 94.0264 33.2114 93.5243 33.2114C92.9205 33.2114 92.4375 33.0686 92.0689 32.7762C91.7003 32.4837 91.5223 32.0485 91.535 31.4636L91.5223 31.4704ZM92.2278 28.2197C92.2278 28.927 92.3612 29.4438 92.6218 29.7703C92.8824 30.0967 93.2129 30.2599 93.6069 30.2599C94.001 30.2599 94.3314 30.0967 94.592 29.7703C94.8589 29.4438 94.9924 28.9406 94.9924 28.2469C94.9924 27.5532 94.8526 27.084 94.5793 26.7508C94.306 26.4175 93.9755 26.2475 93.5878 26.2475C93.2002 26.2475 92.8824 26.4107 92.6218 26.744C92.3549 27.0772 92.2214 27.5668 92.2214 28.2197H92.2278Z" fill="#231F20"/>
<path d="M100.166 31.0215V23.5543H102.778C103.312 23.5543 103.737 23.6291 104.055 23.7788C104.379 23.9284 104.627 24.1596 104.812 24.4792C104.996 24.7921 105.085 25.1253 105.085 25.4653C105.085 25.785 105.002 26.0842 104.843 26.3698C104.684 26.6487 104.437 26.8799 104.112 27.0499C104.532 27.1791 104.856 27.4103 105.085 27.73C105.314 28.0496 105.422 28.4236 105.422 28.8589C105.422 29.2057 105.352 29.5322 105.218 29.8314C105.078 30.1306 104.913 30.3618 104.71 30.5251C104.506 30.6883 104.252 30.8107 103.947 30.8923C103.642 30.9739 103.267 31.0147 102.822 31.0147H100.166V31.0215ZM101.087 26.6895H102.593C103 26.6895 103.293 26.6623 103.471 26.6011C103.706 26.5262 103.884 26.4038 103.998 26.227C104.119 26.057 104.176 25.8394 104.176 25.5741C104.176 25.3293 104.119 25.1049 104.011 24.9213C103.903 24.7309 103.744 24.6016 103.534 24.5336C103.331 24.4656 102.975 24.4316 102.473 24.4316H101.081V26.6895H101.087ZM101.087 30.1374H102.822C103.121 30.1374 103.331 30.1238 103.451 30.1034C103.661 30.0626 103.839 29.9946 103.985 29.8994C104.125 29.8042 104.246 29.6682 104.335 29.4846C104.424 29.3009 104.475 29.0901 104.475 28.8589C104.475 28.5801 104.411 28.3352 104.278 28.1312C104.144 27.9272 103.96 27.7844 103.725 27.696C103.49 27.6144 103.146 27.5736 102.708 27.5736H101.1V30.1374H101.087Z" fill="#231F20"/>
<path d="M110.042 31.0216V30.2259C109.648 30.838 109.114 31.144 108.441 31.144C108.142 31.144 107.862 31.0828 107.608 30.9604C107.347 30.838 107.157 30.6816 107.036 30.4979C106.909 30.3143 106.82 30.0831 106.775 29.8179C106.737 29.6411 106.725 29.3554 106.725 28.961V25.6082H107.576V28.6074C107.576 29.0834 107.595 29.4098 107.627 29.5731C107.678 29.8111 107.792 30.0015 107.97 30.1375C108.142 30.2735 108.358 30.3415 108.619 30.3415C108.879 30.3415 109.114 30.2735 109.343 30.1307C109.566 29.9879 109.724 29.7975 109.82 29.5527C109.915 29.3078 109.96 28.961 109.96 28.4985V25.6014H110.811V31.008H110.049L110.042 31.0216Z" fill="#231F20"/>
<path d="M111.955 29.4098L112.8 29.267C112.845 29.6275 112.978 29.9063 113.195 30.1035C113.411 30.2939 113.716 30.3959 114.103 30.3959C114.491 30.3959 114.79 30.3075 114.974 30.1375C115.165 29.9675 115.26 29.7635 115.26 29.5323C115.26 29.3282 115.177 29.165 115.006 29.0426C114.891 28.961 114.599 28.859 114.135 28.7298C113.506 28.5597 113.074 28.4101 112.832 28.2877C112.591 28.1653 112.406 27.9953 112.279 27.7709C112.152 27.5532 112.095 27.3084 112.095 27.0432C112.095 26.8052 112.146 26.5807 112.248 26.3767C112.349 26.1727 112.489 26.0027 112.667 25.8667C112.8 25.7647 112.978 25.6694 113.214 25.6014C113.442 25.5266 113.69 25.4926 113.951 25.4926C114.345 25.4926 114.694 25.5538 114.993 25.6762C115.292 25.7987 115.514 25.9619 115.654 26.1727C115.794 26.3835 115.896 26.6624 115.946 27.0092L115.114 27.1316C115.076 26.8528 114.968 26.6351 114.783 26.4787C114.599 26.3223 114.345 26.2475 114.014 26.2475C113.62 26.2475 113.341 26.3155 113.175 26.4583C113.01 26.5943 112.921 26.7576 112.921 26.948C112.921 27.0704 112.959 27.1724 113.023 27.2676C113.093 27.3628 113.201 27.4444 113.353 27.5124C113.436 27.5464 113.69 27.6213 114.11 27.7437C114.713 27.9137 115.133 28.0565 115.374 28.1721C115.616 28.2809 115.8 28.4441 115.94 28.655C116.074 28.8658 116.143 29.1242 116.143 29.437C116.143 29.7499 116.061 30.0287 115.896 30.3007C115.73 30.5728 115.489 30.7768 115.177 30.9264C114.866 31.076 114.51 31.1508 114.116 31.1508C113.461 31.1508 112.959 31.008 112.616 30.7156C112.273 30.4231 112.051 29.9879 111.962 29.4166L111.955 29.4098Z" fill="#231F20"/>
<path d="M117.319 24.6084V23.5543H118.171V24.6084H117.319ZM117.319 31.0215V25.6149H118.171V31.0215H117.319Z" fill="#231F20"/>
<path d="M119.633 31.0216V25.615H120.402V26.3835C120.77 25.7919 121.304 25.4926 122.003 25.4926C122.308 25.4926 122.588 25.5538 122.842 25.6694C123.096 25.7851 123.287 25.9415 123.414 26.1319C123.541 26.3223 123.63 26.5467 123.681 26.812C123.713 26.982 123.726 27.2812 123.726 27.7029V31.0284H122.874V27.7369C122.874 27.3628 122.842 27.084 122.772 26.9004C122.709 26.7168 122.588 26.5671 122.416 26.4583C122.245 26.3495 122.048 26.2951 121.819 26.2951C121.457 26.2951 121.139 26.4175 120.878 26.6692C120.611 26.914 120.484 27.39 120.484 28.0769V31.0284H119.633V31.0216Z" fill="#231F20"/>
<path d="M128.645 29.2806L129.528 29.3962C129.388 29.9471 129.128 30.3823 128.753 30.6816C128.378 30.9876 127.895 31.1372 127.31 31.1372C126.573 31.1372 125.988 30.8924 125.556 30.4095C125.124 29.9199 124.908 29.2398 124.908 28.3625C124.908 27.4852 125.124 26.744 125.562 26.2407C126.001 25.7375 126.567 25.4858 127.259 25.4858C127.952 25.4858 128.486 25.7307 128.912 26.2271C129.338 26.7168 129.554 27.4104 129.554 28.3081C129.554 28.3625 129.554 28.4441 129.554 28.5529H125.791C125.823 29.1446 125.982 29.6003 126.261 29.9199C126.541 30.2327 126.897 30.3959 127.316 30.3959C127.628 30.3959 127.895 30.3075 128.117 30.1307C128.34 29.9539 128.511 29.6751 128.645 29.2874V29.2806ZM125.842 27.7981H128.657C128.619 27.3424 128.511 27.0024 128.333 26.7712C128.06 26.4175 127.711 26.2407 127.272 26.2407C126.878 26.2407 126.547 26.3835 126.281 26.6623C126.014 26.9412 125.867 27.322 125.836 27.7913L125.842 27.7981Z" fill="#231F20"/>
<path d="M130.418 29.4098L131.263 29.267C131.308 29.6275 131.441 29.9063 131.657 30.1035C131.873 30.2939 132.178 30.3959 132.566 30.3959C132.954 30.3959 133.253 30.3075 133.437 30.1375C133.628 29.9675 133.723 29.7635 133.723 29.5323C133.723 29.3282 133.64 29.165 133.469 29.0426C133.354 28.961 133.062 28.859 132.598 28.7298C131.969 28.5597 131.537 28.4101 131.295 28.2877C131.054 28.1653 130.869 27.9953 130.742 27.7709C130.615 27.5532 130.558 27.3084 130.558 27.0432C130.558 26.8052 130.609 26.5807 130.71 26.3767C130.812 26.1727 130.952 26.0027 131.13 25.8667C131.263 25.7647 131.441 25.6694 131.676 25.6014C131.905 25.5266 132.153 25.4926 132.414 25.4926C132.808 25.4926 133.157 25.5538 133.456 25.6762C133.755 25.7987 133.977 25.9619 134.117 26.1727C134.257 26.3835 134.358 26.6624 134.409 27.0092L133.577 27.1316C133.539 26.8528 133.43 26.6351 133.246 26.4787C133.062 26.3223 132.808 26.2475 132.477 26.2475C132.083 26.2475 131.803 26.3155 131.638 26.4583C131.473 26.5943 131.384 26.7576 131.384 26.948C131.384 27.0704 131.422 27.1724 131.486 27.2676C131.556 27.3628 131.664 27.4444 131.816 27.5124C131.899 27.5464 132.153 27.6213 132.572 27.7437C133.176 27.9137 133.596 28.0565 133.837 28.1721C134.079 28.2809 134.263 28.4441 134.403 28.655C134.536 28.8658 134.606 29.1242 134.606 29.437C134.606 29.7499 134.524 30.0287 134.358 30.3007C134.193 30.5728 133.952 30.7768 133.64 30.9264C133.329 31.076 132.973 31.1508 132.579 31.1508C131.924 31.1508 131.422 31.008 131.079 30.7156C130.736 30.4231 130.513 29.9879 130.424 29.4166L130.418 29.4098Z" fill="#231F20"/>
<path d="M135.432 29.4098L136.278 29.267C136.322 29.6275 136.456 29.9063 136.672 30.1035C136.888 30.2939 137.193 30.3959 137.581 30.3959C137.968 30.3959 138.267 30.3075 138.451 30.1375C138.642 29.9675 138.737 29.7635 138.737 29.5323C138.737 29.3282 138.655 29.165 138.483 29.0426C138.369 28.961 138.076 28.859 137.612 28.7298C136.983 28.5597 136.551 28.4101 136.31 28.2877C136.068 28.1653 135.884 27.9953 135.757 27.7709C135.63 27.5532 135.572 27.3084 135.572 27.0432C135.572 26.8052 135.623 26.5807 135.725 26.3767C135.827 26.1727 135.966 26.0027 136.144 25.8667C136.278 25.7647 136.456 25.6694 136.691 25.6014C136.92 25.5266 137.168 25.4926 137.428 25.4926C137.822 25.4926 138.172 25.5538 138.47 25.6762C138.769 25.7987 138.992 25.9619 139.131 26.1727C139.271 26.3835 139.373 26.6624 139.424 27.0092L138.591 27.1316C138.553 26.8528 138.445 26.6351 138.261 26.4787C138.076 26.3223 137.822 26.2475 137.492 26.2475C137.098 26.2475 136.818 26.3155 136.653 26.4583C136.488 26.5943 136.399 26.7576 136.399 26.948C136.399 27.0704 136.437 27.1724 136.5 27.2676C136.57 27.3628 136.678 27.4444 136.831 27.5124C136.913 27.5464 137.168 27.6213 137.587 27.7437C138.191 27.9137 138.61 28.0565 138.852 28.1721C139.093 28.2809 139.278 28.4441 139.417 28.655C139.551 28.8658 139.621 29.1242 139.621 29.437C139.621 29.7499 139.538 30.0287 139.373 30.3007C139.208 30.5728 138.966 30.7768 138.655 30.9264C138.343 31.076 137.987 31.1508 137.593 31.1508C136.939 31.1508 136.437 31.008 136.093 30.7156C135.75 30.4231 135.528 29.9879 135.439 29.4166L135.432 29.4098Z" fill="#231F20"/>
<path d="M144.241 29.2806L145.125 29.3962C144.985 29.9471 144.724 30.3823 144.349 30.6816C143.974 30.9876 143.491 31.1372 142.907 31.1372C142.169 31.1372 141.585 30.8924 141.153 30.4095C140.72 29.9199 140.504 29.2398 140.504 28.3625C140.504 27.4852 140.72 26.744 141.159 26.2407C141.597 25.7375 142.163 25.4858 142.856 25.4858C143.549 25.4858 144.082 25.7307 144.508 26.2271C144.934 26.7168 145.15 27.4104 145.15 28.3081C145.15 28.3625 145.15 28.4441 145.15 28.5529H141.388C141.419 29.1446 141.578 29.6003 141.858 29.9199C142.138 30.2327 142.494 30.3959 142.913 30.3959C143.224 30.3959 143.491 30.3075 143.714 30.1307C143.936 29.9539 144.108 29.6751 144.241 29.2874V29.2806ZM141.439 27.7981H144.254C144.216 27.3424 144.108 27.0024 143.93 26.7712C143.657 26.4175 143.307 26.2407 142.869 26.2407C142.474 26.2407 142.144 26.3835 141.877 26.6623C141.61 26.9412 141.464 27.322 141.432 27.7913L141.439 27.7981Z" fill="#231F20"/>
<path d="M146.014 29.4098L146.86 29.267C146.904 29.6275 147.038 29.9063 147.254 30.1035C147.47 30.2939 147.775 30.3959 148.163 30.3959C148.55 30.3959 148.849 30.3075 149.033 30.1375C149.224 29.9675 149.319 29.7635 149.319 29.5323C149.319 29.3282 149.237 29.165 149.065 29.0426C148.951 28.961 148.658 28.859 148.194 28.7298C147.565 28.5597 147.133 28.4101 146.891 28.2877C146.65 28.1653 146.466 27.9953 146.339 27.7709C146.211 27.5532 146.154 27.3084 146.154 27.0432C146.154 26.8052 146.205 26.5807 146.307 26.3767C146.408 26.1727 146.548 26.0027 146.726 25.8667C146.86 25.7647 147.038 25.6694 147.273 25.6014C147.502 25.5266 147.749 25.4926 148.01 25.4926C148.404 25.4926 148.754 25.5538 149.052 25.6762C149.351 25.7987 149.574 25.9619 149.713 26.1727C149.853 26.3835 149.955 26.6624 150.006 27.0092L149.173 27.1316C149.135 26.8528 149.027 26.6351 148.843 26.4787C148.658 26.3223 148.404 26.2475 148.074 26.2475C147.68 26.2475 147.4 26.3155 147.235 26.4583C147.069 26.5943 146.98 26.7576 146.98 26.948C146.98 27.0704 147.019 27.1724 147.082 27.2676C147.152 27.3628 147.26 27.4444 147.413 27.5124C147.495 27.5464 147.749 27.6213 148.169 27.7437C148.773 27.9137 149.192 28.0565 149.434 28.1721C149.675 28.2809 149.86 28.4441 149.999 28.655C150.133 28.8658 150.203 29.1242 150.203 29.437C150.203 29.7499 150.12 30.0287 149.955 30.3007C149.79 30.5728 149.548 30.7768 149.237 30.9264C148.925 31.076 148.569 31.1508 148.175 31.1508C147.521 31.1508 147.019 31.008 146.675 30.7156C146.332 30.4231 146.11 29.9879 146.021 29.4166L146.014 29.4098Z" fill="#231F20"/>
<path d="M157.594 28.0973V27.22H160.543V29.9879C160.092 30.3755 159.622 30.668 159.145 30.8584C158.662 31.0556 158.173 31.1508 157.664 31.1508C156.978 31.1508 156.361 30.9944 155.802 30.6816C155.243 30.3687 154.823 29.9131 154.537 29.3214C154.251 28.7298 154.111 28.0633 154.111 27.3288C154.111 26.5943 154.251 25.9211 154.537 25.2954C154.823 24.6629 155.23 24.2005 155.758 23.8945C156.291 23.5884 156.902 23.4388 157.594 23.4388C158.096 23.4388 158.554 23.5272 158.961 23.704C159.367 23.8809 159.685 24.1257 159.92 24.4317C160.149 24.7445 160.327 25.1526 160.448 25.6558L159.615 25.9007C159.514 25.5198 159.38 25.2206 159.228 25.003C159.075 24.7854 158.853 24.6085 158.56 24.4793C158.274 24.3501 157.95 24.2821 157.601 24.2821C157.181 24.2821 156.819 24.3501 156.507 24.4861C156.202 24.6221 155.955 24.8058 155.764 25.0302C155.573 25.2546 155.427 25.4994 155.325 25.7715C155.147 26.2339 155.058 26.7372 155.058 27.2744C155.058 27.9409 155.166 28.4985 155.376 28.9474C155.592 29.3962 155.904 29.7295 156.31 29.9471C156.717 30.1647 157.149 30.2735 157.613 30.2735C158.014 30.2735 158.401 30.1919 158.783 30.0287C159.164 29.8655 159.45 29.6887 159.647 29.4982V28.1109H157.601L157.594 28.0973Z" fill="#231F20"/>
<path d="M161.929 31.0215V23.5543H162.78V31.0215H161.929Z" fill="#231F20"/>
<path d="M163.943 28.3149C163.943 27.3152 164.204 26.5739 164.725 26.0911C165.157 25.6899 165.685 25.4926 166.308 25.4926C167 25.4926 167.566 25.7375 168.005 26.2203C168.443 26.71 168.666 27.3832 168.666 28.2401C168.666 28.9338 168.57 29.4846 168.373 29.8859C168.176 30.2871 167.897 30.5932 167.522 30.8176C167.147 31.0352 166.746 31.1508 166.301 31.1508C165.596 31.1508 165.024 30.906 164.592 30.4231C164.153 29.9403 163.937 29.2398 163.937 28.3217L163.943 28.3149ZM164.821 28.3149C164.821 29.0086 164.96 29.5254 165.24 29.8723C165.52 30.2191 165.876 30.3891 166.301 30.3891C166.727 30.3891 167.077 30.2191 167.363 29.8723C167.642 29.5254 167.789 28.995 167.789 28.2877C167.789 27.6213 167.649 27.1112 167.363 26.7644C167.077 26.4175 166.727 26.2475 166.308 26.2475C165.888 26.2475 165.526 26.4175 165.246 26.7644C164.967 27.1044 164.827 27.6281 164.827 28.3149H164.821Z" fill="#231F20"/>
<path d="M170.617 31.0215H169.822V23.5543H170.674V26.2202C171.036 25.7374 171.494 25.4925 172.053 25.4925C172.364 25.4925 172.657 25.5605 172.936 25.6966C173.216 25.8326 173.438 26.0162 173.623 26.261C173.801 26.5058 173.941 26.7983 174.042 27.1383C174.144 27.4783 174.195 27.8456 174.195 28.24C174.195 29.1649 173.979 29.8858 173.553 30.389C173.127 30.8923 172.612 31.1507 172.015 31.1507C171.417 31.1507 170.953 30.8855 170.617 30.3482V31.0283V31.0215ZM170.604 28.274C170.604 28.9201 170.686 29.3893 170.852 29.6818C171.119 30.151 171.487 30.389 171.945 30.389C172.32 30.389 172.644 30.2122 172.911 29.8654C173.184 29.5186 173.318 29.0017 173.318 28.308C173.318 27.6144 173.184 27.0771 172.924 26.7439C172.663 26.4106 172.345 26.2406 171.977 26.2406C171.608 26.2406 171.278 26.4174 171.011 26.7643C170.737 27.1111 170.604 27.6144 170.604 28.274Z" fill="#231F20"/>
<path d="M178.682 30.3551C178.364 30.6408 178.059 30.8448 177.767 30.9672C177.474 31.0896 177.163 31.144 176.826 31.144C176.273 31.144 175.847 31.0012 175.549 30.7088C175.25 30.4163 175.104 30.0491 175.104 29.5935C175.104 29.3282 175.161 29.0902 175.275 28.8658C175.39 28.6482 175.536 28.4713 175.714 28.3353C175.898 28.2061 176.101 28.1041 176.33 28.0361C176.496 27.9885 176.75 27.9409 177.087 27.9001C177.779 27.8117 178.288 27.7097 178.612 27.5872C178.612 27.4648 178.612 27.3832 178.612 27.3492C178.612 26.9752 178.529 26.71 178.37 26.5603C178.154 26.3563 177.83 26.2475 177.398 26.2475C176.998 26.2475 176.699 26.3223 176.508 26.4719C176.318 26.6215 176.178 26.8936 176.082 27.2744L175.25 27.152C175.326 26.7712 175.453 26.4583 175.625 26.2203C175.796 25.9823 176.051 25.8055 176.381 25.6762C176.712 25.547 177.093 25.4858 177.525 25.4858C177.957 25.4858 178.307 25.5402 178.574 25.649C178.841 25.7579 179.038 25.8939 179.165 26.0571C179.292 26.2203 179.381 26.4311 179.432 26.6827C179.457 26.8392 179.476 27.118 179.476 27.526V28.7502C179.476 29.6003 179.495 30.1443 179.533 30.3687C179.572 30.5932 179.641 30.8108 179.75 31.0148H178.86C178.771 30.8244 178.714 30.6 178.688 30.3483L178.682 30.3551ZM178.612 28.3081C178.3 28.4441 177.837 28.5597 177.214 28.655C176.864 28.7094 176.616 28.7706 176.47 28.8386C176.324 28.9066 176.21 29.0086 176.133 29.1378C176.057 29.267 176.012 29.4166 176.012 29.573C176.012 29.8179 176.101 30.0219 176.273 30.1851C176.445 30.3483 176.699 30.4299 177.029 30.4299C177.36 30.4299 177.652 30.3551 177.906 30.1987C178.161 30.0423 178.351 29.8315 178.472 29.5662C178.561 29.3622 178.612 29.0562 178.612 28.6482V28.3149V28.3081Z" fill="#231F20"/>
<path d="M180.932 31.0215V23.5543H181.783V31.0215H180.932Z" fill="#231F20"/>
<path d="M183.252 31.0215V23.5543H184.103V31.0215H183.252Z" fill="#231F20"/>
<path d="M185.546 33.1026L185.451 32.2389C185.635 32.2933 185.8 32.3205 185.94 32.3205C186.131 32.3205 186.283 32.2865 186.398 32.2185C186.512 32.1505 186.607 32.0553 186.677 31.9329C186.728 31.8377 186.817 31.6133 186.938 31.2528C186.951 31.1984 186.976 31.1236 187.014 31.0284L185.101 25.6082H186.023L187.071 28.7434C187.205 29.1378 187.332 29.5595 187.44 29.9947C187.535 29.5731 187.656 29.165 187.789 28.7638L188.87 25.6082H189.722L187.802 31.11C187.599 31.7017 187.44 32.1165 187.326 32.3341C187.173 32.6334 187.001 32.8578 186.804 33.0006C186.607 33.1434 186.372 33.2114 186.099 33.2114C185.934 33.2114 185.749 33.1774 185.546 33.1026Z" fill="#231F20"/>
</svg>
