<svg width="43" height="31" viewBox="0 0 43 31" fill="none" xmlns="http://www.w3.org/2000/svg">
<path d="M40.2228 6.70419C43.0033 15.1534 34.6502 25.4106 22.0999 29.2275C9.54963 33.0385 2.71255 28.8907 0.435469 22.7458C-1.46112 17.635 2.77694 8.12224 14.3379 3.46041C25.5477 -1.05961 37.8989 -0.338766 40.217 6.70419H40.2228Z" fill="#E32228"/>
<path d="M12.781 30.9941C6.73999 30.9941 2.33218 27.9866 2.23266 22.3913C2.1273 10.0543 15.7546 0.204773 27.1225 0.61837C37.5713 0.931521 36.9566 9.63477 27.3273 14.3025C24.2542 15.756 19.6473 16.9968 16.779 16.8963C15.0346 16.79 14.8298 15.9628 16.8785 15.9628C18.6171 15.9628 22.9195 14.9288 26.5078 13.0617C35.9322 7.87994 31.7293 1.45147 24.5644 4.77206C19.0327 7.35999 12.5819 14.8284 11.4522 21.1505C10.7322 25.1919 12.4766 28.3057 16.5741 28.1993C23.7449 28.093 36.342 17.4222 41.1596 12.7545C42.6991 11.2005 42.6991 13.0676 41.7742 13.8948C33.9888 21.1505 24.0551 30.8936 12.7868 31L12.781 30.9941Z" fill="white"/>
</svg>
