<svg width="146" height="44" viewBox="0 0 146 44" fill="none" xmlns="http://www.w3.org/2000/svg">
<rect x="145.079" width="43.0999" height="144.243" rx="10" transform="rotate(90 145.079 0)" fill="#7C4092"/>
<path d="M54.1217 22.0876L50.8609 22.0876L50.8609 20.031L54.1217 20.031C54.6256 20.031 55.0358 19.949 55.3522 19.7849C55.6686 19.615 55.9 19.3806 56.0465 19.0818C56.193 18.783 56.2662 18.446 56.2662 18.071C56.2662 17.6902 56.193 17.3357 56.0465 17.0076C55.9 16.6794 55.6686 16.4158 55.3522 16.2166C55.0358 16.0173 54.6256 15.9177 54.1217 15.9177L51.775 15.9177L51.775 26.6492L49.1383 26.6492L49.1383 13.8523L54.1217 13.8523C55.1236 13.8523 55.982 14.0339 56.6969 14.3972C57.4176 14.7546 57.9684 15.2498 58.3492 15.8826C58.7301 16.5154 58.9205 17.239 58.9205 18.0535C58.9205 18.8796 58.7301 19.5945 58.3492 20.198C57.9684 20.8015 57.4176 21.2673 56.6969 21.5955C55.982 21.9236 55.1236 22.0876 54.1217 22.0876ZM63.2535 13.1492L63.2535 26.6492L60.7135 26.6492L60.7135 13.1492L63.2535 13.1492ZM70.4781 24.5046L70.4781 20.2683C70.4781 19.9636 70.4283 19.7029 70.3287 19.4861C70.2291 19.2634 70.0738 19.0906 69.8629 18.9675C69.6578 18.8445 69.3912 18.783 69.0631 18.783C68.7818 18.783 68.5387 18.8328 68.3336 18.9324C68.1285 19.0261 67.9703 19.1638 67.859 19.3455C67.7477 19.5212 67.692 19.7292 67.692 19.9695L65.1608 19.9695C65.1608 19.5652 65.2545 19.1814 65.442 18.8181C65.6295 18.4548 65.902 18.1355 66.2594 17.8601C66.6168 17.5789 67.0416 17.3591 67.5338 17.2009C68.0318 17.0427 68.5885 16.9636 69.2037 16.9636C69.942 16.9636 70.5983 17.0867 71.1725 17.3328C71.7467 17.5789 72.1979 17.948 72.526 18.4402C72.86 18.9324 73.027 19.5476 73.027 20.2859L73.027 24.3552C73.027 24.8767 73.0592 25.3044 73.1236 25.6384C73.1881 25.9666 73.2818 26.2537 73.4049 26.4998L73.4049 26.6492L70.8473 26.6492C70.7242 26.3914 70.6305 26.0691 70.566 25.6824C70.5074 25.2898 70.4781 24.8972 70.4781 24.5046ZM70.8121 20.8572L70.8297 22.2898L69.4147 22.2898C69.0807 22.2898 68.7906 22.3279 68.5445 22.4041C68.2984 22.4802 68.0963 22.5886 67.9381 22.7292C67.7799 22.864 67.6627 23.0222 67.5865 23.2039C67.5162 23.3855 67.4811 23.5847 67.4811 23.8015C67.4811 24.0183 67.5309 24.2146 67.6305 24.3904C67.7301 24.5603 67.8736 24.6951 68.0611 24.7947C68.2486 24.8884 68.4684 24.9353 68.7203 24.9353C69.1012 24.9353 69.4322 24.8591 69.7135 24.7068C69.9947 24.5544 70.2115 24.3669 70.3639 24.1443C70.5221 23.9216 70.6041 23.7107 70.61 23.5115L71.2779 24.5837C71.1842 24.824 71.0553 25.073 70.8912 25.3308C70.733 25.5886 70.5309 25.8318 70.2848 26.0603C70.0387 26.283 69.7428 26.4675 69.3971 26.614C69.0514 26.7546 68.6412 26.8249 68.1666 26.8249C67.5631 26.8249 67.0152 26.7048 66.5231 26.4646C66.0367 26.2185 65.65 25.8816 65.3629 25.4539C65.0816 25.0203 64.941 24.5281 64.941 23.9773C64.941 23.4792 65.0348 23.0369 65.2223 22.6501C65.4098 22.2634 65.6852 21.9382 66.0484 21.6746C66.4176 21.405 66.8775 21.2029 67.4283 21.0681C67.9791 20.9275 68.6178 20.8572 69.3443 20.8572L70.8121 20.8572ZM79.6363 17.1394L79.6363 18.9324L74.0992 18.9324L74.0992 17.1394L79.6363 17.1394ZM75.4703 14.7927L78.0016 14.7927L78.0016 23.7839C78.0016 24.0593 78.0367 24.2703 78.107 24.4167C78.1832 24.5632 78.2945 24.6658 78.441 24.7244C78.5875 24.7771 78.7721 24.8035 78.9947 24.8035C79.1529 24.8035 79.2936 24.7976 79.4166 24.7859C79.5455 24.7683 79.6539 24.7507 79.7418 24.7332L79.7506 26.5964C79.5338 26.6667 79.2994 26.7224 79.0475 26.7634C78.7955 26.8044 78.5172 26.8249 78.2125 26.8249C77.6559 26.8249 77.1695 26.7341 76.7535 26.5525C76.3434 26.365 76.027 26.0662 75.8043 25.656C75.5816 25.2458 75.4703 24.7068 75.4703 24.0388L75.4703 14.7927ZM83.7496 17.1394L83.7496 26.6492L81.2096 26.6492L81.2096 17.1394L83.7496 17.1394ZM81.0514 14.6609C81.0514 14.2917 81.1803 13.9871 81.4381 13.7468C81.6959 13.5066 82.0416 13.3865 82.4752 13.3865C82.9029 13.3865 83.2457 13.5066 83.5035 13.7468C83.7672 13.9871 83.899 14.2917 83.899 14.6609C83.899 15.03 83.7672 15.3347 83.5035 15.5749C83.2457 15.8152 82.9029 15.9353 82.4752 15.9353C82.0416 15.9353 81.6959 15.8152 81.4381 15.5749C81.1803 15.3347 81.0514 15.03 81.0514 14.6609ZM88.3199 19.1697L88.3199 26.6492L85.7887 26.6492L85.7887 17.1394L88.1617 17.1394L88.3199 19.1697ZM87.9508 21.5603L87.2652 21.5603C87.2652 20.8572 87.3561 20.2244 87.5377 19.6619C87.7193 19.0935 87.9742 18.6101 88.3024 18.2117C88.6305 17.8074 89.0201 17.4998 89.4713 17.2888C89.9283 17.072 90.4381 16.9636 91.0006 16.9636C91.4459 16.9636 91.8531 17.0281 92.2223 17.157C92.5914 17.2859 92.9078 17.491 93.1715 17.7722C93.441 18.0535 93.6461 18.4255 93.7867 18.8884C93.9332 19.3513 94.0065 19.9167 94.0065 20.5847L94.0065 26.6492L91.4576 26.6492L91.4576 20.5759C91.4576 20.154 91.399 19.8259 91.2818 19.5915C91.1647 19.3572 90.9918 19.1931 90.7633 19.0994C90.5406 18.9998 90.2652 18.9499 89.9371 18.9499C89.5973 18.9499 89.3014 19.0173 89.0494 19.1521C88.8033 19.2869 88.5983 19.4744 88.4342 19.7146C88.276 19.949 88.1559 20.2244 88.0738 20.5408C87.9918 20.8572 87.9508 21.197 87.9508 21.5603ZM101.556 24.3728L101.556 17.1394L104.088 17.1394L104.088 26.6492L101.706 26.6492L101.556 24.3728ZM101.838 22.4216L102.585 22.404C102.585 23.0369 102.511 23.6257 102.365 24.1706C102.218 24.7097 101.999 25.1785 101.706 25.5769C101.413 25.9695 101.044 26.2771 100.598 26.4998C100.153 26.7165 99.6285 26.8249 99.025 26.8249C98.5621 26.8249 98.1344 26.7605 97.7418 26.6316C97.3551 26.4968 97.0211 26.2888 96.7399 26.0076C96.4645 25.7205 96.2477 25.3542 96.0895 24.9089C95.9371 24.4578 95.8609 23.9158 95.8609 23.283L95.8609 17.1394L98.3922 17.1394L98.3922 23.3005C98.3922 23.5818 98.4244 23.8191 98.4889 24.0124C98.5592 24.2058 98.6559 24.364 98.7789 24.4871C98.902 24.6101 99.0455 24.698 99.2096 24.7507C99.3795 24.8035 99.567 24.8298 99.7721 24.8298C100.294 24.8298 100.704 24.7244 101.003 24.5134C101.307 24.3025 101.521 24.0154 101.644 23.6521C101.773 23.283 101.838 22.8728 101.838 22.4216ZM108.552 19.1081L108.552 26.6492L106.012 26.6492L106.012 17.1394L108.394 17.1394L108.552 19.1081ZM108.201 21.5603L107.498 21.5603C107.498 20.8982 107.577 20.2888 107.735 19.7322C107.899 19.1697 108.136 18.6833 108.447 18.2732C108.763 17.8572 109.153 17.5349 109.616 17.3064C110.079 17.0779 110.615 16.9636 111.224 16.9636C111.646 16.9636 112.033 17.0281 112.384 17.157C112.736 17.28 113.038 17.4763 113.29 17.7458C113.547 18.0095 113.747 18.3552 113.887 18.783C114.028 19.2048 114.098 19.7117 114.098 20.3035L114.098 26.6492L111.567 26.6492L111.567 20.5847C111.567 20.1511 111.508 19.8171 111.391 19.5828C111.274 19.3484 111.107 19.1843 110.89 19.0906C110.679 18.9968 110.424 18.9499 110.126 18.9499C109.797 18.9499 109.51 19.0173 109.264 19.1521C109.024 19.2869 108.825 19.4744 108.667 19.7146C108.508 19.949 108.391 20.2244 108.315 20.5408C108.239 20.8572 108.201 21.197 108.201 21.5603ZM113.861 21.2703L112.956 21.3845C112.956 20.7634 113.032 20.1863 113.184 19.6531C113.342 19.1199 113.574 18.6511 113.879 18.2468C114.189 17.8425 114.573 17.529 115.03 17.3064C115.487 17.0779 116.014 16.9636 116.612 16.9636C117.069 16.9636 117.485 17.031 117.86 17.1658C118.235 17.2947 118.554 17.5027 118.818 17.7898C119.088 18.071 119.293 18.4402 119.433 18.8972C119.58 19.3542 119.653 19.9138 119.653 20.5759L119.653 26.6492L117.113 26.6492L117.113 20.5759C117.113 20.1365 117.054 19.8025 116.937 19.574C116.826 19.3396 116.662 19.1785 116.445 19.0906C116.234 18.9968 115.982 18.9499 115.689 18.9499C115.384 18.9499 115.118 19.0115 114.889 19.1345C114.661 19.2517 114.47 19.4158 114.318 19.6267C114.166 19.8376 114.051 20.0837 113.975 20.365C113.899 20.6404 113.861 20.9421 113.861 21.2703ZM134.375 19.5212L134.375 21.7273L125.603 21.7273L125.603 19.5212L134.375 19.5212ZM131.193 16.0496L131.193 25.366L128.794 25.366L128.794 16.0496L131.193 16.0496Z" fill="white"/>
<path d="M17.258 32.1609C12.1634 32.1609 8.44982 30.1244 8.3615 26.3322C8.27318 17.9776 19.7631 11.307 29.3501 11.5876C38.1583 11.7998 37.6404 17.697 29.5227 20.856C26.9333 21.8384 23.0471 22.6804 20.6263 22.6118C19.1569 22.54 18.9843 21.9787 20.7146 21.9787C22.1839 21.9787 25.8092 21.277 28.8322 20.0141C36.7772 16.5025 33.2363 12.149 27.1902 14.3975C22.5252 16.1533 17.0853 21.2085 16.1339 25.4902C15.5277 28.2283 16.997 30.3366 20.4496 30.2648C26.4957 30.193 37.1185 22.9643 41.1773 19.8052C42.474 18.7511 42.474 20.0173 41.6952 20.5787C35.1312 25.4935 26.7526 32.0923 17.254 32.1641L17.258 32.1609Z" fill="white"/>
</svg>
