<svg width="145" height="44" viewBox="0 0 145 44" fill="none" xmlns="http://www.w3.org/2000/svg">
<path d="M127.5 0.06018C134.522 0.0601803 138.033 0.0601804 140.556 1.74548C141.648 2.47507 142.585 3.41258 143.315 4.50448C145 7.02671 145 10.5379 145 17.5602L145 25.6601C145 32.6824 145 36.1936 143.315 38.7158C142.585 39.8077 141.648 40.7452 140.556 41.4748C138.033 43.1601 134.522 43.1601 127.5 43.1601L18.2567 43.1601C11.2344 43.1601 7.72322 43.1601 5.20097 41.4748C4.10908 40.7452 3.17157 39.8077 2.44198 38.7158C0.756681 36.1936 0.756682 32.6824 0.756682 25.6601L0.756682 17.5602C0.756683 10.5379 0.756683 7.02671 2.44199 4.50447C3.17157 3.41257 4.10908 2.47506 5.20097 1.74548C7.72322 0.0601758 11.2344 0.0601759 18.2567 0.0601761L127.5 0.06018Z" fill="#F4BF39"/>
<path d="M83.0008 20.021L83.0008 25.0923C82.8016 25.3325 82.494 25.5933 82.078 25.8745C81.662 26.1499 81.1258 26.3872 80.4696 26.5864C79.8133 26.7856 79.0194 26.8853 78.0877 26.8853C77.2616 26.8853 76.5086 26.7505 75.829 26.481C75.1493 26.2056 74.5633 25.8042 74.0711 25.2769C73.5848 24.7495 73.2098 24.105 72.9461 23.3433C72.6825 22.5757 72.5506 21.6997 72.5506 20.7153L72.5506 19.9155C72.5506 18.9312 72.6766 18.0552 72.9286 17.2876C73.1864 16.52 73.5526 15.8726 74.0272 15.3452C74.5018 14.8179 75.0672 14.4165 75.7235 14.1411C76.3797 13.8657 77.1092 13.728 77.912 13.728C79.0252 13.728 79.9393 13.9097 80.6542 14.2729C81.369 14.6304 81.9139 15.1284 82.2889 15.7671C82.6698 16.3999 82.9042 17.1265 82.992 17.9468L80.4344 17.9468C80.37 17.5132 80.2469 17.1353 80.0653 16.813C79.8836 16.4907 79.6229 16.2388 79.2831 16.0571C78.9491 15.8755 78.5155 15.7847 77.9823 15.7847C77.5428 15.7847 77.1502 15.8755 76.8045 16.0571C76.4647 16.2329 76.1776 16.4937 75.9432 16.8394C75.7088 17.1851 75.5301 17.6128 75.4071 18.1226C75.284 18.6323 75.2225 19.2241 75.2225 19.8979L75.2225 20.7153C75.2225 21.3833 75.287 21.9751 75.4159 22.4907C75.5448 23.0005 75.7352 23.4312 75.9872 23.7827C76.245 24.1284 76.5614 24.3892 76.9364 24.5649C77.3114 24.7407 77.7479 24.8286 78.2459 24.8286C78.662 24.8286 79.0077 24.7935 79.2831 24.7231C79.5643 24.6528 79.7899 24.5679 79.9598 24.4683C80.1356 24.3628 80.2704 24.2632 80.3641 24.1694L80.3641 21.9019L77.9559 21.9019L77.9559 20.021L83.0008 20.021ZM84.5653 22.0513L84.5653 21.8667C84.5653 21.1694 84.6649 20.5278 84.8641 19.9419C85.0633 19.3501 85.3534 18.8374 85.7342 18.4038C86.1151 17.9702 86.5838 17.6333 87.1405 17.3931C87.6971 17.147 88.3358 17.0239 89.0565 17.0239C89.7772 17.0239 90.4188 17.147 90.9813 17.3931C91.5438 17.6333 92.0155 17.9702 92.3963 18.4038C92.7831 18.8374 93.076 19.3501 93.2752 19.9419C93.4745 20.5278 93.5741 21.1694 93.5741 21.8667L93.5741 22.0513C93.5741 22.7427 93.4745 23.3843 93.2752 23.9761C93.076 24.562 92.7831 25.0747 92.3963 25.5142C92.0155 25.9478 91.5467 26.2847 90.9901 26.5249C90.4334 26.7651 89.7948 26.8853 89.0741 26.8853C88.3534 26.8853 87.7118 26.7651 87.1493 26.5249C86.5926 26.2847 86.1209 25.9478 85.7342 25.5142C85.3534 25.0747 85.0633 24.562 84.8641 23.9761C84.6649 23.3843 84.5653 22.7427 84.5653 22.0513ZM87.0965 21.8667L87.0965 22.0513C87.0965 22.4497 87.1317 22.8218 87.202 23.1675C87.2723 23.5132 87.3836 23.8179 87.536 24.0815C87.6942 24.3394 87.8993 24.5415 88.1512 24.688C88.4032 24.8345 88.7108 24.9077 89.0741 24.9077C89.4256 24.9077 89.7274 24.8345 89.9793 24.688C90.2313 24.5415 90.4334 24.3394 90.5858 24.0815C90.7381 23.8179 90.8495 23.5132 90.9198 23.1675C90.9959 22.8218 91.034 22.4497 91.034 22.0513L91.034 21.8667C91.034 21.48 90.9959 21.1167 90.9198 20.7769C90.8495 20.4312 90.7352 20.1265 90.577 19.8628C90.4247 19.5933 90.2225 19.3823 89.9706 19.23C89.7186 19.0776 89.4139 19.0015 89.0565 19.0015C88.6991 19.0015 88.3944 19.0776 88.1424 19.23C87.8963 19.3823 87.6942 19.5933 87.536 19.8628C87.3836 20.1265 87.2723 20.4312 87.202 20.7769C87.1317 21.1167 87.0965 21.48 87.0965 21.8667ZM97.8016 13.2095L97.8016 26.7095L95.2616 26.7095L95.2616 13.2095L97.8016 13.2095ZM105.51 24.6353L105.51 13.2095L108.058 13.2095L108.058 26.7095L105.765 26.7095L105.51 24.6353ZM99.4979 22.0688L99.4979 21.8843C99.4979 21.1577 99.5799 20.4985 99.744 19.9067C99.9081 19.3091 100.148 18.7964 100.465 18.3686C100.781 17.9409 101.171 17.6099 101.634 17.3755C102.097 17.1411 102.624 17.0239 103.216 17.0239C103.772 17.0239 104.259 17.1411 104.675 17.3755C105.097 17.6099 105.454 17.9438 105.747 18.3774C106.046 18.8052 106.286 19.312 106.468 19.8979C106.649 20.478 106.781 21.1138 106.863 21.8052L106.863 22.2095C106.781 22.8716 106.649 23.4868 106.468 24.0552C106.286 24.6235 106.046 25.1216 105.747 25.5493C105.454 25.9712 105.097 26.2993 104.675 26.5337C104.253 26.7681 103.761 26.8853 103.198 26.8853C102.606 26.8853 102.079 26.7651 101.616 26.5249C101.159 26.2847 100.772 25.9478 100.456 25.5142C100.145 25.0806 99.9081 24.5708 99.744 23.9849C99.5799 23.3989 99.4979 22.7603 99.4979 22.0688ZM102.029 21.8843L102.029 22.0688C102.029 22.4614 102.058 22.8276 102.117 23.1675C102.181 23.5073 102.284 23.8091 102.425 24.0728C102.571 24.3306 102.759 24.5327 102.987 24.6792C103.222 24.8198 103.506 24.8901 103.84 24.8901C104.273 24.8901 104.631 24.7935 104.912 24.6001C105.193 24.4009 105.407 24.1284 105.554 23.7827C105.706 23.437 105.794 23.0386 105.817 22.5874L105.817 21.436C105.8 21.0669 105.747 20.7358 105.659 20.4429C105.577 20.144 105.454 19.8892 105.29 19.6782C105.132 19.4673 104.932 19.3032 104.692 19.186C104.458 19.0688 104.18 19.0103 103.857 19.0103C103.529 19.0103 103.248 19.0864 103.014 19.2388C102.779 19.3853 102.589 19.5874 102.442 19.8452C102.302 20.103 102.196 20.4077 102.126 20.7593C102.061 21.105 102.029 21.48 102.029 21.8843Z" fill="white"/>
<path d="M41.8969 31.5779C36.8023 31.5779 33.0887 29.5414 33.0004 25.7492C32.9121 17.3946 44.402 10.724 53.989 11.0046C62.7972 11.2168 62.2793 17.114 54.1617 20.273C51.5722 21.2554 47.686 22.0973 45.2652 22.0288C43.7958 21.957 43.6232 21.3957 45.3535 21.3957C46.8229 21.3957 50.4481 20.694 53.4711 19.431C61.4161 15.9195 57.8752 11.566 51.8291 13.8145C47.1641 15.5703 41.7243 20.6255 40.7728 24.9072C40.1666 27.6453 41.6359 29.7536 45.0885 29.6818C51.1346 29.61 61.7574 22.3813 65.8162 19.2222C67.1129 18.1681 67.1129 19.4343 66.3341 19.9956C59.7701 24.9105 51.3915 31.5093 41.8929 31.5811L41.8969 31.5779Z" fill="white"/>
</svg>
