<svg width="145" height="44" viewBox="0 0 145 44" fill="none" xmlns="http://www.w3.org/2000/svg">
<rect x="144.31" y="0.0601807" width="43.0999" height="144.243" rx="10" transform="rotate(90 144.31 0.0601807)" fill="#76838B"/>
<path d="M59.8718 22.1479L56.6111 22.1479L56.6111 20.0913L59.8718 20.0913C60.3757 20.0913 60.7859 20.0093 61.1023 19.8452C61.4187 19.6753 61.6501 19.4409 61.7966 19.1421C61.9431 18.8433 62.0164 18.5063 62.0164 18.1313C62.0164 17.7505 61.9431 17.396 61.7966 17.0679C61.6502 16.7397 61.4187 16.4761 61.1023 16.2769C60.7859 16.0776 60.3757 15.978 59.8718 15.978L57.5252 15.978L57.5251 26.7095L54.8884 26.7095L54.8884 13.9126L59.8718 13.9126C60.8738 13.9126 61.7322 14.0942 62.447 14.4575C63.1677 14.8149 63.7185 15.3101 64.0994 15.9429C64.4802 16.5757 64.6707 17.2993 64.6707 18.1138C64.6707 18.9399 64.4802 19.6548 64.0994 20.2583C63.7185 20.8618 63.1677 21.3276 62.447 21.6558C61.7322 21.9839 60.8738 22.1479 59.8718 22.1479ZM69.0037 13.2095L69.0037 26.7095L66.4636 26.7095L66.4636 13.2095L69.0037 13.2095ZM76.2283 24.5649L76.2283 20.3286C76.2283 20.0239 76.1785 19.7632 76.0789 19.5464C75.9793 19.3237 75.824 19.1509 75.613 19.0278C75.408 18.9048 75.1414 18.8433 74.8132 18.8433C74.532 18.8433 74.2888 18.8931 74.0837 18.9927C73.8787 19.0864 73.7205 19.2241 73.6091 19.4058C73.4978 19.5815 73.4421 19.7895 73.4421 20.0298L70.9109 20.0298C70.9109 19.6255 71.0046 19.2417 71.1921 18.8784C71.3796 18.5151 71.6521 18.1958 72.0095 17.9204C72.3669 17.6392 72.7918 17.4194 73.2839 17.2612C73.782 17.103 74.3386 17.0239 74.9539 17.0239C75.6921 17.0239 76.3484 17.147 76.9226 17.3931C77.4968 17.6392 77.948 18.0083 78.2761 18.5005C78.6101 18.9927 78.7771 19.6079 78.7771 20.3462L78.7771 24.4155C78.7771 24.937 78.8093 25.3647 78.8738 25.6987C78.9382 26.0269 79.032 26.314 79.155 26.5601L79.155 26.7095L76.5974 26.7095C76.4744 26.4517 76.3806 26.1294 76.3162 25.7427C76.2576 25.3501 76.2283 24.9575 76.2283 24.5649ZM76.5623 20.9175L76.5798 22.3501L75.1648 22.3501C74.8308 22.3501 74.5408 22.3882 74.2947 22.4644C74.0486 22.5405 73.8464 22.6489 73.6882 22.7895C73.53 22.9243 73.4128 23.0825 73.3367 23.2642C73.2664 23.4458 73.2312 23.645 73.2312 23.8618C73.2312 24.0786 73.281 24.2749 73.3806 24.4507C73.4802 24.6206 73.6238 24.7554 73.8113 24.855C73.9988 24.9487 74.2185 24.9956 74.4705 24.9956C74.8513 24.9956 75.1824 24.9194 75.4636 24.7671C75.7449 24.6147 75.9617 24.4272 76.114 24.2046C76.2722 23.9819 76.3543 23.771 76.3601 23.5718L77.0281 24.644C76.9343 24.8843 76.8054 25.1333 76.6414 25.3911C76.4832 25.6489 76.281 25.8921 76.0349 26.1206C75.7888 26.3433 75.4929 26.5278 75.1472 26.6743C74.8015 26.8149 74.3914 26.8853 73.9168 26.8853C73.3132 26.8853 72.7654 26.7651 72.2732 26.5249C71.7869 26.2788 71.4001 25.9419 71.113 25.5142C70.8318 25.0806 70.6912 24.5884 70.6912 24.0376C70.6912 23.5395 70.7849 23.0972 70.9724 22.7104C71.1599 22.3237 71.4353 21.9985 71.7986 21.7349C72.1677 21.4653 72.6277 21.2632 73.1785 21.1284C73.7293 20.9878 74.3679 20.9175 75.0945 20.9175L76.5623 20.9175ZM85.3865 17.1997L85.3865 18.9927L79.8494 18.9927L79.8494 17.1997L85.3865 17.1997ZM81.2205 14.853L83.7517 14.853L83.7517 23.8442C83.7517 24.1196 83.7869 24.3306 83.8572 24.477C83.9334 24.6235 84.0447 24.7261 84.1912 24.7847C84.3376 24.8374 84.5222 24.8638 84.7449 24.8638C84.9031 24.8638 85.0437 24.8579 85.1668 24.8462C85.2957 24.8286 85.4041 24.811 85.4919 24.7935L85.5007 26.6567C85.2839 26.727 85.0496 26.7827 84.7976 26.8237C84.5457 26.8647 84.2673 26.8853 83.9626 26.8853C83.406 26.8853 82.9197 26.7944 82.5037 26.6128C82.0935 26.4253 81.7771 26.1265 81.5544 25.7163C81.3318 25.3061 81.2205 24.7671 81.2205 24.0991L81.2205 14.853ZM89.4998 17.1997L89.4998 26.7095L86.9597 26.7095L86.9597 17.1997L89.4998 17.1997ZM86.8015 14.7212C86.8015 14.352 86.9304 14.0474 87.1882 13.8071C87.446 13.5669 87.7918 13.4468 88.2253 13.4468C88.6531 13.4468 88.9959 13.5669 89.2537 13.8071C89.5173 14.0474 89.6492 14.352 89.6492 14.7212C89.6492 15.0903 89.5173 15.395 89.2537 15.6353C88.9959 15.8755 88.6531 15.9956 88.2253 15.9956C87.7918 15.9956 87.446 15.8755 87.1882 15.6353C86.9304 15.395 86.8015 15.0903 86.8015 14.7212ZM94.0701 19.23L94.0701 26.7095L91.5388 26.7095L91.5388 17.1997L93.9119 17.1997L94.0701 19.23ZM93.7009 21.6206L93.0154 21.6206C93.0154 20.9175 93.1062 20.2847 93.2878 19.7222C93.4695 19.1538 93.7244 18.6704 94.0525 18.272C94.3806 17.8677 94.7703 17.5601 95.2214 17.3491C95.6785 17.1323 96.1882 17.0239 96.7507 17.0239C97.196 17.0239 97.6033 17.0884 97.9724 17.2173C98.3416 17.3462 98.658 17.5513 98.9216 17.8325C99.1912 18.1138 99.3962 18.4858 99.5369 18.9487C99.6834 19.4116 99.7566 19.977 99.7566 20.645L99.7566 26.7095L97.2078 26.7095L97.2078 20.6362C97.2078 20.2144 97.1492 19.8862 97.032 19.6519C96.9148 19.4175 96.7419 19.2534 96.5134 19.1597C96.2908 19.0601 96.0154 19.0102 95.6873 19.0102C95.3474 19.0103 95.0515 19.0776 94.7996 19.2124C94.5535 19.3472 94.3484 19.5347 94.1843 19.7749C94.0261 20.0093 93.906 20.2847 93.824 20.6011C93.7419 20.9175 93.7009 21.2573 93.7009 21.6206ZM107.306 24.4331L107.306 17.1997L109.838 17.1997L109.838 26.7095L107.456 26.7095L107.306 24.4331ZM107.588 22.4819L108.335 22.4644C108.335 23.0972 108.261 23.686 108.115 24.231C107.969 24.77 107.749 25.2388 107.456 25.6372C107.163 26.0298 106.794 26.3374 106.348 26.5601C105.903 26.7769 105.379 26.8852 104.775 26.8852C104.312 26.8852 103.885 26.8208 103.492 26.6919C103.105 26.5571 102.771 26.3491 102.49 26.0679C102.215 25.7808 101.998 25.4145 101.84 24.9692C101.687 24.5181 101.611 23.9761 101.611 23.3433L101.611 17.1997L104.142 17.1997L104.142 23.3608C104.142 23.6421 104.175 23.8794 104.239 24.0727C104.309 24.2661 104.406 24.4243 104.529 24.5474C104.652 24.6704 104.796 24.7583 104.96 24.811C105.13 24.8638 105.317 24.8901 105.522 24.8901C106.044 24.8901 106.454 24.7847 106.753 24.5737C107.057 24.3628 107.271 24.0757 107.394 23.7124C107.523 23.3433 107.588 22.9331 107.588 22.4819ZM114.302 19.1685L114.302 26.7095L111.762 26.7095L111.762 17.1997L114.144 17.1997L114.302 19.1685ZM113.951 21.6206L113.248 21.6206C113.248 20.9585 113.327 20.3491 113.485 19.7925C113.649 19.23 113.886 18.7436 114.197 18.3335C114.513 17.9175 114.903 17.5952 115.366 17.3667C115.829 17.1382 116.365 17.0239 116.974 17.0239C117.396 17.0239 117.783 17.0884 118.135 17.2173C118.486 17.3403 118.788 17.5366 119.04 17.8061C119.298 18.0698 119.497 18.4155 119.637 18.8433C119.778 19.2651 119.848 19.772 119.848 20.3638L119.848 26.7095L117.317 26.7095L117.317 20.645C117.317 20.2114 117.259 19.8774 117.141 19.6431C117.024 19.4087 116.857 19.2446 116.64 19.1509C116.429 19.0571 116.175 19.0102 115.876 19.0102C115.548 19.0102 115.261 19.0776 115.014 19.2124C114.774 19.3472 114.575 19.5347 114.417 19.7749C114.259 20.0093 114.141 20.2847 114.065 20.6011C113.989 20.9175 113.951 21.2573 113.951 21.6206ZM119.611 21.3306L118.706 21.4448C118.706 20.8237 118.782 20.2466 118.934 19.7134C119.093 19.1802 119.324 18.7114 119.629 18.3071C119.939 17.9028 120.323 17.5893 120.78 17.3667C121.237 17.1382 121.764 17.0239 122.362 17.0239C122.819 17.0239 123.235 17.0913 123.61 17.2261C123.985 17.355 124.304 17.563 124.568 17.8501C124.838 18.1313 125.043 18.5005 125.183 18.9575C125.33 19.4145 125.403 19.9741 125.403 20.6362L125.403 26.7095L122.863 26.7095L122.863 20.6362C122.863 20.1968 122.804 19.8628 122.687 19.6343C122.576 19.3999 122.412 19.2388 122.195 19.1509C121.984 19.0571 121.732 19.0102 121.439 19.0102C121.135 19.0102 120.868 19.0718 120.639 19.1948C120.411 19.312 120.22 19.4761 120.068 19.687C119.916 19.8979 119.802 20.144 119.725 20.4253C119.649 20.7007 119.611 21.0024 119.611 21.3306Z" fill="white"/>
<path d="M23.3883 31.5779C18.2937 31.5779 14.5802 29.5414 14.4919 25.7492C14.4035 17.3946 25.8935 10.724 35.4805 11.0046C44.2886 11.2168 43.7707 17.114 35.6531 20.273C33.0637 21.2554 29.1775 22.0973 26.7566 22.0288C25.2873 21.957 25.1146 21.3957 26.845 21.3957C28.3143 21.3957 31.9396 20.694 34.9626 19.431C42.9076 15.9195 39.3667 11.566 33.3206 13.8145C28.6556 15.5703 23.2157 20.6255 22.2642 24.9072C21.658 27.6453 23.1274 29.7536 26.58 29.6818C32.6261 29.61 43.2488 22.3813 47.3076 19.2222C48.6044 18.1681 48.6044 19.4343 47.8255 19.9956C41.2616 24.9105 32.883 31.5093 23.3843 31.5811L23.3883 31.5779Z" fill="white"/>
</svg>
