<svg width="145" height="44" viewBox="0 0 145 44" fill="none" xmlns="http://www.w3.org/2000/svg">
<rect x="145" width="43.0999" height="144.243" rx="10" transform="rotate(90 145 0)" fill="black"/>
<path d="M62.5155 24.5925L62.5155 26.6492L55.704 26.6492L55.704 24.5925L62.5155 24.5925ZM56.5653 13.8523L56.5653 26.6492L53.9286 26.6492L53.9286 13.8523L56.5653 13.8523ZM61.6278 19.0642L61.6278 21.0681L55.704 21.0681L55.704 19.0642L61.6278 19.0642ZM62.5067 13.8523L62.5067 15.9177L55.704 15.9177L55.704 13.8523L62.5067 13.8523ZM65.9345 17.1394L67.5077 20.031L69.1249 17.1394L71.8232 17.1394L69.1337 21.7888L71.9462 26.6492L69.2392 26.6492L67.5253 23.5906L65.8114 26.6492L63.1044 26.6492L65.9169 21.7888L63.2274 17.1394L65.9345 17.1394ZM76.8065 24.8474C77.1171 24.8474 77.3925 24.7888 77.6327 24.6716C77.873 24.5486 78.0605 24.3787 78.1952 24.1619C78.3358 23.9392 78.4091 23.6785 78.4149 23.3796L80.7968 23.3796C80.7909 24.0476 80.6122 24.6423 80.2607 25.1638C79.9091 25.6794 79.4374 26.0867 78.8456 26.3855C78.2538 26.6785 77.5917 26.8249 76.8593 26.8249C76.121 26.8249 75.4765 26.7019 74.9257 26.4558C74.3808 26.2097 73.9267 25.8699 73.5634 25.4363C73.2001 24.9968 72.9276 24.4871 72.746 23.907C72.5644 23.321 72.4735 22.6941 72.4735 22.0261L72.4735 21.7712C72.4735 21.0974 72.5644 20.4705 72.746 19.8904C72.9276 19.3044 73.2001 18.7947 73.5634 18.3611C73.9267 17.9216 74.3808 17.5789 74.9257 17.3328C75.4706 17.0867 76.1093 16.9636 76.8417 16.9636C77.621 16.9636 78.3036 17.113 78.8896 17.4119C79.4814 17.7107 79.9442 18.1384 80.2782 18.6951C80.6181 19.2458 80.7909 19.8992 80.7968 20.655L78.4149 20.655C78.4091 20.3386 78.3417 20.0515 78.2128 19.7937C78.0898 19.5359 77.9081 19.3308 77.6679 19.1785C77.4335 19.0203 77.1435 18.9412 76.7978 18.9412C76.4286 18.9412 76.1269 19.0203 75.8925 19.1785C75.6581 19.3308 75.4765 19.5417 75.3476 19.8113C75.2187 20.0749 75.1278 20.3767 75.0751 20.7166C75.0282 21.0505 75.0048 21.4021 75.0048 21.7712L75.0048 22.0261C75.0048 22.3953 75.0282 22.7498 75.0751 23.0896C75.122 23.4294 75.2099 23.7312 75.3388 23.9949C75.4735 24.2585 75.6581 24.4666 75.8925 24.6189C76.1269 24.7712 76.4315 24.8474 76.8065 24.8474ZM84.9364 13.1492L84.9364 26.6492L82.3964 26.6492L82.3964 13.1492L84.9364 13.1492ZM92.6532 24.3728L92.6532 17.1394L95.1845 17.1394L95.1845 26.6492L92.8026 26.6492L92.6532 24.3728ZM92.9345 22.4216L93.6815 22.404C93.6815 23.0369 93.6083 23.6257 93.4618 24.1707C93.3153 24.7097 93.0956 25.1785 92.8026 25.5769C92.5097 25.9695 92.1405 26.2771 91.6952 26.4998C91.2499 26.7165 90.7255 26.8249 90.122 26.8249C89.6591 26.8249 89.2314 26.7605 88.8388 26.6316C88.4521 26.4968 88.1181 26.2888 87.8368 26.0076C87.5614 25.7205 87.3446 25.3542 87.1864 24.9089C87.0341 24.4578 86.9579 23.9158 86.9579 23.283L86.9579 17.1394L89.4892 17.1394L89.4892 23.3005C89.4892 23.5818 89.5214 23.8191 89.5858 24.0124C89.6562 24.2058 89.7528 24.364 89.8759 24.4871C89.9989 24.6101 90.1425 24.698 90.3065 24.7507C90.4765 24.8035 90.664 24.8298 90.869 24.8298C91.3905 24.8298 91.8007 24.7244 92.0995 24.5134C92.4042 24.3025 92.6181 24.0154 92.7411 23.6521C92.87 23.283 92.9345 22.8728 92.9345 22.4216ZM102.26 24.0212C102.26 23.8396 102.207 23.6755 102.101 23.529C101.996 23.3826 101.8 23.2478 101.513 23.1248C101.231 22.9958 100.824 22.8787 100.291 22.7732C99.8105 22.6677 99.3622 22.5359 98.9462 22.3777C98.536 22.2136 98.1786 22.0173 97.8739 21.7888C97.5751 21.5603 97.3407 21.2908 97.1708 20.9802C97.0009 20.6638 96.9159 20.3035 96.9159 19.8992C96.9159 19.5007 97.0009 19.1257 97.1708 18.7742C97.3466 18.4226 97.5956 18.1121 97.9179 17.8425C98.246 17.5671 98.6444 17.3533 99.1132 17.2009C99.5878 17.0427 100.121 16.9636 100.713 16.9636C101.539 16.9636 102.248 17.0955 102.84 17.3591C103.437 17.6228 103.894 17.9861 104.211 18.449C104.533 18.906 104.694 19.4275 104.694 20.0134L102.163 20.0134C102.163 19.7673 102.11 19.5476 102.005 19.3542C101.905 19.155 101.747 18.9998 101.53 18.8884C101.319 18.7712 101.044 18.7126 100.704 18.7126C100.423 18.7126 100.18 18.7624 99.9745 18.8621C99.7694 18.9558 99.6112 19.0847 99.4999 19.2488C99.3944 19.407 99.3417 19.5828 99.3417 19.7761C99.3417 19.9226 99.371 20.0544 99.4296 20.1716C99.494 20.283 99.5966 20.3855 99.7372 20.4792C99.8778 20.573 100.059 20.6609 100.282 20.7429C100.511 20.8191 100.792 20.8894 101.126 20.9539C101.811 21.0945 102.424 21.279 102.963 21.5076C103.502 21.7302 103.93 22.0349 104.246 22.4216C104.562 22.8025 104.721 23.3035 104.721 23.9246C104.721 24.3464 104.627 24.7331 104.439 25.0847C104.252 25.4363 103.982 25.7439 103.631 26.0076C103.279 26.2654 102.857 26.4675 102.365 26.614C101.879 26.7546 101.331 26.8249 100.722 26.8249C99.8368 26.8249 99.0868 26.6667 98.4716 26.3503C97.8622 26.0339 97.3993 25.6326 97.0829 25.1462C96.7724 24.654 96.6171 24.1501 96.6171 23.6345L99.0165 23.6345C99.0282 23.9802 99.1161 24.2585 99.2802 24.4695C99.4501 24.6804 99.664 24.8328 99.9218 24.9265C100.185 25.0203 100.47 25.0671 100.774 25.0671C101.102 25.0671 101.375 25.0232 101.592 24.9353C101.809 24.8415 101.973 24.7185 102.084 24.5662C102.201 24.408 102.26 24.2263 102.26 24.0212ZM109.036 17.1394L109.036 26.6492L106.496 26.6492L106.496 17.1394L109.036 17.1394ZM106.338 14.6609C106.338 14.2917 106.467 13.9871 106.725 13.7468C106.982 13.5066 107.328 13.3865 107.762 13.3865C108.189 13.3865 108.532 13.5066 108.79 13.7468C109.054 13.9871 109.185 14.2917 109.185 14.6609C109.185 15.03 109.054 15.3347 108.79 15.5749C108.532 15.8152 108.189 15.9353 107.762 15.9353C107.328 15.9353 106.982 15.8152 106.725 15.5749C106.467 15.3347 106.338 15.03 106.338 14.6609ZM114.362 24.8035L116.472 17.1394L119.117 17.1394L115.909 26.6492L114.309 26.6492L114.362 24.8035ZM112.912 17.1394L115.03 24.8123L115.074 26.6492L113.466 26.6492L110.258 17.1394L112.912 17.1394ZM124.505 26.8249C123.767 26.8249 123.104 26.7078 122.518 26.4734C121.933 26.2331 121.434 25.9021 121.024 25.4802C120.62 25.0583 120.309 24.5691 120.093 24.0124C119.876 23.4499 119.767 22.8523 119.767 22.2195L119.767 21.8679C119.767 21.1472 119.87 20.488 120.075 19.8904C120.28 19.2927 120.573 18.7742 120.954 18.3347C121.341 17.8953 121.809 17.5583 122.36 17.324C122.911 17.0837 123.532 16.9636 124.224 16.9636C124.897 16.9636 125.495 17.0749 126.017 17.2976C126.538 17.5203 126.975 17.8367 127.326 18.2468C127.684 18.657 127.953 19.1492 128.135 19.7234C128.316 20.2917 128.407 20.9246 128.407 21.6218L128.407 22.6765L120.849 22.6765L120.849 20.989L125.92 20.989L125.92 20.7956C125.92 20.4441 125.855 20.1306 125.726 19.8552C125.603 19.574 125.416 19.3513 125.164 19.1872C124.912 19.0232 124.59 18.9412 124.197 18.9412C123.863 18.9412 123.576 19.0144 123.336 19.1609C123.096 19.3074 122.899 19.5124 122.747 19.7761C122.6 20.0398 122.489 20.3503 122.413 20.7078C122.343 21.0593 122.308 21.446 122.308 21.8679L122.308 22.2195C122.308 22.6003 122.36 22.9519 122.466 23.2742C122.577 23.5964 122.732 23.8747 122.932 24.1091C123.137 24.3435 123.383 24.5251 123.67 24.654C123.963 24.783 124.294 24.8474 124.663 24.8474C125.12 24.8474 125.545 24.7595 125.937 24.5837C126.336 24.4021 126.679 24.1296 126.966 23.7664L128.196 25.1023C127.997 25.3894 127.725 25.6648 127.379 25.9285C127.039 26.1921 126.629 26.4089 126.148 26.5789C125.668 26.7429 125.12 26.8249 124.505 26.8249Z" fill="white"/>
<path d="M22.8969 32.1609C17.8023 32.1609 14.0887 30.1244 14.0004 26.3322C13.9121 17.9776 25.402 11.307 34.989 11.5876C43.7972 11.7998 43.2793 17.697 35.1617 20.856C32.5722 21.8384 28.686 22.6804 26.2652 22.6118C24.7958 22.54 24.6232 21.9787 26.3535 21.9787C27.8229 21.9787 31.4481 21.277 34.4711 20.0141C42.4161 16.5025 38.8752 12.149 32.8291 14.3975C28.1641 16.1533 22.7243 21.2085 21.7728 25.4902C21.1666 28.2283 22.6359 30.3366 26.0885 30.2648C32.1346 30.193 42.7574 22.9643 46.8162 19.8052C48.1129 18.7511 48.1129 20.0173 47.3341 20.5787C40.7701 25.4935 32.3915 32.0923 22.8929 32.1641L22.8969 32.1609Z" fill="white"/>
</svg>
