<svg width="145" height="44" viewBox="0 0 145 44" fill="none" xmlns="http://www.w3.org/2000/svg">
<path d="M127.5 -6.23813e-07C134.522 -3.73493e-07 138.033 -2.48332e-07 140.556 1.6853C141.648 2.41489 142.585 3.3524 143.315 4.4443C145 6.96653 145 10.4777 145 17.5L145 25.6C145 32.6223 145 36.1334 143.315 38.6556C142.585 39.7475 141.648 40.6851 140.556 41.4146C138.033 43.0999 134.522 43.0999 127.5 43.0999L18.2567 43.0999C11.2344 43.0999 7.72328 43.0999 5.20103 41.4146C4.10914 40.685 3.17163 39.7475 2.44205 38.6556C0.756742 36.1334 0.756743 32.6223 0.756743 25.5999L0.756743 17.5C0.756744 10.4777 0.756744 6.96653 2.44205 4.44429C3.17163 3.35239 4.10915 2.41488 5.20103 1.6853C7.72328 -4.89343e-06 11.2344 -4.76827e-06 18.2567 -4.51795e-06L127.5 -6.23813e-07Z" fill="#48C0FF"/>
<path d="M88.4142 25.8791L88.4142 27.9358L81.9719 27.9358L81.9719 25.8791L88.4142 25.8791ZM82.8244 15.1389L82.8244 27.9358L80.1877 27.9358L80.1877 15.1389L82.8244 15.1389ZM92.4396 18.426L92.4396 27.9358L89.8996 27.9358L89.8996 18.426L92.4396 18.426ZM89.7414 15.9475C89.7414 15.5784 89.8703 15.2737 90.1281 15.0334C90.3859 14.7932 90.7316 14.6731 91.1652 14.6731C91.5929 14.6731 91.9357 14.7932 92.1935 15.0334C92.4572 15.2737 92.589 15.5784 92.589 15.9475C92.589 16.3166 92.4572 16.6213 92.1935 16.8616C91.9357 17.1018 91.5929 17.2219 91.1652 17.2219C90.7316 17.2219 90.3859 17.1018 90.1281 16.8616C89.8703 16.6213 89.7414 16.3166 89.7414 15.9475ZM99.1896 18.426L99.1896 20.219L93.6525 20.219L93.6525 18.426L99.1896 18.426ZM95.0236 16.0793L97.5549 16.0793L97.5549 25.0706C97.5549 25.3459 97.59 25.5569 97.6603 25.7034C97.7365 25.8499 97.8478 25.9524 97.9943 26.011C98.1408 26.0637 98.3254 26.0901 98.548 26.0901C98.7062 26.0901 98.8469 26.0842 98.9699 26.0725C99.0988 26.0549 99.2072 26.0374 99.2951 26.0198L99.3039 27.8831C99.0871 27.9534 98.8527 28.009 98.6008 28.05C98.3488 28.0911 98.0705 28.1116 97.7658 28.1116C97.2092 28.1116 96.7228 28.0208 96.3068 27.8391C95.8967 27.6516 95.5803 27.3528 95.3576 26.9426C95.1349 26.5325 95.0236 25.9934 95.0236 25.3254L95.0236 16.0793ZM105.008 28.1116C104.27 28.1116 103.608 27.9944 103.022 27.76C102.436 27.5198 101.938 27.1887 101.528 26.7668C101.123 26.345 100.813 25.8557 100.596 25.2991C100.379 24.7366 100.271 24.1389 100.271 23.5061L100.271 23.1545C100.271 22.4338 100.373 21.7747 100.578 21.177C100.783 20.5793 101.076 20.0608 101.457 19.6213C101.844 19.1819 102.313 18.845 102.863 18.6106C103.414 18.3704 104.035 18.2502 104.727 18.2502C105.401 18.2502 105.998 18.3616 106.52 18.5842C107.041 18.8069 107.478 19.1233 107.829 19.5334C108.187 19.9436 108.456 20.4358 108.638 21.01C108.82 21.5784 108.91 22.2112 108.91 22.9084L108.91 23.9631L101.352 23.9631L101.352 22.2756L106.423 22.2756L106.423 22.0823C106.423 21.7307 106.359 21.4172 106.23 21.1418C106.107 20.8606 105.919 20.6379 105.667 20.4739C105.415 20.3098 105.093 20.2278 104.7 20.2278C104.366 20.2278 104.079 20.301 103.839 20.4475C103.599 20.594 103.403 20.7991 103.25 21.0627C103.104 21.3264 102.992 21.637 102.916 21.9944C102.846 22.3459 102.811 22.7327 102.811 23.1545L102.811 23.5061C102.811 23.887 102.863 24.2385 102.969 24.5608C103.08 24.8831 103.236 25.1614 103.435 25.3957C103.64 25.6301 103.886 25.8118 104.173 25.9407C104.466 26.0696 104.797 26.134 105.166 26.134C105.623 26.134 106.048 26.0461 106.441 25.8704C106.839 25.6887 107.182 25.4163 107.469 25.053L108.699 26.3889C108.5 26.676 108.228 26.9514 107.882 27.2151C107.542 27.4788 107.132 27.6956 106.652 27.8655C106.171 28.0295 105.623 28.1116 105.008 28.1116Z" fill="white"/>
<path d="M44.6995 32.7797C38.5728 32.7797 34.1069 30.3638 34.0007 25.8649C33.8945 15.9535 47.7121 8.03984 59.2414 8.37281C69.834 8.62446 69.2111 15.6205 59.449 19.3683C56.3349 20.5337 51.6614 21.5326 48.7502 21.4513C46.9831 21.3661 46.7755 20.7002 48.8564 20.7002C50.6234 20.7002 54.9831 19.8677 58.6186 18.3694C68.1731 14.2035 63.9148 9.03875 56.6439 11.7063C51.0338 13.7893 44.4919 19.7864 43.3476 24.8661C42.6186 28.1144 44.3857 30.6155 48.5377 30.5303C55.8087 30.4451 68.5835 21.8694 73.4646 18.1216C75.024 16.8711 75.024 18.3733 74.0874 19.0392C66.1937 24.8699 56.1177 32.6984 44.6947 32.7836L44.6995 32.7797Z" fill="white"/>
</svg>
