<svg width="145" height="44" viewBox="0 0 145 44" fill="none" xmlns="http://www.w3.org/2000/svg">
<rect x="145" y="0.0601807" width="43.0999" height="144.243" rx="10" transform="rotate(90 145 0.0601807)" fill="#EF0012"/>
<path d="M77.9558 13.9126L77.9558 26.7095L75.3191 26.7095L75.3191 13.9126L77.9558 13.9126ZM83.0535 19.3794L83.0535 21.436L77.2351 21.436L77.2351 19.3794L83.0535 19.3794ZM83.6687 13.9126L83.6687 15.978L77.2351 15.978L77.2351 13.9126L83.6687 13.9126ZM87.3425 19.2739L87.3425 26.7095L84.8113 26.7095L84.8113 17.1997L87.1931 17.1997L87.3425 19.2739ZM90.2078 17.1382L90.1638 19.4849C90.0408 19.4673 89.8914 19.4526 89.7156 19.4409C89.5457 19.4233 89.3904 19.4145 89.2498 19.4145C88.8923 19.4145 88.5818 19.4614 88.3181 19.5552C88.0603 19.6431 87.8435 19.7749 87.6677 19.9507C87.4978 20.1265 87.3689 20.3403 87.281 20.5923C87.199 20.8442 87.1521 21.1313 87.1404 21.4536L86.6306 21.2954C86.6306 20.6802 86.6921 20.1147 86.8152 19.5991C86.9382 19.0776 87.117 18.6235 87.3513 18.2368C87.5916 17.8501 87.8845 17.5513 88.2302 17.3403C88.5759 17.1294 88.9714 17.0239 89.4168 17.0239C89.5574 17.0239 89.7009 17.0356 89.8474 17.0591C89.9939 17.0767 90.114 17.103 90.2078 17.1382ZM95.6043 26.8853C94.866 26.8853 94.2039 26.7681 93.6179 26.5337C93.032 26.2935 92.5339 25.9624 92.1238 25.5405C91.7195 25.1187 91.4089 24.6294 91.1921 24.0728C90.9753 23.5103 90.867 22.9126 90.867 22.2798L90.867 21.9282C90.867 21.2075 90.9695 20.5483 91.1746 19.9507C91.3796 19.353 91.6726 18.8345 92.0535 18.395C92.4402 17.9556 92.9089 17.6187 93.4597 17.3843C94.0105 17.144 94.6316 17.0239 95.323 17.0239C95.9968 17.0239 96.5945 17.1353 97.116 17.3579C97.6375 17.5806 98.074 17.897 98.4255 18.3071C98.783 18.7173 99.0525 19.2095 99.2341 19.7837C99.4158 20.352 99.5066 20.9849 99.5066 21.6821L99.5066 22.7368L91.948 22.7368L91.948 21.0493L97.0193 21.0493L97.0193 20.856C97.0193 20.5044 96.9548 20.1909 96.8259 19.9155C96.7029 19.6343 96.5154 19.4116 96.2634 19.2476C96.0115 19.0835 95.6892 19.0015 95.2966 19.0015C94.9627 19.0015 94.6755 19.0747 94.4353 19.2212C94.1951 19.3677 93.9988 19.5728 93.8464 19.8364C93.7 20.1001 93.5886 20.4106 93.5125 20.7681C93.4421 21.1196 93.407 21.5063 93.407 21.9282L93.407 22.2798C93.407 22.6606 93.4597 23.0122 93.5652 23.3345C93.6765 23.6567 93.8318 23.9351 94.031 24.1694C94.2361 24.4038 94.4822 24.5854 94.7693 24.7144C95.0623 24.8433 95.3933 24.9077 95.7625 24.9077C96.2195 24.9077 96.6443 24.8198 97.0369 24.644C97.4353 24.4624 97.7781 24.1899 98.0652 23.8267L99.2957 25.1626C99.0964 25.4497 98.824 25.7251 98.4783 25.9888C98.1384 26.2524 97.7283 26.4692 97.2478 26.6392C96.7673 26.8032 96.2195 26.8853 95.6043 26.8853ZM105.325 26.8853C104.587 26.8853 103.925 26.7681 103.339 26.5337C102.753 26.2935 102.255 25.9624 101.844 25.5405C101.44 25.1186 101.13 24.6294 100.913 24.0728C100.696 23.5103 100.588 22.9126 100.588 22.2798L100.588 21.9282C100.588 21.2075 100.69 20.5483 100.895 19.9507C101.1 19.353 101.393 18.8345 101.774 18.395C102.161 17.9556 102.63 17.6186 103.18 17.3843C103.731 17.144 104.352 17.0239 105.044 17.0239C105.718 17.0239 106.315 17.1353 106.837 17.3579C107.358 17.5806 107.795 17.897 108.146 18.3071C108.504 18.7173 108.773 19.2095 108.955 19.7837C109.136 20.352 109.227 20.9849 109.227 21.6821L109.227 22.7368L101.669 22.7368L101.669 21.0493L106.74 21.0493L106.74 20.856C106.74 20.5044 106.676 20.1909 106.547 19.9155C106.424 19.6343 106.236 19.4116 105.984 19.2476C105.732 19.0835 105.41 19.0015 105.017 19.0015C104.683 19.0015 104.396 19.0747 104.156 19.2212C103.916 19.3677 103.719 19.5728 103.567 19.8364C103.421 20.1001 103.309 20.4106 103.233 20.7681C103.163 21.1196 103.128 21.5063 103.128 21.9282L103.128 22.2798C103.128 22.6606 103.18 23.0122 103.286 23.3345C103.397 23.6567 103.552 23.9351 103.752 24.1694C103.957 24.4038 104.203 24.5854 104.49 24.7144C104.783 24.8433 105.114 24.9077 105.483 24.9077C105.94 24.9077 106.365 24.8198 106.758 24.644C107.156 24.4624 107.499 24.1899 107.786 23.8267L109.016 25.1626C108.817 25.4497 108.545 25.7251 108.199 25.9888C107.859 26.2524 107.449 26.4692 106.969 26.6392C106.488 26.8032 105.94 26.8853 105.325 26.8853Z" fill="white"/>
<path d="M43.897 32.2211C38.8024 32.2211 35.0889 30.1846 35.0005 26.3924C34.9122 18.0378 46.4022 11.3672 55.9891 11.6478C64.7973 11.86 64.2794 17.7571 56.1618 20.9162C53.5723 21.8985 49.6861 22.7405 47.2653 22.672C45.7959 22.6002 45.6233 22.0389 47.3536 22.0389C48.823 22.0389 52.4482 21.3372 55.4713 20.0742C63.4163 16.5627 59.8753 12.2092 53.8293 14.4577C49.1642 16.2135 43.7244 21.2687 42.7729 25.5504C42.1667 28.2885 43.6361 30.3968 47.0887 30.325C53.1347 30.2532 63.7575 23.0245 67.8163 19.8654C69.113 18.8112 69.113 20.0775 68.3342 20.6388C61.7702 25.5537 53.3917 32.1525 43.893 32.2243L43.897 32.2211Z" fill="white"/>
</svg>
