<svg width="25" height="20" viewBox="0 0 25 20" fill="none" xmlns="http://www.w3.org/2000/svg">
<g clip-path="url(#clip0_55_2633)">
<path d="M24.7059 20C24.1239 19.3461 23.5729 18.6707 22.9645 18.0512C20.9321 15.9905 18.4633 14.6483 15.6285 13.9342C13.7417 13.4567 11.8195 13.2545 9.8753 13.2416C9.80035 13.2416 9.72541 13.2416 9.65046 13.2459C9.62401 13.2459 9.59756 13.2588 9.54906 13.276V18.6234C6.37045 15.513 3.1742 12.3941 0 9.29662C3.13453 6.2379 6.32636 3.12325 9.52702 0V5.23984C10.4132 5.43343 11.2596 5.584 12.0928 5.8034C16.4353 6.95203 19.7815 9.39557 22.0916 13.1727C23.2775 15.1129 24.0622 17.2037 24.5736 19.3977C24.6221 19.5999 24.6618 19.8021 24.7059 20Z" fill="#7E868D"/>
</g>
<defs>
<clipPath id="clip0_55_2633">
<rect width="24.7059" height="20" fill="white"/>
</clipPath>
</defs>
</svg>
