<svg width="17" height="15" viewBox="0 0 17 15" fill="none" xmlns="http://www.w3.org/2000/svg">
<g clip-path="url(#clip0_24630_1267)">
<path d="M8.16362 7.22054C9.93382 7.22054 11.3689 5.78551 11.3689 4.0153C11.3689 2.24509 9.93382 0.810059 8.16362 0.810059C6.39341 0.810059 4.95837 2.24509 4.95837 4.0153C4.95837 5.78551 6.39341 7.22054 8.16362 7.22054Z" fill="#6C757D"/>
<path d="M7.13297 8.15947H9.38581C9.38581 8.15947 11.1152 8.00029 11.9085 10.1128L12.8447 13.7471C12.8447 13.7471 13.02 14.8586 11.5604 14.8101H4.65619C4.65619 14.8101 3.60936 14.8748 3.94122 13.5717L4.783 10.1128C4.783 10.1128 5.21199 8.39959 7.13297 8.15947Z" fill="#6C757D"/>
<path d="M4.34321 4.97311C4.02215 4.849 3.66601 4.79774 3.29368 4.84361C2.3251 4.95962 1.53188 5.74204 1.40777 6.71063C1.227 8.10281 2.36287 9.27914 3.74155 9.16852C4.4997 9.10647 5.16341 8.61813 5.50606 7.93823C5.64905 7.65224 5.7165 7.37974 5.73269 7.11533C5.05549 6.58383 4.55905 5.83378 4.34321 4.97311Z" fill="#6C757D"/>
<path d="M14.9329 6.16564C14.4715 5.05675 13.2007 4.53064 12.0919 4.9893C12.0487 5.00819 12.0082 5.02977 11.9651 5.05136C11.7573 5.8095 11.331 6.47861 10.7563 6.98044C10.7563 7.26373 10.8022 7.55242 10.9182 7.83031C11.3796 8.9392 12.6504 9.46531 13.7592 9.00665C14.8681 8.54529 15.3942 7.27452 14.9356 6.16564H14.9329Z" fill="#6C757D"/>
<path d="M4.10041 9.97522H2.44113C2.44113 9.97522 0.949131 10.1884 0.592993 12.023C0.236855 13.855 -0.232599 14.6104 0.703612 14.7993H3.56081C3.56081 14.7993 2.92678 14.6887 2.99692 13.8388C3.06707 12.9889 4.10041 9.97522 4.10041 9.97522Z" fill="#6C757D"/>
<path d="M12.5614 9.97522H14.1478C14.1478 9.97522 15.5751 10.1884 15.9177 12.023C16.2604 13.855 16.7083 14.6104 15.8125 14.7993H13.0767C13.0767 14.7993 13.6838 14.6887 13.6163 13.8388C13.5489 12.9889 12.5614 9.97522 12.5614 9.97522Z" fill="#6C757D"/>
</g>
<defs>
<clipPath id="clip0_24630_1267">
<rect width="16.1827" height="14" fill="white" transform="translate(0.155884 0.810059)"/>
</clipPath>
</defs>
</svg>
