<svg width="16" height="13" viewBox="0 0 16 13" fill="none" xmlns="http://www.w3.org/2000/svg">
<path d="M2.41113 9.79773C2.64551 9.79773 2.87988 10.0321 2.87988 10.2665V12.1415C2.87988 12.4052 2.64551 12.6102 2.41113 12.6102H0.536133C0.272461 12.6102 0.0673828 12.4052 0.0673828 12.1415V10.2665C0.0673828 10.0321 0.272461 9.79773 0.536133 9.79773H2.41113ZM2.41113 0.422729C2.64551 0.422729 2.87988 0.657104 2.87988 0.891479V2.76648C2.87988 3.03015 2.64551 3.23523 2.41113 3.23523H0.536133C0.272461 3.23523 0.0673828 3.03015 0.0673828 2.76648V0.891479C0.0673828 0.657104 0.272461 0.422729 0.536133 0.422729H2.41113ZM2.41113 5.11023C2.64551 5.11023 2.87988 5.3446 2.87988 5.57898V7.45398C2.87988 7.71765 2.64551 7.92273 2.41113 7.92273H0.536133C0.272461 7.92273 0.0673828 7.71765 0.0673828 7.45398V5.57898C0.0673828 5.3446 0.272461 5.11023 0.536133 5.11023H2.41113ZM14.5986 10.2665C14.833 10.2665 15.0674 10.5009 15.0674 10.7352V11.6727C15.0674 11.9364 14.833 12.1415 14.5986 12.1415H5.22363C4.95996 12.1415 4.75488 11.9364 4.75488 11.6727V10.7352C4.75488 10.5009 4.95996 10.2665 5.22363 10.2665H14.5986ZM14.5986 0.891479C14.833 0.891479 15.0674 1.12585 15.0674 1.36023V2.29773C15.0674 2.5614 14.833 2.76648 14.5986 2.76648H5.22363C4.95996 2.76648 4.75488 2.5614 4.75488 2.29773V1.36023C4.75488 1.12585 4.95996 0.891479 5.22363 0.891479H14.5986ZM14.5986 5.57898C14.833 5.57898 15.0674 5.81335 15.0674 6.04773V6.98523C15.0674 7.2489 14.833 7.45398 14.5986 7.45398H5.22363C4.95996 7.45398 4.75488 7.2489 4.75488 6.98523V6.04773C4.75488 5.81335 4.95996 5.57898 5.22363 5.57898H14.5986Z" fill="#6C757D"/>
</svg>
