<svg width="14" height="17" viewBox="0 0 14 17" fill="none" xmlns="http://www.w3.org/2000/svg">
<g clip-path="url(#clip0_24630_1236)">
<path d="M3.0476 16.5153C2.72063 16.5153 2.39366 16.5114 2.06669 16.5153C1.14748 16.5268 0.386605 15.9427 0.113103 15.2178C0.0287898 14.9961 0 14.7667 0 14.5315C0 12.488 0 4.29452 0 2.25097C0 2.02734 0 1.80756 0.0555231 1.58779C0.236487 0.847484 0.935668 0.232494 1.73972 0.139956C2.06052 0.103327 2.38749 0.111038 2.71035 0.107182C3.50001 0.103327 4.28968 0.107182 5.07934 0.107182C7.28792 0.107182 9.49857 0.107182 11.7072 0.107182C11.9971 0.107182 12.2871 0.111038 12.5647 0.201648C13.3708 0.463838 13.8417 0.99593 13.9713 1.78057C14.0083 2.00999 13.9959 2.24712 13.9959 2.48039C13.998 3.40191 13.9959 4.32343 13.9959 5.24303C13.9959 6.2995 13.9959 13.5078 13.9959 14.5643C13.9959 15.399 13.4489 16.1278 12.6079 16.4112C12.4022 16.4806 12.1884 16.5153 11.9704 16.5153C10.389 16.5153 8.80761 16.5153 7.22623 16.5153M6.97946 15.6034C8.63487 15.6034 10.2923 15.6034 11.9478 15.6034C12.54 15.6034 13.0212 15.1523 13.0212 14.599C13.0212 12.4533 13.0212 4.15571 13.0212 2.01192C13.0212 1.94251 13.013 1.87118 12.9965 1.80371C12.904 1.40464 12.4824 1.03256 11.993 1.02485C11.7997 1.02099 11.6043 1.02485 11.411 1.02485C8.30379 1.02485 5.19655 1.02485 2.08931 1.02485C1.85077 1.02485 1.62868 1.0769 1.43332 1.20221C1.09812 1.42006 0.964457 1.73045 0.966514 2.10446C0.96857 3.05875 0.96857 4.01112 0.96857 4.96541C0.96857 6.10286 0.96857 13.3902 0.96857 14.5276C0.96857 14.7628 1.01175 14.9846 1.16599 15.1773C1.40042 15.4704 1.71093 15.6111 2.10577 15.6073C2.74531 15.6015 3.38691 15.6073 4.02645 15.6073C4.04702 15.6073 4.06758 15.6092 4.09432 15.6111L6.97946 15.6053V15.6034Z" fill="#6C757D"/>
<path d="M5.32198 2.95659C4.34929 2.95659 3.37661 2.95659 2.40393 2.95659C2.19623 2.95659 2.03583 2.88141 1.92067 2.71754C1.71914 2.42836 1.90628 2.02158 2.26409 1.9676C2.33401 1.95796 2.40393 1.9541 2.47385 1.9541C4.37397 1.9541 4.08607 1.9541 5.98825 1.9541C6.05612 1.9541 6.12398 1.95796 6.19184 1.96374C6.44066 1.9888 6.64014 2.19509 6.64631 2.43414C6.65247 2.68669 6.46534 2.91032 6.2124 2.94503C6.13631 2.95467 6.05817 2.95659 5.98003 2.95659C5.03202 2.95659 6.27204 2.95659 5.32403 2.95659H5.32198Z" fill="#6C757D"/>
<path d="M5.33028 4.82084C4.37405 4.82084 3.41987 4.82084 2.46364 4.82084C2.27034 4.82084 2.09349 4.78999 1.96188 4.64155C1.83438 4.49503 1.79736 4.3273 1.86728 4.14994C1.94131 3.95908 2.09554 3.84534 2.30735 3.82413C2.44308 3.80871 2.58291 3.81256 2.72069 3.81256C4.53445 3.81256 4.15813 3.81256 5.97188 3.81256C6.14256 3.81256 6.30708 3.82413 6.44691 3.93595C6.61554 4.06897 6.67929 4.27911 6.61348 4.48153C6.55179 4.67046 6.36671 4.80734 6.15284 4.81698C6.02123 4.82277 5.88757 4.81698 5.7539 4.81698C4.88404 4.81698 6.2022 4.81698 5.33028 4.81698V4.82084Z" fill="#6C757D"/>
<path d="M10.9318 2.95659C9.95916 2.95659 8.98647 2.95659 8.01379 2.95659C7.80609 2.95659 7.64569 2.88141 7.53053 2.71754C7.32901 2.42836 7.51614 2.02158 7.87395 1.9676C7.94387 1.95796 8.01379 1.9541 8.08371 1.9541C9.98383 1.9541 9.69594 1.9541 11.5981 1.9541C11.666 1.9541 11.7338 1.95796 11.8017 1.96374C12.0505 1.9888 12.25 2.19509 12.2562 2.43414C12.2623 2.68669 12.0752 2.91032 11.8223 2.94503C11.7462 2.95467 11.668 2.95659 11.5899 2.95659C10.6419 2.95659 11.8819 2.95659 10.9339 2.95659H10.9318Z" fill="#6C757D"/>
<path d="M10.9401 4.82084C9.98391 4.82084 9.02974 4.82084 8.0735 4.82084C7.8802 4.82084 7.70335 4.78999 7.57174 4.64155C7.44424 4.49503 7.40723 4.3273 7.47715 4.14994C7.55118 3.95908 7.70541 3.84534 7.91722 3.82413C8.05294 3.80871 8.19278 3.81256 8.33056 3.81256C10.1443 3.81256 9.76799 3.81256 11.5817 3.81256C11.7524 3.81256 11.9169 3.82413 12.0568 3.93595C12.2254 4.06897 12.2891 4.27911 12.2233 4.48153C12.1617 4.67046 11.9766 4.80734 11.7627 4.81698C11.6311 4.82277 11.4974 4.81698 11.3638 4.81698C10.4939 4.81698 11.8121 4.81698 10.9401 4.81698V4.82084Z" fill="#6C757D"/>
<path d="M5.32198 6.82769C4.34929 6.82769 3.37661 6.82769 2.40393 6.82769C2.19623 6.82769 2.03583 6.7525 1.92067 6.58863C1.71914 6.29945 1.90628 5.89267 2.26409 5.83869C2.33401 5.82905 2.40393 5.8252 2.47385 5.8252C4.37397 5.8252 4.08607 5.8252 5.98825 5.8252C6.05612 5.8252 6.12398 5.82905 6.19184 5.83483C6.44066 5.8599 6.64014 6.06618 6.64631 6.30524C6.65247 6.55779 6.46534 6.78142 6.2124 6.81612C6.13631 6.82576 6.05817 6.82769 5.98003 6.82769C5.03202 6.82769 6.27204 6.82769 5.32403 6.82769H5.32198Z" fill="#6C757D"/>
<path d="M5.33028 8.69388C4.37405 8.69388 3.41987 8.69388 2.46364 8.69388C2.27034 8.69388 2.09349 8.66304 1.96188 8.51459C1.83438 8.36807 1.79736 8.20035 1.86728 8.02299C1.94131 7.83213 2.09554 7.71838 2.30735 7.69718C2.44308 7.68175 2.58291 7.68561 2.72069 7.68561C4.53445 7.68561 4.15813 7.68561 5.97188 7.68561C6.14256 7.68561 6.30708 7.69718 6.44691 7.80899C6.61554 7.94202 6.67929 8.15215 6.61348 8.35458C6.55179 8.54351 6.36671 8.68039 6.15284 8.69003C6.02123 8.69581 5.88757 8.69003 5.7539 8.69003C4.88404 8.69003 6.2022 8.69003 5.33028 8.69003V8.69388Z" fill="#6C757D"/>
<path d="M10.9318 6.82769C9.95916 6.82769 8.98647 6.82769 8.01379 6.82769C7.80609 6.82769 7.64569 6.7525 7.53053 6.58863C7.32901 6.29945 7.51614 5.89267 7.87395 5.83869C7.94387 5.82905 8.01379 5.8252 8.08371 5.8252C9.98383 5.8252 9.69594 5.8252 11.5981 5.8252C11.666 5.8252 11.7338 5.82905 11.8017 5.83483C12.0505 5.8599 12.25 6.06618 12.2562 6.30524C12.2623 6.55779 12.0752 6.78142 11.8223 6.81612C11.7462 6.82576 11.668 6.82769 11.5899 6.82769C10.6419 6.82769 11.8819 6.82769 10.9339 6.82769H10.9318Z" fill="#6C757D"/>
<path d="M10.9401 8.69388C9.98391 8.69388 9.02974 8.69388 8.0735 8.69388C7.8802 8.69388 7.70335 8.66304 7.57174 8.51459C7.44424 8.36807 7.40723 8.20035 7.47715 8.02299C7.55118 7.83213 7.70541 7.71838 7.91722 7.69718C8.05294 7.68175 8.19278 7.68561 8.33056 7.68561C10.1443 7.68561 9.76799 7.68561 11.5817 7.68561C11.7524 7.68561 11.9169 7.69718 12.0568 7.80899C12.2254 7.94202 12.2891 8.15215 12.2233 8.35458C12.1617 8.54351 11.9766 8.68039 11.7627 8.69003C11.6311 8.69581 11.4974 8.69003 11.3638 8.69003C10.4939 8.69003 11.8121 8.69003 10.9401 8.69003V8.69388Z" fill="#6C757D"/>
<path d="M5.32198 10.7009C4.34929 10.7009 3.37661 10.7009 2.40393 10.7009C2.19623 10.7009 2.03583 10.6257 1.92067 10.4618C1.71914 10.1726 1.90628 9.76584 2.26409 9.71186C2.33401 9.70222 2.40393 9.69836 2.47385 9.69836C4.37397 9.69836 4.08607 9.69836 5.98825 9.69836C6.05612 9.69836 6.12398 9.70222 6.19184 9.708C6.44066 9.73307 6.64014 9.93935 6.64631 10.1784C6.65247 10.431 6.46534 10.6546 6.2124 10.6893C6.13631 10.6989 6.05817 10.7009 5.98003 10.7009C5.03202 10.7009 6.27204 10.7009 5.32403 10.7009H5.32198Z" fill="#6C757D"/>
<path d="M5.33028 12.5671C4.37405 12.5671 3.41987 12.5671 2.46364 12.5671C2.27034 12.5671 2.09349 12.5362 1.96188 12.3878C1.83438 12.2412 1.79736 12.0735 1.86728 11.8962C1.94131 11.7053 2.09554 11.5916 2.30735 11.5703C2.44308 11.5549 2.58291 11.5588 2.72069 11.5588C4.53445 11.5588 4.15813 11.5588 5.97188 11.5588C6.14256 11.5588 6.30708 11.5703 6.44691 11.6822C6.61554 11.8152 6.67929 12.0253 6.61348 12.2277C6.55179 12.4167 6.36671 12.5536 6.15284 12.5632C6.02123 12.569 5.88757 12.5632 5.7539 12.5632C4.88404 12.5632 6.2022 12.5632 5.33028 12.5632V12.5671Z" fill="#6C757D"/>
<path d="M10.9318 10.7009C9.95916 10.7009 8.98647 10.7009 8.01379 10.7009C7.80609 10.7009 7.64569 10.6257 7.53053 10.4618C7.32901 10.1726 7.51614 9.76584 7.87395 9.71186C7.94387 9.70222 8.01379 9.69836 8.08371 9.69836C9.98383 9.69836 9.69594 9.69836 11.5981 9.69836C11.666 9.69836 11.7338 9.70222 11.8017 9.708C12.0505 9.73307 12.25 9.93935 12.2562 10.1784C12.2623 10.431 12.0752 10.6546 11.8223 10.6893C11.7462 10.6989 11.668 10.7009 11.5899 10.7009C10.6419 10.7009 11.8819 10.7009 10.9339 10.7009H10.9318Z" fill="#6C757D"/>
<path d="M10.9401 12.5671C9.98391 12.5671 9.02974 12.5671 8.0735 12.5671C7.8802 12.5671 7.70335 12.5362 7.57174 12.3878C7.44424 12.2412 7.40723 12.0735 7.47715 11.8962C7.55118 11.7053 7.70541 11.5916 7.91722 11.5703C8.05294 11.5549 8.19278 11.5588 8.33056 11.5588C10.1443 11.5588 9.76799 11.5588 11.5817 11.5588C11.7524 11.5588 11.9169 11.5703 12.0568 11.6822C12.2254 11.8152 12.2891 12.0253 12.2233 12.2277C12.1617 12.4167 11.9766 12.5536 11.7627 12.5632C11.6311 12.569 11.4974 12.5632 11.3638 12.5632C10.4939 12.5632 11.8121 12.5632 10.9401 12.5632V12.5671Z" fill="#6C757D"/>
<path d="M5.32198 14.5739C4.34929 14.5739 3.37661 14.5739 2.40393 14.5739C2.19623 14.5739 2.03583 14.4987 1.92067 14.3348C1.71914 14.0457 1.90628 13.6389 2.26409 13.5849C2.33401 13.5753 2.40393 13.5714 2.47385 13.5714C4.37397 13.5714 4.08607 13.5714 5.98825 13.5714C6.05612 13.5714 6.12398 13.5753 6.19184 13.5811C6.44066 13.6061 6.64014 13.8124 6.64631 14.0515C6.65247 14.304 6.46534 14.5276 6.2124 14.5623C6.13631 14.572 6.05817 14.5739 5.98003 14.5739C5.03202 14.5739 6.27204 14.5739 5.32403 14.5739H5.32198Z" fill="#6C757D"/>
<path d="M10.9318 14.5739C9.95916 14.5739 8.98647 14.5739 8.01379 14.5739C7.80609 14.5739 7.64569 14.4987 7.53053 14.3348C7.32901 14.0457 7.51614 13.6389 7.87395 13.5849C7.94387 13.5753 8.01379 13.5714 8.08371 13.5714C9.98383 13.5714 9.69594 13.5714 11.5981 13.5714C11.666 13.5714 11.7338 13.5753 11.8017 13.5811C12.0505 13.6061 12.25 13.8124 12.2562 14.0515C12.2623 14.304 12.0752 14.5276 11.8223 14.5623C11.7462 14.572 11.668 14.5739 11.5899 14.5739C10.6419 14.5739 11.8819 14.5739 10.9339 14.5739H10.9318Z" fill="#6C757D"/>
</g>
<defs>
<clipPath id="clip0_24630_1236">
<rect width="14.0001" height="16.4081" fill="white" transform="translate(0 0.107178)"/>
</clipPath>
</defs>
</svg>
