<svg width="16" height="19" viewBox="0 0 16 19" fill="none" xmlns="http://www.w3.org/2000/svg">
<g clip-path="url(#clip0_47_398)">
<path d="M7.71107 15.2315C8.26574 15.2315 8.8204 15.2299 9.37659 15.2315C11.0497 15.2315 12.7229 15.236 14.3975 15.2345C14.5286 15.2345 14.6657 15.2147 14.7892 15.1705C15.097 15.0623 15.3118 14.849 15.3606 14.5168C15.4033 14.2288 15.2951 13.9941 15.0634 13.8082C14.4981 13.3526 13.9389 12.8894 13.3781 12.4292C13.2379 12.3149 13.1572 12.1656 13.1358 11.9903C13.1191 11.8623 13.1236 11.7297 13.1236 11.6002C13.1236 10.209 13.1221 8.81775 13.1282 7.42804C13.1313 6.74994 13.0322 6.09166 12.796 5.45775C12.508 4.68823 12.0737 4.01166 11.4886 3.43414C10.7815 2.73623 9.94497 2.26233 8.98802 2.00023C8.92555 1.98347 8.90421 1.96061 8.90421 1.89052C8.90421 1.6589 8.91031 1.42423 8.87983 1.19566C8.80517 0.618138 8.3404 0.19452 7.78269 0.11071C7.06345 0.00251992 6.36707 0.601376 6.34117 1.32976C6.33507 1.51871 6.3366 1.70766 6.34117 1.89509C6.34269 1.96061 6.31984 1.98652 6.25888 2.00176C6.11564 2.03833 5.97241 2.0749 5.83222 2.12518C4.88898 2.46195 4.07831 2.99528 3.42612 3.76023C2.58803 4.74461 2.11108 5.88137 2.08974 7.17508C2.06384 8.73699 2.0806 10.2989 2.08212 11.8623C2.08212 12.0939 2.00289 12.2844 1.83222 12.4414C1.31412 12.9214 0.805173 13.409 0.282507 13.8829C0.0143165 14.1252 -0.00854063 14.596 0.226126 14.8795C0.422697 15.1172 0.675649 15.236 0.986506 15.236C3.22955 15.236 5.4726 15.236 7.71564 15.236L7.71107 15.2315ZM9.9084 15.9096C9.78955 15.9096 9.68136 15.9096 9.57469 15.9096C8.19717 15.9096 6.81964 15.9096 5.44365 15.9096C5.42841 15.9096 5.41469 15.9096 5.39946 15.9096C5.35526 15.9096 5.33698 15.9294 5.34155 15.9736C5.34917 16.0452 5.35069 16.1183 5.36288 16.1899C5.44669 16.6684 5.6265 17.1042 5.97088 17.4577C6.51184 18.0124 7.17317 18.2806 7.94269 18.1572C8.84326 18.0139 9.4604 17.4897 9.7804 16.6288C9.86421 16.4033 9.90383 16.1716 9.90993 15.9096H9.9084Z" fill="white"/>
<path d="M7.71113 15.2315C5.46808 15.2315 3.22504 15.2315 0.98199 15.2315C0.671133 15.2315 0.41818 15.1126 0.221609 14.8749C-0.0130572 14.5915 0.00979989 14.1206 0.27799 13.8783C0.800656 13.4044 1.31113 12.9153 1.8277 12.4368C1.99837 12.2783 2.07761 12.0894 2.07761 11.8577C2.07761 10.2958 2.05932 8.73241 2.08523 7.17051C2.10656 5.87527 2.58351 4.73851 3.42161 3.75565C4.07227 2.9907 4.88446 2.45737 5.8277 2.12061C5.96637 2.07032 6.11113 2.03375 6.25437 1.99718C6.31532 1.98194 6.33818 1.95604 6.33665 1.89051C6.33208 1.70156 6.33056 1.51261 6.33665 1.32518C6.36256 0.596799 7.05894 -0.00205772 7.77817 0.106133C8.33741 0.189942 8.80065 0.613561 8.87532 1.19108C8.90427 1.41966 8.8997 1.65432 8.8997 1.88594C8.8997 1.95756 8.92103 1.97889 8.98351 1.99565C9.94046 2.25775 10.777 2.73165 11.4841 3.42956C12.0692 4.00708 12.5035 4.68518 12.7915 5.45318C13.0292 6.08708 13.1267 6.74689 13.1237 7.42346C13.1176 8.8147 13.1206 10.2059 13.1191 11.5956C13.1191 11.7267 13.1161 11.8577 13.1313 11.9857C13.1542 12.161 13.2334 12.3088 13.3736 12.4246C13.9359 12.8833 14.4936 13.348 15.0589 13.8036C15.2905 13.9911 15.3987 14.2257 15.3561 14.5122C15.3073 14.8444 15.0925 15.0562 14.7846 15.1659C14.6612 15.2101 14.5241 15.2299 14.393 15.2299C12.7199 15.233 11.0467 15.2299 9.37208 15.2269C8.81741 15.2269 8.26274 15.2269 7.70656 15.2269L7.71113 15.2315Z" fill="#6C757D"/>
<path d="M9.90841 15.9096C9.90232 16.1717 9.8627 16.4033 9.77889 16.6288C9.46042 17.4913 8.84327 18.0139 7.94118 18.1572C7.17166 18.2806 6.51032 18.0124 5.96937 17.4578C5.62499 17.1058 5.44518 16.6699 5.36137 16.1899C5.34918 16.1183 5.34766 16.0452 5.34004 15.9736C5.33547 15.9279 5.35375 15.908 5.39794 15.9096C5.41318 15.9096 5.42689 15.9096 5.44213 15.9096C6.81966 15.9096 8.19718 15.9096 9.57318 15.9096C9.67984 15.9096 9.78803 15.9096 9.90689 15.9096H9.90841Z" fill="#6C757D"/>
</g>
<defs>
<clipPath id="clip0_47_398">
<rect width="15.3082" height="18.0922" fill="white" transform="translate(0.0600586 0.0939331)"/>
</clipPath>
</defs>
</svg>
