<svg width="11" height="13" viewBox="0 0 11 13" fill="none" xmlns="http://www.w3.org/2000/svg">
<g clip-path="url(#clip0_24630_1184)">
<path d="M11.0002 12.2261C11.0002 12.1521 11.0002 12.0838 11.0002 12.0154C11.0002 11.5456 11.0058 11.0757 11.0002 10.6058C10.9888 9.85691 10.8492 9.13646 10.5047 8.46441C10.143 7.7582 9.6162 7.2086 8.91568 6.82987C8.80462 6.77007 8.80462 6.77007 8.7135 6.86119C8.04715 7.54178 7.24981 7.98031 6.31293 8.15972C5.85731 8.24799 5.39884 8.25938 4.94037 8.19674C3.87535 8.05435 2.98119 7.5788 2.2408 6.80424C2.21233 6.77576 2.19524 6.77007 2.16107 6.79C1.66843 7.04629 1.24697 7.3937 0.905258 7.82939C0.586322 8.2366 0.364206 8.69223 0.218976 9.18772C0.0737467 9.6889 0.00825024 10.1986 0.0110979 10.7197C0.0110979 11.1953 0.0110979 11.668 0.0110979 12.1436V12.2233H11.0002V12.2261Z" fill="#6C757D"/>
<path d="M2.00436 3.75726C2.00436 5.65949 3.57626 7.24562 5.52405 7.23708C7.42058 7.22854 9.04658 5.65379 9.00102 3.6519C8.95546 1.74113 7.36078 0.209097 5.44716 0.237573C3.55632 0.26605 1.98727 1.82656 2.00151 3.75726H2.00436Z" fill="#6C757D"/>
</g>
<defs>
<clipPath id="clip0_24630_1184">
<rect width="10.9948" height="11.9886" fill="white" transform="matrix(-1 0 0 1 11.0001 0.237579)"/>
</clipPath>
</defs>
</svg>
