<svg width="18" height="16" viewBox="0 0 18 16" fill="none" xmlns="http://www.w3.org/2000/svg">
<g clip-path="url(#clip0_24630_1220)">
<path d="M8.78834 1.46601C8.96938 1.3226 9.13395 1.17213 9.31734 1.04987C9.57126 0.885294 9.86279 0.814761 10.1637 0.814761C12.5078 0.814761 14.8518 0.814761 17.1959 0.814761C17.4756 0.814761 17.605 0.946422 17.605 1.22855C17.605 5.95191 17.605 10.6753 17.605 15.401C17.605 15.6855 17.4709 15.8124 17.1747 15.8124C13.3753 15.8124 9.57596 15.8124 5.77424 15.8124C4.00386 15.8124 2.23113 15.8124 0.460757 15.8124C0.110443 15.8124 -0.00476074 15.6996 -0.00476074 15.3492C-5.85481e-05 10.6588 -5.85481e-05 5.96837 -5.85481e-05 1.28028C-5.85481e-05 0.925262 0.112794 0.81241 0.460757 0.81241C2.74132 0.81241 5.02188 0.817112 7.3048 0.810059C7.88317 0.810059 8.3675 0.993444 8.75073 1.4331C8.76483 1.44956 8.78364 1.46131 8.78834 1.46837V1.46601ZM8.46154 12.9817C8.46154 12.9159 8.46154 12.8712 8.46154 12.8265C8.46154 9.43388 8.46154 6.04125 8.46154 2.64862C8.46154 1.91978 8.04069 1.49893 7.3095 1.49893C5.1606 1.49893 3.0117 1.49893 0.865145 1.49893C0.81107 1.49893 0.754644 1.50363 0.702919 1.50598V12.6431H0.987402C3.10809 12.6431 5.22643 12.6431 7.34712 12.6431C7.64336 12.6431 7.92784 12.6972 8.19351 12.8289C8.27815 12.8712 8.36044 12.9229 8.46154 12.9817ZM16.909 12.6455V1.51539H15.9568C15.9568 2.54987 15.9568 3.57025 15.9568 4.59062C15.9568 4.9762 15.7123 5.12197 15.3644 4.94329C15.0235 4.76696 14.6872 4.58592 14.344 4.41664C14.2852 4.38843 14.1888 4.38843 14.1324 4.41664C13.7891 4.58592 13.4506 4.76696 13.112 4.94329C12.764 5.12197 12.5219 4.9762 12.5219 4.58827C12.5219 3.63608 12.5219 2.68623 12.5219 1.73404C12.5219 1.66116 12.5219 1.58827 12.5219 1.50128C12.4466 1.50128 12.3902 1.50128 12.3338 1.50128C11.6567 1.50128 10.9819 1.50128 10.3048 1.50128C9.57361 1.50128 9.15041 1.92213 9.15041 2.64862C9.15041 6.04125 9.15041 9.43388 9.15041 12.8265C9.15041 12.8712 9.15041 12.9135 9.15041 12.9535C9.16922 12.9605 9.17627 12.9652 9.18098 12.9629C9.20214 12.9535 9.2233 12.9464 9.2421 12.9347C9.55715 12.7254 9.90746 12.6455 10.2836 12.6455C11.7037 12.6478 13.1261 12.6455 14.5462 12.6455H16.9114H16.909ZM0.693515 15.1094H8.45919C8.45919 14.8837 8.45919 14.6721 8.45919 14.4605C8.45919 13.7693 8.02188 13.3344 7.33066 13.3344C5.18176 13.3344 3.03286 13.3344 0.883954 13.3344H0.693515V15.1094ZM16.9067 15.1188V13.3344C16.6786 13.3344 16.46 13.3344 16.2437 13.3344C14.2499 13.3344 12.2539 13.3344 10.2601 13.3344C9.79461 13.3344 9.43489 13.5224 9.23975 13.955C9.07047 14.3289 9.16452 14.7286 9.14806 15.1188H16.9043H16.9067ZM13.2131 4.10865C13.4082 4.00755 13.601 3.93232 13.768 3.81476C14.0924 3.58906 14.3934 3.59611 14.7155 3.81946C14.88 3.93467 15.0728 4.00755 15.2586 4.10395V1.50833H13.2155V4.10865H13.2131Z" fill="#6C757D"/>
<path d="M4.40364 8.61565C3.72182 8.61565 3.04235 8.61565 2.36054 8.61565C2.28765 8.61565 2.21242 8.60859 2.13953 8.59214C1.96555 8.55217 1.8574 8.40875 1.86916 8.24888C1.88326 8.07724 2.01257 7.94088 2.19361 7.93383C2.44988 7.92442 2.7085 7.92677 2.96712 7.92677C4.15207 7.92677 5.33703 7.92677 6.52198 7.92677C6.6795 7.92677 6.83703 7.94793 6.89345 8.11016C6.92872 8.21126 6.92402 8.34997 6.8817 8.44637C6.81587 8.60154 6.65129 8.61565 6.49847 8.61565C5.80019 8.61565 5.10192 8.61565 4.40364 8.61565Z" fill="#6C757D"/>
<path d="M4.40129 6.21997C3.70301 6.21997 3.00474 6.21997 2.30646 6.21762C2.21242 6.21762 2.10897 6.20116 2.02903 6.15884C1.90207 6.09301 1.8574 5.9684 1.88326 5.82498C1.90912 5.68157 1.98906 5.58517 2.13248 5.55696C2.20536 5.54285 2.2806 5.53345 2.35348 5.53345C3.71006 5.53345 5.06665 5.53345 6.42323 5.53345C6.50787 5.53345 6.59486 5.5405 6.67715 5.55696C6.84643 5.59222 6.95693 5.74505 6.94282 5.90492C6.92872 6.0742 6.80646 6.20821 6.63248 6.21291C6.30568 6.22232 5.98122 6.21997 5.65442 6.22232C5.23593 6.22232 4.81978 6.22232 4.40129 6.22232V6.21997Z" fill="#6C757D"/>
<path d="M5.04314 3.84057C4.55176 3.84057 4.05803 3.84057 3.56665 3.84057C3.31273 3.84057 3.15991 3.70891 3.15991 3.49966C3.15991 3.28336 3.30803 3.15405 3.5596 3.15405C4.54941 3.15405 5.54157 3.15405 6.53139 3.15405C6.84173 3.15405 7.02041 3.37741 6.91226 3.62662C6.84408 3.7818 6.71712 3.84057 6.5549 3.84057C6.05176 3.84057 5.54628 3.84057 5.04314 3.84057Z" fill="#6C757D"/>
<path d="M3.74761 10.3061C4.2578 10.3061 4.76564 10.3061 5.27583 10.3061C5.42395 10.3061 5.56736 10.3578 5.60498 10.5036C5.63319 10.6117 5.62144 10.7599 5.56501 10.8492C5.51564 10.9268 5.37692 10.9856 5.27583 10.9879C4.26956 10.9973 3.26094 10.995 2.25467 10.9926C2.02661 10.9926 1.86438 10.8374 1.87144 10.64C1.87614 10.4495 2.03131 10.3084 2.25702 10.3061C2.75545 10.3037 3.25153 10.3061 3.74996 10.3061H3.74761Z" fill="#6C757D"/>
<path d="M6.94513 10.6494C6.94513 10.8281 6.78525 10.9903 6.60892 10.9927C6.42789 10.995 6.25626 10.8234 6.26096 10.6424C6.26566 10.466 6.43024 10.3061 6.60657 10.3085C6.7829 10.3085 6.94513 10.4754 6.94513 10.6494Z" fill="#6C757D"/>
<path d="M2.54626 3.49026C2.54626 3.67835 2.40519 3.83352 2.22181 3.83822C2.03842 3.84528 1.86914 3.67835 1.86914 3.49261C1.86914 3.31393 2.02902 3.15405 2.2077 3.15405C2.38873 3.15405 2.54391 3.30687 2.54626 3.49026Z" fill="#6C757D"/>
<path d="M13.2037 10.995C12.5008 10.995 11.7954 10.995 11.0925 10.995C10.9161 10.995 10.7727 10.9457 10.7022 10.774C10.6034 10.5366 10.7751 10.3085 11.0572 10.3062C11.4686 10.3015 11.8824 10.3062 12.2939 10.3062C13.3119 10.3062 14.3323 10.3062 15.3503 10.3062C15.6512 10.3062 15.8323 10.5483 15.7171 10.7881C15.6418 10.948 15.5031 10.995 15.3338 10.9927C14.6238 10.9903 13.9138 10.9927 13.2037 10.9927V10.995Z" fill="#6C757D"/>
<path d="M13.2037 7.92445C13.9067 7.92445 14.612 7.92445 15.315 7.92445C15.4796 7.92445 15.623 7.95266 15.7053 8.11254C15.8017 8.29827 15.71 8.52398 15.5125 8.58511C15.442 8.60627 15.3667 8.61332 15.2939 8.61332C13.902 8.61332 12.5125 8.61332 11.1207 8.61332C11.0642 8.61332 11.0078 8.60627 10.9514 8.59216C10.7703 8.55219 10.6575 8.40407 10.674 8.23714C10.6928 8.06316 10.8221 7.9315 11.0055 7.92915C11.5321 7.9221 12.0587 7.92445 12.5854 7.92445C12.7923 7.92445 12.9968 7.92445 13.2037 7.92445Z" fill="#6C757D"/>
<path d="M13.2155 6.21997C12.4937 6.21997 11.7743 6.21997 11.0525 6.21997C10.8268 6.21997 10.6927 6.09771 10.6786 5.90257C10.6645 5.71683 10.7962 5.57342 11.0125 5.5405C11.0642 5.53345 11.1159 5.53345 11.1677 5.53345C11.6779 5.53345 12.1857 5.53345 12.6959 5.53345C13.5493 5.53345 14.4004 5.53345 15.2539 5.53345C15.2656 5.53345 15.2774 5.53345 15.2891 5.53345C15.583 5.5358 15.75 5.66041 15.7523 5.87906C15.7547 6.10006 15.5971 6.22232 15.2962 6.22232C14.6026 6.22232 13.9114 6.22232 13.2178 6.22232L13.2155 6.21997Z" fill="#6C757D"/>
<path d="M11.1866 3.83831C11.1231 3.83831 11.0596 3.84301 10.9985 3.83831C10.8128 3.8195 10.6764 3.67373 10.6764 3.4974C10.6764 3.32812 10.801 3.18 10.982 3.16119C11.1184 3.14708 11.2571 3.14943 11.3935 3.15649C11.5792 3.16824 11.7203 3.31636 11.725 3.49034C11.732 3.65962 11.5933 3.81479 11.4099 3.83831C11.337 3.84771 11.2618 3.83831 11.1866 3.83831Z" fill="#6C757D"/>
</g>
<defs>
<clipPath id="clip0_24630_1220">
<rect width="17.6074" height="15" fill="white" transform="translate(0 0.810059)"/>
</clipPath>
</defs>
</svg>
