<svg width="16" height="16" viewBox="0 0 16 16" fill="none" xmlns="http://www.w3.org/2000/svg">
<g clip-path="url(#clip0_24634_1382)">
<path d="M16 6.34151C16 7.61691 16 8.89232 16 10.1677C16 11.1755 15.3749 12.0552 14.4136 12.3974C14.1786 12.4811 13.9342 12.523 13.6851 12.523C11.8778 12.523 10.0705 12.523 8.26322 12.523C8.16216 12.523 8.08226 12.5533 8.0047 12.6092C7.34195 13.0979 6.6792 13.5867 6.01645 14.0754C5.63572 14.357 5.25734 14.6386 4.87662 14.9202C4.74031 15.0227 4.59459 15.1134 4.42068 15.1367C4.0094 15.1902 3.66862 14.9505 3.59342 14.5455C3.57227 14.4292 3.56992 14.3105 3.56992 14.1918C3.56757 13.6658 3.56757 13.1375 3.56992 12.6115C3.56992 12.544 3.55112 12.5254 3.48531 12.5254C3.11163 12.5254 2.73796 12.5207 2.36428 12.5254C1.31375 12.5393 0.444183 11.8341 0.13161 10.959C0.0329025 10.6891 0 10.4121 0 10.1282C0 7.66113 0 5.19643 0 2.7294C0 2.45943 0 2.19411 0.0634548 1.92878C0.27027 1.03507 1.06933 0.292631 1.98825 0.180917C2.35488 0.136696 2.72855 0.146006 3.09753 0.141351C4 0.136696 4.90247 0.141351 5.80493 0.141351C8.32902 0.141351 10.8555 0.141351 13.3796 0.141351C13.7109 0.141351 14.0423 0.146006 14.3596 0.255393C15.2808 0.571917 15.819 1.21428 15.9671 2.16152C16.0094 2.43848 15.9953 2.72475 15.9953 3.00636C15.9976 4.11885 15.9953 5.23134 15.9953 6.34151H16ZM4.68155 13.6891C4.71445 13.6704 4.7309 13.6611 4.74501 13.6495C5.12573 13.3702 5.50646 13.0886 5.88719 12.8093C6.45828 12.3881 7.03173 11.9715 7.59812 11.5455C7.71798 11.4548 7.83314 11.4199 7.97885 11.4199C9.87074 11.4199 11.765 11.4199 13.6569 11.4199C14.3337 11.4199 14.8837 10.8753 14.8837 10.2073C14.8837 7.61691 14.8837 5.02653 14.8837 2.43615C14.8837 2.35237 14.8743 2.26625 14.8555 2.1848C14.7497 1.70303 14.2679 1.25384 13.7086 1.24453C13.4877 1.23988 13.2644 1.24453 13.0435 1.24453C9.49236 1.24453 5.94125 1.24453 2.39013 1.24453C2.11751 1.24453 1.86369 1.30737 1.64042 1.45865C1.25734 1.72165 1.10458 2.09636 1.10693 2.54787C1.10928 3.69992 1.10928 4.84965 1.10928 6.00171C1.10928 7.37487 1.10928 8.74802 1.10928 10.1189C1.10928 10.4028 1.15864 10.6704 1.3349 10.9032C1.60282 11.2569 1.9577 11.4268 2.40893 11.4222C3.13984 11.4152 3.87309 11.4222 4.60399 11.4222C4.6275 11.4222 4.651 11.4245 4.68155 11.4268V13.6891Z" fill="#6C757D"/>
<path d="M7.98586 5.40603C6.94943 5.40603 5.91535 5.40603 4.87893 5.40603C4.65801 5.40603 4.48645 5.32457 4.36424 5.14303C4.15037 4.82651 4.34779 4.37733 4.73086 4.31914C4.80372 4.3075 4.87893 4.30518 4.95413 4.30518C6.97763 4.30518 9.00113 4.30518 11.0246 4.30518C11.0975 4.30518 11.168 4.30983 11.2409 4.31681C11.5064 4.34474 11.7179 4.5705 11.725 4.83117C11.732 5.10812 11.5323 5.35483 11.2644 5.39206C11.1821 5.4037 11.0998 5.40603 11.0176 5.40603C10.0094 5.40603 8.99879 5.40603 7.99056 5.40603H7.98586Z" fill="#6C757D"/>
<path d="M7.99535 8.35717C6.97773 8.35717 5.9601 8.35717 4.94482 8.35717C4.73801 8.35717 4.54999 8.32459 4.41133 8.15934C4.27502 7.99875 4.23742 7.81489 4.31028 7.61939C4.39018 7.40992 4.55234 7.28657 4.77796 7.26097C4.92367 7.24468 5.07173 7.24933 5.21745 7.24933C7.14694 7.24933 9.07878 7.24933 11.0083 7.24933C11.1892 7.24933 11.3655 7.2633 11.5136 7.38432C11.6922 7.53095 11.7627 7.76136 11.6898 7.98479C11.624 8.19192 11.4266 8.3432 11.1986 8.35251C11.0576 8.3595 10.9166 8.35251 10.7733 8.35251C9.84729 8.35251 8.92132 8.35251 7.993 8.35251L7.99535 8.35717Z" fill="#6C757D"/>
</g>
<defs>
<clipPath id="clip0_24634_1382">
<rect width="16" height="15" fill="white" transform="translate(0 0.141479)"/>
</clipPath>
</defs>
</svg>
