<svg width="18" height="16" viewBox="0 0 18 16" fill="none" xmlns="http://www.w3.org/2000/svg">
<g clip-path="url(#clip0_24630_1211)">
<path d="M16.165 14.7846C16.364 14.7846 16.5487 14.778 16.7309 14.7859C17.0358 14.8003 17.2555 14.9904 17.3201 15.2841C17.3731 15.5214 17.2542 15.7837 17.0177 15.9082C16.9286 15.9554 16.8201 15.9803 16.7193 15.9817C15.6494 15.9908 14.5783 15.9974 13.5084 15.9987C11.0845 16.0013 8.66054 15.9987 6.23658 15.9987C4.59951 15.9987 2.96373 16.0013 1.32666 15.9987C1.08116 15.9987 0.835663 15.9908 0.588874 15.9817C0.276189 15.9699 0.0242325 15.7273 -0.000317121 15.4205C-0.0222826 15.1451 0.197372 14.8632 0.489384 14.8056C0.596627 14.7846 0.709038 14.7872 0.818865 14.7833C0.928693 14.7793 1.03981 14.7833 1.17936 14.7833C1.17936 14.7138 1.17936 14.6548 1.17936 14.5958C1.17936 10.619 1.17936 6.641 1.17807 2.66428C1.17807 1.15383 2.2996 0.00394818 3.7842 0.00394818C5.71587 0.00394818 7.64883 0.0209932 9.5805 1.47246e-05C10.9617 -0.014408 12.1931 1.11318 12.1776 2.64985C12.1737 3.08647 12.1776 3.52308 12.1776 3.98199C12.25 3.98592 12.3133 3.98985 12.3779 3.99116C12.8882 4.00034 13.3999 3.98199 13.9077 4.02525C15.0434 4.12097 16.0487 5.12138 16.121 6.27388C16.1779 7.18251 16.1546 8.09507 16.1572 9.00633C16.1611 10.88 16.1572 12.7523 16.1572 14.6259C16.1572 14.6692 16.1611 14.7125 16.165 14.7859V14.7846ZM10.994 14.7688C10.994 14.6849 10.994 14.6233 10.994 14.5617C10.994 10.6217 10.9837 6.68165 11.0018 2.74164C11.0057 1.8789 10.3609 1.18136 9.4991 1.19448C7.6049 1.22332 5.70941 1.20234 3.81392 1.20365C3.69763 1.20365 3.57747 1.20365 3.46635 1.23119C2.78154 1.39508 2.36032 1.9615 2.36162 2.69312C2.3642 4.1485 2.36162 5.60257 2.36162 7.05795C2.36162 9.5675 2.36162 12.0784 2.36162 14.5879C2.36162 14.6469 2.36162 14.7059 2.36162 14.7688H10.9928H10.994ZM14.9659 14.7702C14.9698 14.7164 14.9737 14.6797 14.9737 14.643C14.9737 11.9656 14.9775 9.28822 14.9737 6.61085C14.9737 5.9356 14.4969 5.30625 13.8676 5.23545C13.3172 5.17382 12.7539 5.22234 12.1879 5.22234V14.7702H14.9659Z" fill="#6C757D"/>
<path d="M6.66851 4.35825C7.1104 4.35825 7.55359 4.35694 7.99548 4.35825C8.35856 4.35956 8.63506 4.62572 8.63119 4.96662C8.62731 5.30752 8.36631 5.55533 8.00323 5.55664C7.11169 5.55795 6.22145 5.55795 5.32991 5.55664C4.97329 5.55664 4.68386 5.27999 4.68903 4.94958C4.6942 4.61917 4.96942 4.35956 5.32345 4.35825C5.7718 4.35694 6.22015 4.35825 6.6698 4.35825H6.66851Z" fill="#6C757D"/>
<path d="M6.6517 11.6286C6.20335 11.6286 5.755 11.6312 5.30535 11.6286C4.95907 11.626 4.68127 11.3507 4.68773 11.0202C4.6929 10.7043 4.97587 10.4315 5.30923 10.4315C6.21239 10.4289 7.11556 10.4289 8.01873 10.4315C8.35467 10.4315 8.6286 10.7043 8.62989 11.0268C8.63247 11.3716 8.37405 11.6273 8.01485 11.6286C7.56004 11.6312 7.10523 11.6286 6.65041 11.6286H6.6517Z" fill="#6C757D"/>
<path d="M6.65944 8.59329C6.21754 8.59329 5.77436 8.59329 5.33246 8.59329C4.97068 8.59198 4.68513 8.32319 4.689 7.99016C4.69288 7.65582 4.97585 7.3949 5.34022 7.3949C6.21883 7.3949 7.09745 7.3949 7.97607 7.3949C8.35465 7.3949 8.63504 7.65582 8.63116 8.00196C8.62728 8.35073 8.36499 8.59198 7.98641 8.59329C7.54451 8.59329 7.10133 8.59329 6.65944 8.59329Z" fill="#6C757D"/>
</g>
<defs>
<clipPath id="clip0_24630_1211">
<rect width="17.3333" height="16" fill="white"/>
</clipPath>
</defs>
</svg>
