<svg width="16" height="18" viewBox="0 0 16 18" fill="none" xmlns="http://www.w3.org/2000/svg">
<g clip-path="url(#clip0_47_346)">
<path d="M7.43674 8.26815C7.06146 8.27637 6.68618 8.17892 6.32484 7.99811C4.66455 7.16801 3.00077 6.34378 1.34164 5.51251C1.19176 5.43736 1.0442 5.34343 0.922209 5.22954C0.552739 4.88435 0.560872 4.40884 0.940799 4.07069C1.05582 3.96737 1.19641 3.88753 1.33467 3.81591C3.03911 2.93298 4.74588 2.05474 6.45265 1.17533C7.18578 0.797263 7.92704 0.800785 8.65669 1.16006C10.3391 1.98781 12.0156 2.82848 13.6933 3.66562C13.9617 3.79947 14.2069 3.9662 14.3219 4.26325C14.4567 4.61313 14.2812 5.02525 13.8827 5.24716C13.4331 5.49724 12.973 5.72737 12.5152 5.96337C11.1884 6.64905 9.86038 7.33238 8.53353 8.01689C8.19776 8.18949 7.84339 8.27637 7.4379 8.26933L7.43674 8.26815ZM1.60654 4.64131C1.79825 4.73759 1.95278 4.81508 2.10847 4.89257C3.66303 5.66749 5.21759 6.44006 6.771 7.21615C7.21599 7.43805 7.66911 7.46036 8.10829 7.23728C9.8139 6.37313 11.5137 5.49724 13.2158 4.62487C13.2704 4.5967 13.3227 4.56265 13.3971 4.51803C11.6125 3.63157 9.86502 2.75334 8.10829 1.89506C7.7214 1.70603 7.29848 1.73186 6.9081 1.92676C6.22376 2.26843 5.5464 2.62301 4.86555 2.97172C3.79432 3.52003 2.72309 4.06834 1.6077 4.64014L1.60654 4.64131Z" fill="#6C757D"/>
<path d="M15.1665 10.4884C15.1665 11.5416 15.156 12.5948 15.17 13.6468C15.1793 14.3383 14.8621 14.8397 14.2939 15.152C12.6929 16.0302 11.0779 16.8838 9.46059 17.7303C9.2654 17.8325 9.01444 17.8888 8.79601 17.8736C8.3545 17.843 8.09657 17.5014 8.09541 17.0165C8.09192 15.7672 8.09309 14.518 8.09309 13.2687C8.09309 12.3681 8.1047 11.4676 8.09076 10.5671C8.07914 9.86963 8.39633 9.35772 8.97029 9.04188C10.5655 8.16482 12.177 7.32063 13.785 6.46705C13.9105 6.40013 14.0522 6.35434 14.1917 6.32616C14.7354 6.21696 15.1665 6.57977 15.1676 7.13982C15.1688 8.2564 15.1676 9.37181 15.1676 10.4884H15.1665ZM14.2928 7.18443C14.1882 7.23375 14.1185 7.26193 14.0534 7.29715C13.6537 7.50849 13.2564 7.72218 12.8567 7.93469C11.7436 8.5288 10.6306 9.12172 9.51752 9.71465C9.15619 9.90721 8.9668 10.1784 8.97145 10.6234C8.98888 12.684 8.97958 14.7457 8.98074 16.8063C8.98074 16.8615 8.98539 16.9155 8.99004 16.9977C9.08415 16.9554 9.15735 16.9261 9.22822 16.8897C9.84284 16.5633 10.4575 16.2345 11.0721 15.9069C11.9748 15.4244 12.8788 14.9465 13.7769 14.4581C14.0697 14.2996 14.2939 14.08 14.2928 13.7043C14.2904 12.131 14.2928 10.5588 14.2928 8.98553C14.2928 8.39729 14.2928 7.80906 14.2928 7.18326V7.18443Z" fill="#6C757D"/>
<path d="M7.18223 13.7231C7.18223 14.8009 7.16015 15.8799 7.1892 16.9578C7.21011 17.755 6.49789 18.1025 5.84958 17.7597C4.79112 17.1984 3.73267 16.636 2.67306 16.0748C2.12466 15.7836 1.56929 15.503 1.02671 15.2025C0.417894 14.8631 0.0612042 14.3677 0.0646897 13.6291C0.0739846 11.5052 0.0844413 9.38002 0.0600423 7.25487C0.0495856 6.3872 0.816411 6.11481 1.42639 6.4283C1.94457 6.696 2.45695 6.97544 2.97282 7.25018C4.0638 7.83136 5.15711 8.40903 6.24461 8.99726C6.71284 9.25087 7.03699 9.63128 7.16015 10.1655C7.17874 10.2442 7.18223 10.3287 7.18339 10.4097C7.18455 11.5134 7.18339 12.6171 7.18339 13.7207L7.18223 13.7231ZM0.950025 7.17034C0.950025 7.33824 0.950025 7.46269 0.950025 7.58832C0.950025 9.57962 0.961643 11.5697 0.945377 13.561C0.941892 14.0049 1.12314 14.2796 1.48564 14.471C3.04369 15.2952 4.60174 16.1206 6.15979 16.9448C6.19581 16.9636 6.23647 16.973 6.29108 16.9918C6.29689 16.9319 6.30502 16.8897 6.30502 16.8486C6.30502 14.7375 6.30502 12.6253 6.30851 10.5142C6.30851 10.2747 6.23066 10.0774 6.05406 9.92716C5.9402 9.83088 5.8124 9.74635 5.68111 9.6759C4.65751 9.12994 3.63043 8.58749 2.60567 8.04505C2.06889 7.76092 1.53095 7.47796 0.951187 7.17151L0.950025 7.17034Z" fill="#6C757D"/>
</g>
<defs>
<clipPath id="clip0_47_346">
<rect width="15.1111" height="17" fill="white" transform="translate(0.0600586 0.890015)"/>
</clipPath>
</defs>
</svg>
