<svg width="15" height="16" viewBox="0 0 15 16" fill="none" xmlns="http://www.w3.org/2000/svg">
<g clip-path="url(#clip0_24630_1310)">
<path d="M7.10177 15.8101H6.9751C6.91344 15.7467 -0.184895 13.8601 0.00343817 3.31339V3.16173L0.973438 1.77839L1.16177 1.75339C1.28844 1.72839 7.10177 0.810059 7.10177 0.810059C7.10177 0.810059 12.9418 1.71673 13.0668 1.75339L13.2184 1.77839L14.1868 3.16339V3.31506C14.3118 8.77673 12.4251 11.8851 10.8268 13.5201C9.0901 15.3067 7.26511 15.8101 7.10177 15.8101ZM0.985105 3.50339C0.858438 12.4884 6.23344 14.5267 7.11344 14.8034C8.02011 14.5267 13.3551 12.4751 13.2418 3.46506L12.6501 2.62173C11.9951 2.47006 9.4151 1.84173 7.1251 1.77839C4.8351 1.84173 2.29177 2.47006 1.60011 2.62173L0.983438 3.50339H0.985105Z" fill="#6C757D"/>
<path d="M4.68506 7.36672H9.95839V8.39839H4.68506V7.36672ZM4.68506 9.97172H9.95839V11.0034H4.68506V9.97172ZM4.68506 4.76172H9.95839V5.79339H4.68506V4.76172Z" fill="#6C757D"/>
<path d="M4.66 8.81337C4.15667 8.81337 3.71667 8.37337 3.71667 7.84503C3.71667 7.3167 4.12 6.8767 4.66 6.8767H7.14V6.16003H4.62334C3.68 6.16003 2.96167 6.91503 2.96167 7.85837C2.96167 8.8017 3.71667 9.5567 4.62334 9.5567H7.14V8.81337H4.66Z" fill="#6C757D"/>
</g>
<defs>
<clipPath id="clip0_24630_1310">
<rect width="14.1933" height="15" fill="white" transform="translate(0 0.810059)"/>
</clipPath>
</defs>
</svg>
