<svg width="16" height="17" viewBox="0 0 16 17" fill="none" xmlns="http://www.w3.org/2000/svg">
<g clip-path="url(#clip0_24630_1288)">
<path d="M9.54436 11.5609C9.24103 11.8746 8.92736 12.1573 8.58267 12.4054C8.06218 12.7812 7.4831 13.0052 6.84887 13.0845C6.44902 13.1362 6.04573 13.1603 5.64589 13.1224C4.99442 13.0604 4.38432 12.8708 3.87073 12.4468C3.33646 12.0056 3.02279 11.4334 2.87112 10.7647C2.79874 10.4441 2.75737 10.1167 2.76082 9.79268C2.77805 8.43804 3.2882 7.34192 4.44636 6.58359C4.91514 6.27682 5.43563 6.08034 5.98024 5.95281C6.33183 5.87008 6.69031 5.79425 7.04534 5.74255C7.54859 5.67016 8.05529 5.6219 8.56199 5.56675C8.73089 5.54607 8.90323 5.53228 9.07213 5.5116L9.11349 5.47024C9.11349 5.0635 9.14796 4.65677 9.08247 4.25348C9.03421 3.9467 8.92391 3.6675 8.68263 3.45379C8.46203 3.25732 8.20351 3.15391 7.91396 3.11944C7.45897 3.06429 7.02121 3.11944 6.62137 3.36073C6.23876 3.59167 6.01127 3.93291 5.9113 4.36723C5.89062 4.4534 5.85615 4.54302 5.8079 4.61885C5.72862 4.74294 5.61142 4.79464 5.45631 4.77741C4.89446 4.71536 4.33262 4.66021 3.77421 4.60162C3.66047 4.59128 3.55016 4.56715 3.43642 4.55336C3.26062 4.52923 3.08138 4.3362 3.12619 4.10526C3.26062 3.46413 3.50191 2.87126 3.92588 2.36457C4.31883 1.89578 4.80484 1.55109 5.36324 1.30636C5.83547 1.09955 6.33183 0.97201 6.83853 0.892731C7.27973 0.823792 7.72438 0.803111 8.16904 0.816898C8.94804 0.844474 9.69947 0.999585 10.4026 1.34428C11.1058 1.69242 11.6297 2.2129 11.9021 2.96433C12.0641 3.40553 12.1158 3.86398 12.133 4.32931C12.1468 4.64298 12.1502 4.95665 12.1502 5.27377C12.1502 6.47329 12.1399 7.66937 12.1399 8.8689C12.1399 9.18257 12.164 9.49279 12.2605 9.79268C12.3674 10.127 12.5535 10.4166 12.7603 10.6958C12.8155 10.7682 12.8706 10.8371 12.9223 10.9129C12.9671 10.9819 13.012 11.0542 13.0395 11.1301C13.105 11.3024 13.0706 11.4231 12.9327 11.5403C12.5053 11.9091 12.0778 12.2779 11.647 12.6467C11.5263 12.7501 11.4126 12.857 11.2885 12.957C11.1575 13.0604 11.0093 13.0948 10.8507 13.0328C10.8059 13.0155 10.7611 12.9811 10.7232 12.9501C10.3165 12.626 9.98556 12.2331 9.70636 11.7953C9.65811 11.7195 9.60296 11.6437 9.5478 11.5644L9.54436 11.5609ZM9.12039 7.23162C9.08936 7.23162 9.06524 7.23162 9.04455 7.23162C8.74123 7.22127 8.44134 7.2454 8.14146 7.28332C7.75885 7.32813 7.38659 7.41086 7.035 7.56941C6.6455 7.74521 6.32493 8.00373 6.12501 8.39323C5.96645 8.70345 5.90441 9.0378 5.90441 9.38594C5.90441 9.64791 5.93199 9.90298 6.0285 10.1477C6.22842 10.6579 6.60069 10.9405 7.1522 10.9715C7.56927 10.9922 7.93809 10.8474 8.24832 10.5682C8.7688 10.1029 9.00664 9.49279 9.08247 8.8172C9.11005 8.58281 9.11349 8.34497 9.11694 8.10713C9.12383 7.82104 9.11694 7.53494 9.11694 7.23851L9.12039 7.23162Z" fill="#6C757D"/>
<path d="M12.7846 15.5008C12.7363 15.5181 12.6984 15.5319 12.6605 15.5491C12.4812 15.6249 12.2985 15.6904 12.1262 15.7766C11.9745 15.8524 11.8022 15.8731 11.6609 15.9696L11.6436 15.9765C11.4816 16.0248 11.3196 16.0765 11.1576 16.1247C11.068 16.1523 10.9784 16.173 10.8853 16.1971C10.8095 16.2178 10.7336 16.2385 10.6578 16.2557C10.5061 16.2902 10.351 16.3247 10.1994 16.3557C10.0167 16.3901 9.83054 16.4108 9.65475 16.4591C9.53411 16.4936 9.41002 16.4867 9.28937 16.5108C9.02051 16.5694 8.75165 16.5694 8.47935 16.5797C8.10019 16.5935 7.72447 16.597 7.34531 16.5901C7.12816 16.5901 6.911 16.5625 6.69384 16.5418C6.52839 16.528 6.36294 16.5142 6.19749 16.4867C6.03893 16.4625 5.88037 16.4212 5.72181 16.3936C5.60806 16.3729 5.49087 16.3591 5.37712 16.3315C5.2875 16.3109 5.19788 16.2764 5.10826 16.2557C4.99107 16.2281 4.86353 16.2281 4.76357 16.173C4.69118 16.1316 4.61535 16.1489 4.54986 16.104C4.5085 16.073 4.44645 16.0696 4.39475 16.0523C4.04661 15.9214 3.69158 15.8042 3.35033 15.6559C3.01943 15.5112 2.69197 15.3492 2.37485 15.1699C2.00603 14.9562 1.651 14.7253 1.29941 14.484C1.06847 14.3254 0.851313 14.1393 0.630711 13.9635C0.516962 13.8704 0.406661 13.7739 0.299806 13.6705C0.279125 13.6498 0.275678 13.6016 0.279125 13.5637C0.279125 13.5326 0.26189 13.4982 0.313594 13.4706C0.406661 13.4223 0.448024 13.4189 0.547985 13.4706C0.851313 13.6326 1.15464 13.7946 1.46142 13.9497C1.64066 14.0428 1.82679 14.1255 2.01293 14.2048C2.22319 14.2944 2.44034 14.3771 2.65405 14.4633C2.75401 14.5047 2.85397 14.546 2.95738 14.5805C3.13662 14.6426 3.31931 14.7012 3.502 14.7598C3.63643 14.8011 3.7743 14.8425 3.91218 14.8804C3.96388 14.8942 4.01903 14.9045 4.07418 14.9183C4.14312 14.9355 4.21206 14.9597 4.28445 14.9804C4.41543 15.0148 4.54986 15.0493 4.68084 15.0769C4.9566 15.1355 5.2358 15.1941 5.515 15.2492C5.54257 15.2561 5.57015 15.2596 5.59772 15.263C5.79764 15.2906 5.99412 15.3182 6.19404 15.3457C6.25264 15.3526 6.31123 15.363 6.37328 15.3664C6.71797 15.3905 7.05922 15.425 7.40391 15.4388C7.8003 15.4526 8.19325 15.4595 8.58965 15.4526C8.86196 15.4526 9.13082 15.4285 9.40312 15.4043C9.66164 15.3802 9.91671 15.3457 10.1718 15.3147C10.2855 15.3009 10.3993 15.2768 10.513 15.2561C10.6854 15.2251 10.8543 15.1941 11.0266 15.1596C11.1093 15.1424 11.2024 15.1424 11.2748 15.1044C11.3713 15.0527 11.4782 15.07 11.5781 15.0286C11.6677 14.9907 11.7677 14.9838 11.8608 14.9597C11.8884 14.9528 11.9125 14.9355 11.9401 14.9218L11.9642 14.9114C12.1124 14.8769 12.2606 14.8459 12.4088 14.8046C12.5467 14.7666 12.6777 14.7149 12.8121 14.6667C12.8845 14.6426 12.9603 14.6219 13.0327 14.5943C13.1361 14.5598 13.2361 14.5219 13.3395 14.484C13.4498 14.4426 13.5601 14.3978 13.6704 14.3496C13.7462 14.3185 13.8186 14.2772 13.8979 14.2496C13.9393 14.2358 13.9979 14.2324 14.0358 14.2496C14.1013 14.2841 14.1737 14.3254 14.215 14.384C14.2426 14.422 14.2392 14.4978 14.2219 14.546C14.1978 14.6046 14.1495 14.6632 14.0978 14.7012C13.7359 14.97 13.3498 15.201 12.9466 15.4043C12.9121 15.4216 12.8707 15.4285 12.8363 15.4491L12.8052 15.4836L12.7846 15.5008Z" fill="#6C757D"/>
<path d="M13.9805 13.7395C13.7358 13.7636 13.4911 13.7877 13.2464 13.8084C13.0981 13.8222 12.9465 13.836 12.7983 13.8429C12.6707 13.8463 12.6362 13.7808 12.7017 13.674C12.719 13.6464 12.7431 13.6188 12.7707 13.5981C12.943 13.4844 13.1292 13.3913 13.3256 13.3224C13.8151 13.15 14.3183 13.1087 14.8319 13.1535C15.0146 13.1707 15.1973 13.1948 15.3697 13.2672C15.4869 13.3155 15.5489 13.3982 15.5592 13.5292C15.5834 13.8394 15.5144 14.1358 15.4351 14.4323C15.4283 14.453 15.4214 14.4736 15.4179 14.4943C15.3283 14.8149 15.1973 15.1217 15.0077 15.394C14.8871 15.5663 14.7389 15.7249 14.5975 15.8834C14.5458 15.942 14.4872 15.9903 14.3976 15.98C14.3252 15.9731 14.2804 15.911 14.308 15.8386C14.3666 15.687 14.4321 15.5387 14.4872 15.3871C14.5527 15.2044 14.5975 15.0183 14.6665 14.839C14.7285 14.6805 14.7596 14.515 14.7906 14.3461C14.8113 14.2427 14.8078 14.1324 14.8044 14.0255C14.8044 13.929 14.7113 13.8463 14.6217 13.8187C14.4114 13.7532 14.1977 13.7532 13.9805 13.7395Z" fill="#6C757D"/>
</g>
<defs>
<clipPath id="clip0_24630_1288">
<rect width="15.2871" height="15.78" fill="white" transform="translate(0.275635 0.810059)"/>
</clipPath>
</defs>
</svg>
