<svg width="18" height="23" viewBox="0 0 18 23" fill="none" xmlns="http://www.w3.org/2000/svg">
<g clip-path="url(#clip0_24630_1296)">
<path d="M17.4436 5.74795C17.3702 5.95935 17.2479 6.31167 17.1257 6.66399C17.036 6.92235 16.937 7.16434 16.834 7.41807C16.7443 7.67644 16.6413 7.93017 16.5382 8.1839C16.4485 8.44226 16.3455 8.69599 16.2465 8.93798C16.1569 9.19635 16.0538 9.45008 15.9508 9.70381C15.8611 9.96217 15.7621 10.2042 15.6591 10.4579C15.5694 10.7163 15.4623 10.9817 15.3593 11.2355C15.2737 11.4821 15.1788 11.7123 15.0798 11.9543C14.9861 12.2244 14.8789 12.4899 14.7677 12.7671C14.6862 13.002 14.5913 13.2322 14.4964 13.4625C14.4027 13.7326 14.2956 13.9981 14.1844 14.2753C14.0988 14.5219 14.0039 14.7521 13.9049 14.9941C13.8112 15.2642 13.7041 15.5297 13.5929 15.8069C13.5113 16.0418 13.4205 16.2603 13.3256 16.4906C13.2278 16.7724 13.1125 17.0614 13.0014 17.3386C12.928 17.55 12.8412 17.7567 12.7504 17.9752C12.6485 18.2688 12.5292 18.5695 12.4139 18.8585C12.3242 19.1169 12.2253 19.3589 12.1222 19.6126C12.0326 19.871 11.9295 20.1247 11.8265 20.3784C11.7368 20.6368 11.6512 20.8834 11.5348 21.1325C11.4481 21.3392 11.316 21.504 11.0852 21.6081C10.676 21.795 10.2907 21.7402 9.88342 21.5331L9.77651 21.496C9.25532 21.3151 8.73821 21.1224 8.22111 20.9298C8.14092 20.902 8.06482 20.8624 7.99279 20.8111C7.89403 20.7505 7.85461 20.6052 7.87793 20.4949C7.91642 20.2977 7.96828 20.1051 7.98004 19.8987C7.98479 19.7556 7.94945 19.5986 7.89259 19.4604C7.81602 19.2496 7.71793 19.0576 7.55824 18.8706C7.39854 18.6836 7.21326 18.5272 6.98086 18.4202C6.78448 18.3389 6.57881 18.2412 6.37021 18.1951C6.21913 18.1558 6.03838 18.1589 5.88436 18.1712C5.71698 18.1789 5.53216 18.1937 5.3752 18.2577C5.20488 18.317 5.06242 18.4254 4.91067 18.5175C4.62869 18.6828 4.50413 18.9554 4.36621 19.2233C4.29465 19.3433 4.12432 19.4026 3.97732 19.3515C3.60314 19.2217 3.25047 19.0729 2.88036 18.9313L2.84027 18.9174C2.51954 18.8061 2.18545 18.6901 1.87287 18.5553C1.56029 18.4205 1.34307 18.2267 1.22821 17.9105C1.17543 17.7606 1.19354 17.6221 1.17156 17.4697C1.16114 17.4135 1.21232 17.3523 1.2327 17.2936C1.29792 17.1057 1.36722 16.906 1.43244 16.7181C1.53026 16.4363 1.64146 16.159 1.74857 15.8936C1.8301 15.6587 1.92906 15.4167 2.02395 15.1865C2.12178 14.9046 2.2289 14.6391 2.34009 14.3619C2.41754 14.1388 2.50835 13.9203 2.59916 13.7018C2.70107 13.4082 2.81226 13.131 2.92753 12.842C3.00905 12.6071 3.10394 12.3769 3.19883 12.1466C3.29666 11.8648 3.40785 11.5876 3.51497 11.3221C3.60057 11.0755 3.69953 10.8335 3.7985 10.5915C3.89225 10.3214 3.99937 10.0559 4.10648 9.79044C4.18801 9.55556 4.28289 9.32532 4.37778 9.09508C4.47154 8.82497 4.57865 8.55949 4.68984 8.28228C4.77137 8.0474 4.86626 7.81715 4.96115 7.58691C5.05897 7.30506 5.17017 7.02784 5.27728 6.76237C5.36288 6.51574 5.46185 6.27376 5.56081 6.03177C5.65457 5.76166 5.75761 5.50793 5.86472 5.24246C5.95032 4.99583 6.05336 4.7421 6.15233 4.50012C6.24608 4.23 6.34912 3.97627 6.45624 3.7108C6.54184 3.46418 6.6408 3.22219 6.73977 2.98021C6.83352 2.71009 6.94064 2.44462 7.04775 2.17915C7.11297 1.99124 7.19563 1.79623 7.27421 1.61297C7.36389 1.3546 7.56682 1.20134 7.85515 1.10403C8.23475 0.959449 8.56363 1.04728 8.91223 1.20775L8.99241 1.23558C9.51359 1.41648 10.0348 1.59738 10.5612 1.8064C10.7349 1.8667 10.9354 1.93628 10.9329 2.15912C10.927 2.26235 10.9078 2.36094 10.8885 2.45953C10.8419 2.6802 10.8394 2.90304 10.8904 3.14443C10.9599 3.41859 11.0859 3.65968 11.2775 3.8841C11.4238 4.06648 11.6132 4.21116 11.8322 4.3135C12.0112 4.40193 12.2075 4.48325 12.4028 4.5247C12.5672 4.56861 12.7387 4.54917 12.8979 4.56496C13.1013 4.58292 13.2716 4.52361 13.4379 4.47604C13.6041 4.42848 13.76 4.32466 13.8983 4.22794C14.0931 4.09816 14.2333 3.90996 14.32 3.70321C14.3486 3.621 14.4079 3.53633 14.4765 3.46803C14.6056 3.35494 14.773 3.34724 14.956 3.42392C15.1298 3.48422 15.2994 3.55626 15.4557 3.62367C15.87 3.76746 16.2709 3.90661 16.677 4.07389C16.9176 4.15738 17.154 4.25262 17.3445 4.43716C17.4351 4.52125 17.5002 4.63592 17.5518 4.74596C17.7015 5.04795 17.6479 5.33198 17.4518 5.72447L17.4436 5.74795ZM15.7722 8.23383C15.8048 8.13988 15.856 8.07869 15.8845 7.99648C15.9701 7.74986 16.0691 7.50788 16.1681 7.26589C16.3107 6.85485 16.4668 6.44845 16.6187 6.05379C16.6432 5.98333 16.6676 5.91286 16.6962 5.83065C16.7736 5.60752 16.8778 5.39366 16.9244 5.17299C16.9896 4.98509 16.8793 4.82837 16.6696 4.74241C16.2019 4.58007 15.7382 4.40598 15.2879 4.23653C15.2211 4.21334 15.1409 4.18551 15.0782 4.15057C14.962 4.09708 14.9044 4.09027 14.841 4.18669C14.8114 4.22903 14.7776 4.28311 14.7346 4.32081C14.5892 4.48088 14.4438 4.64095 14.249 4.77073C14.0153 4.92646 13.767 5.03768 13.4869 5.1115C13.2416 5.17111 12.9911 5.20259 12.726 5.18957C12.4128 5.18611 12.1106 5.10755 11.8166 5.00551C11.6028 4.9313 11.3879 4.81721 11.1985 4.67253C10.9505 4.48117 10.7106 4.26633 10.5446 4.01131C10.3971 3.78907 10.2845 3.55261 10.2202 3.30657C10.1547 3.02067 10.1026 2.73941 10.1562 2.45538C10.1766 2.39666 10.1662 2.34041 10.0727 2.30794C9.75192 2.19662 9.43527 2.07355 9.13198 1.95512L9.02507 1.91802C8.78452 1.83453 8.53469 1.73465 8.29006 1.66291C8.18315 1.6258 8.02212 1.70149 7.97615 1.79081C7.88012 1.98118 7.7841 2.17155 7.7148 2.3712C7.53839 2.83632 7.37942 3.29433 7.20301 3.75946L7.19078 3.79469C7.05513 4.14237 6.91948 4.49005 6.78383 4.83773C6.76345 4.89645 6.7861 4.91747 6.85292 4.94067C7.05337 5.01024 7.25904 5.10794 7.46357 5.16578C7.65066 5.23071 7.76325 5.46717 7.70097 5.60346C7.65613 5.73265 7.37596 5.80647 7.20631 5.73442C7.01921 5.66948 6.8362 5.5928 6.63982 5.51148C6.55964 5.48365 6.52476 5.49786 6.5003 5.56833C6.42693 5.77972 6.34427 5.97473 6.25753 6.18148C6.16786 6.43985 6.06889 6.68184 5.96585 6.93557C5.8721 7.20568 5.76498 7.47115 5.65787 7.73662C5.57226 7.98325 5.47738 8.21349 5.37841 8.45548C5.28466 8.72559 5.18162 8.97932 5.0745 9.24479C4.99298 9.47967 4.89401 9.72166 4.79913 9.9519C4.69314 10.2572 4.5738 10.5579 4.45853 10.8469C4.38516 11.0583 4.29842 11.2651 4.21169 11.4718C4.11793 11.7419 4.01082 12.0074 3.89963 12.2846C3.81402 12.5312 3.71914 12.7615 3.62017 13.0035C3.52642 13.2736 3.42338 13.5273 3.31626 13.7928C3.23066 14.0394 3.1317 14.2814 3.03273 14.5234C2.93898 14.7935 2.82779 15.0707 2.72067 15.3362C2.63507 15.5828 2.53611 15.8248 2.43714 16.0668C2.33524 16.3604 2.21997 16.6493 2.10062 16.95C2.03133 17.1497 1.96611 17.3376 1.89681 17.5372C1.82752 17.7369 1.89072 17.943 2.158 18.0358C2.62573 18.1982 3.08938 18.3722 3.55304 18.5463C3.60649 18.5649 3.65995 18.5834 3.70933 18.6137C3.83481 18.6836 3.90978 18.6833 3.96912 18.5986C4.00286 18.5446 4.0459 18.5069 4.07964 18.4528C4.22798 18.2411 4.41755 18.0832 4.64721 17.9392C4.85536 17.8141 5.06464 17.7288 5.30993 17.6692C5.57674 17.5907 5.85397 17.5685 6.14571 17.5908C6.33574 17.6042 6.53393 17.594 6.72623 17.6871C6.86508 17.7616 7.03359 17.7937 7.1806 17.8448C7.52805 17.9654 7.7865 18.213 8.03159 18.4559C8.23138 18.6569 8.38813 18.8955 8.49664 19.1437C8.56279 19.2983 8.62486 19.4645 8.65612 19.6333C8.68559 19.8935 8.69761 20.1609 8.71076 20.4681C8.93795 20.547 9.19186 20.6351 9.44577 20.7232C9.55268 20.7603 9.67295 20.8021 9.77986 20.8392C10.0338 20.9273 10.2743 21.0108 10.5282 21.0989C10.5683 21.1129 10.6166 21.1033 10.6648 21.0937C10.8363 21.0743 10.8945 20.9497 10.9527 20.8252C11.0353 20.6302 11.1087 20.4188 11.1914 20.2238C11.2933 19.9302 11.4085 19.6412 11.5279 19.3405C11.6013 19.1291 11.6921 18.9106 11.7788 18.7039C11.8848 18.3985 12.0041 18.0978 12.1194 17.8088C12.1928 17.5975 12.2795 17.3907 12.3703 17.1722C12.4641 16.9021 12.5712 16.6366 12.6824 16.3594C12.7639 16.1245 12.8629 15.8825 12.9578 15.6523C13.0515 15.3822 13.1545 15.1284 13.2617 14.863C13.3473 14.6163 13.4503 14.3626 13.5493 14.1206C13.6389 13.8623 13.7461 13.5968 13.8491 13.3431C13.9347 13.0964 14.0337 12.8545 14.1326 12.6125C14.2223 12.3541 14.3294 12.0886 14.4325 11.8349C14.5181 11.5883 14.6211 11.3345 14.7201 11.0926C14.8098 10.8342 14.9169 10.5687 15.0199 10.315C15.187 9.83348 15.3675 9.35662 15.548 8.87975L15.5684 8.82103C15.3412 8.74218 15.1274 8.66797 14.9258 8.55852C14.7428 8.48184 14.6388 8.39311 14.6436 8.25002C14.6542 8.00369 14.8408 7.8974 15.1081 7.99017C15.3353 8.06902 15.5625 8.14787 15.7896 8.22673L15.7722 8.23383Z" fill="#6C757D"/>
<path d="M9.68811 17.3071C9.30056 17.1725 8.92638 17.0427 8.53883 16.9081C8.28492 16.82 8.02172 16.7155 7.77188 16.6156C7.43779 16.4997 7.12114 16.3766 6.79112 16.2489C6.51048 16.1515 6.23392 16.0423 5.95736 15.9332C5.66336 15.8312 5.35599 15.7245 5.07014 15.5989C4.80287 15.5062 4.59039 15.1692 4.60215 14.9628C4.61098 14.8079 4.67325 14.6717 4.73553 14.5354C4.81412 14.3521 4.87005 14.1478 4.93527 13.9599C5.0331 13.6781 5.14429 13.4008 5.25548 13.1236C5.34516 12.8652 5.44412 12.6233 5.54716 12.3695C5.63684 12.1112 5.74396 11.8457 5.847 11.592C5.9326 11.3453 6.03564 11.0916 6.1346 10.8496C6.22428 10.5913 6.32732 10.3375 6.43036 10.0838C6.51596 9.83717 6.619 9.58344 6.71796 9.34146C6.81172 9.07134 6.91476 8.81761 7.02187 8.55214C7.10747 8.30552 7.20236 8.07527 7.30133 7.83329C7.40323 7.53969 7.79914 7.34813 8.13323 7.46409C8.60096 7.62644 9.08206 7.79342 9.54571 7.96751C9.67935 8.01389 9.82227 8.07666 9.95184 8.13479C10.3928 8.28785 10.8298 8.45267 11.2533 8.61284C11.5473 8.71488 11.8239 8.82403 12.1138 8.93782C12.4078 9.03987 12.7152 9.14655 13.001 9.27208C13.295 9.37413 13.532 9.64059 13.4876 9.941C13.4736 10.0677 13.4235 10.1688 13.3961 10.2909L13.3798 10.3378C13.2208 10.7958 13.0526 11.2375 12.8802 11.6909C12.7865 11.961 12.6794 12.2264 12.5723 12.4919C12.4867 12.7385 12.3877 12.9805 12.2887 13.2225C12.195 13.4926 12.0879 13.7581 11.9807 14.0236C11.8951 14.2702 11.8003 14.5004 11.7013 14.7424C11.6075 15.0125 11.5004 15.278 11.3933 15.5435C11.3077 15.7901 11.2047 16.0438 11.1057 16.2858C11.016 16.5442 10.9223 16.8143 10.8059 17.0634C10.6824 17.3758 10.3296 17.5297 9.96059 17.4279C9.86705 17.3955 9.7735 17.363 9.67996 17.3305L9.68811 17.3071ZM7.948 8.08406C7.89908 8.22499 7.82344 8.35664 7.77045 8.50931C7.6767 8.77942 7.5655 9.05664 7.45839 9.32211C7.37279 9.56874 7.2779 9.79898 7.17893 10.041C7.08926 10.2993 6.98622 10.5531 6.88318 10.8068C6.79758 11.0534 6.69454 11.3071 6.59557 11.5491C6.49774 11.831 6.38247 12.1199 6.27128 12.3972C6.18976 12.632 6.09895 12.8505 6.00406 13.0808C5.88992 13.4096 5.7665 13.7221 5.639 14.0463C5.57378 14.2342 5.49928 14.4057 5.42069 14.589C5.37178 14.7299 5.32287 14.8708 5.27395 15.0117C5.46104 15.0767 5.62662 15.1605 5.79627 15.2325C6.09027 15.3345 6.39356 15.453 6.68349 15.5668C6.96413 15.6642 7.25405 15.778 7.53062 15.8871C7.86471 16.0031 8.19473 16.1308 8.52474 16.2585C9.03256 16.4347 9.53631 16.6227 10.0401 16.8107L10.1202 16.8386C10.1732 16.6859 10.257 16.5308 10.31 16.3781C10.4038 16.108 10.5068 15.8542 10.6139 15.5888C10.6995 15.3422 10.8026 15.0884 10.9015 14.8464C10.9953 14.5763 11.0983 14.3226 11.2054 14.0571C11.291 13.8105 11.3941 13.5568 11.493 13.3148C11.5909 13.0329 11.7061 12.744 11.8173 12.4667C11.8948 12.2436 11.9815 12.0369 12.0723 11.8184C12.1824 11.5013 12.3099 11.1771 12.4333 10.8646C12.4985 10.6767 12.5771 10.4935 12.6598 10.2985C12.7046 10.1693 12.7535 10.0283 12.7984 9.89915C12.5979 9.82958 12.419 9.74115 12.2319 9.67622C11.9379 9.57417 11.6479 9.46038 11.358 9.34659C11.064 9.24455 10.7741 9.13076 10.4975 9.02161C10.0031 8.84999 9.52605 8.67126 9.03567 8.4879C8.98222 8.46934 8.92876 8.45079 8.86194 8.4276C8.56794 8.32555 8.27394 8.22351 7.96657 8.11682L7.948 8.08406Z" fill="#6C757D"/>
<path d="M11.08 7.17107C10.937 7.1083 10.7941 7.04554 10.6553 6.97103C10.5391 6.91754 10.4689 6.77473 10.4922 6.6644C10.5021 6.54943 10.6179 6.43169 10.7452 6.41008C10.8068 6.40514 10.8643 6.41195 10.9178 6.43051C11.1583 6.514 11.4122 6.60213 11.6446 6.70911C11.7782 6.75549 11.8897 6.95208 11.8612 7.03429C11.7796 7.26917 11.6175 7.30499 11.4397 7.25644C11.3194 7.21469 11.2125 7.17758 11.0922 7.13584L11.084 7.15933L11.08 7.17107Z" fill="#6C757D"/>
<path d="M9.17932 5.7876C9.28623 5.8247 9.40651 5.86645 9.51342 5.90356C9.71387 5.97313 9.81196 6.16508 9.75082 6.34124C9.71413 6.44694 9.55717 6.51089 9.42875 6.49263C9.09692 6.45641 8.81923 6.30739 8.52816 6.15373C8.37595 6.07458 8.37322 5.82362 8.49824 5.72226C8.61511 5.6444 8.71975 5.60177 8.87603 5.66917C8.96958 5.70164 9.07649 5.73875 9.17004 5.77121L9.17932 5.7876Z" fill="#6C757D"/>
<path d="M13.8917 7.87069C13.851 7.98813 13.7033 8.06847 13.5615 8.04557C13.2553 7.97876 12.9653 7.86497 12.6876 7.71595C12.6075 7.68812 12.5361 7.50544 12.5431 7.44209C12.5624 7.3435 12.674 7.2375 12.7746 7.20661C12.9368 7.17079 13.057 7.21254 13.2092 7.29168C13.3615 7.37083 13.53 7.40301 13.677 7.45403C13.8373 7.50969 13.9755 7.71555 13.9092 7.86359L13.8917 7.87069Z" fill="#6C757D"/>
<path d="M7.70347 12.9733C7.82983 12.6092 7.9562 12.2451 8.08256 11.8811C8.17224 11.6227 8.27528 11.369 8.37832 11.1153C8.46392 10.8686 8.56288 10.6266 8.66184 10.3847C8.73114 10.185 8.8138 9.99 8.89238 9.80673C8.92499 9.71278 9.09418 9.6136 9.18252 9.61794C9.32431 9.64084 9.47538 9.68011 9.51888 9.81364C9.56238 9.94717 9.54426 10.0856 9.49943 10.2148C9.43421 10.4027 9.35562 10.586 9.27296 10.781C9.16291 11.0981 9.03949 11.4105 8.91606 11.723C8.83046 11.9696 8.72742 12.2233 8.62846 12.4653C8.53471 12.7354 8.43167 12.9892 8.32455 13.2546C8.23895 13.5013 8.13998 13.7432 8.04102 13.9852C7.9758 14.1731 7.90651 14.3728 7.81456 14.5514C7.71038 14.7653 7.56271 14.8456 7.29838 14.7012C7.17289 14.6313 7.10674 14.4768 7.15158 14.3476C7.26979 14.007 7.41881 13.664 7.55038 13.3281C7.59114 13.2106 7.63191 13.0932 7.67267 12.9757L7.69939 12.985L7.70347 12.9733Z" fill="#6C757D"/>
<path d="M9.95089 11.2005C10.0487 10.9187 10.1425 10.6486 10.2403 10.3667C10.3055 10.1788 10.484 10.096 10.6926 10.1421C10.7728 10.1699 10.9313 10.3171 10.9295 10.4085C10.9237 10.5118 10.9178 10.615 10.8852 10.709C10.8036 10.9438 10.718 11.1905 10.6231 11.4207C10.5294 11.6908 10.4223 11.9563 10.3152 12.2218C10.2336 12.4566 10.1388 12.6869 10.0479 12.9054C10.0031 13.0346 9.9304 13.1146 9.77231 13.1387C9.58341 13.1652 9.32836 13.0372 9.37093 12.8283C9.39719 12.6664 9.43682 12.509 9.48981 12.3564C9.56318 12.145 9.63655 11.9336 9.73665 11.7315C9.80187 11.5436 9.88046 11.3603 9.95904 11.177L9.9724 11.1817L9.95089 11.2005Z" fill="#6C757D"/>
<path d="M9.4449 14.3409C9.3593 14.5875 9.2737 14.8341 9.18402 15.0925C9.14326 15.2099 9.03047 15.2761 8.89389 15.2813C8.75731 15.2865 8.58653 15.1746 8.54824 15.0692C8.50474 14.9357 8.53622 14.8019 8.58106 14.6727C8.6585 14.4495 8.75339 14.2193 8.8442 14.0008C8.88089 13.8951 8.95359 13.8151 9.07159 13.7771C9.17216 13.7462 9.37669 13.804 9.45393 13.8835C9.55382 13.9839 9.54794 14.0872 9.52054 14.2092C9.50424 14.2562 9.48793 14.3032 9.46755 14.3619L9.44083 14.3526L9.4449 14.3409Z" fill="#6C757D"/>
</g>
<defs>
<clipPath id="clip0_24630_1296">
<rect width="11.4723" height="18.908" fill="white" transform="translate(7.11218 0.569824) rotate(19.1413)"/>
</clipPath>
</defs>
</svg>
