<svg width="19" height="19" viewBox="0 0 19 19" fill="none" xmlns="http://www.w3.org/2000/svg">
<g clip-path="url(#clip0_24630_1280)">
<path d="M18.0919 9.7701C18.0919 10.282 18.0919 10.7921 18.0919 11.304C18.0919 11.7219 17.8847 11.9256 17.4616 11.9273C16.7878 11.9273 16.114 11.9326 15.4402 11.9239C15.2939 11.9221 15.2208 11.9656 15.1668 12.1032C14.9753 12.5924 14.9718 12.589 15.3549 12.9685C15.7553 13.3672 16.1575 13.766 16.5528 14.1699C16.8522 14.4763 16.8522 14.7601 16.5545 15.0579C15.8267 15.7874 15.0989 16.5152 14.3677 17.243C14.063 17.5477 13.7844 17.5529 13.478 17.2534C12.9922 16.7763 12.5099 16.2941 12.0328 15.8065C11.9371 15.709 11.864 15.709 11.7316 15.7421C11.3312 15.8431 11.1901 16.0573 11.2267 16.4821C11.2737 17.0201 11.2389 17.5651 11.2389 18.1083C11.2389 18.6167 11.0456 18.81 10.539 18.8082C9.5326 18.8082 8.5245 18.8082 7.51813 18.8065C7.07415 18.8065 6.88437 18.6115 6.88262 18.1658C6.88088 17.5076 6.8774 16.8495 6.88437 16.1896C6.88437 16.0381 6.83387 15.9754 6.69981 15.8953C6.35158 15.6847 6.11131 15.7369 5.84144 16.0503C5.46884 16.4838 5.03878 16.8686 4.63136 17.2726C4.33886 17.5616 4.05331 17.5668 3.76081 17.2778C3.02257 16.5483 2.28782 15.8153 1.5583 15.077C1.24664 14.7619 1.25708 14.4885 1.57223 14.1699C2.04233 13.6963 2.51069 13.2245 2.98601 12.7579C3.08177 12.6638 3.10441 12.589 3.04869 12.4584C2.82757 11.9552 2.83279 11.9535 2.28957 11.9535C1.75504 11.9535 1.22052 11.9587 0.685999 11.9535C0.174111 11.9482 0 11.7706 0 11.2675C0 10.2437 0 9.22165 0 8.19788C0 7.80787 0.210675 7.59893 0.604167 7.59719C1.27798 7.59545 1.95179 7.59197 2.6256 7.60067C2.77011 7.60067 2.8415 7.56411 2.89721 7.42308C3.09744 6.90945 3.10267 6.91293 2.70569 6.51944C2.31394 6.13292 1.92393 5.74639 1.53914 5.3529C1.2449 5.05342 1.2449 4.76266 1.54089 4.46319C2.26693 3.73192 2.99646 3.00413 3.72598 2.27809C4.03068 1.97513 4.30926 1.96991 4.61743 2.27112C5.09972 2.74122 5.57505 3.22003 6.04689 3.70058C6.14787 3.80505 6.22797 3.82594 6.36551 3.76326C6.84606 3.54736 6.84954 3.55432 6.84954 3.02328C6.84954 2.4818 6.84954 1.93857 6.84954 1.39708C6.85128 0.914796 7.04629 0.716309 7.52335 0.716309C8.53842 0.716309 9.55349 0.716309 10.5686 0.71805C11.0143 0.71805 11.2076 0.907831 11.2093 1.35182C11.2128 2.01866 11.2145 2.68377 11.2093 3.35061C11.2093 3.49164 11.2406 3.56999 11.3834 3.62745C11.8727 3.82768 11.8709 3.83639 12.247 3.46205C12.6475 3.06333 13.0462 2.66113 13.4466 2.26242C13.7409 1.96991 14.0438 1.96295 14.3398 2.25371C15.078 2.98324 15.8111 3.71799 16.5423 4.45622C16.8435 4.76092 16.8348 5.03427 16.5267 5.34419C16.0513 5.823 15.5777 6.3018 15.0955 6.7719C14.9893 6.87463 14.9736 6.95646 15.0328 7.09227C15.2452 7.57456 15.24 7.57282 15.7588 7.57108C16.3247 7.56759 16.8905 7.56759 17.4547 7.57108C17.9039 7.57456 18.0902 7.76434 18.0919 8.21181C18.0954 8.73066 18.0919 9.24951 18.0919 9.76836V9.7701ZM2.65172 4.93851C3.14271 5.42254 3.62326 5.89438 4.10207 6.36797C4.35627 6.62043 4.3789 6.81369 4.23265 7.14276C4.07247 7.50143 3.91925 7.86532 3.77822 8.2327C3.64589 8.57744 3.50835 8.68713 3.14097 8.68887C2.54377 8.69061 1.94831 8.68887 1.3511 8.69061C1.26927 8.69061 1.18744 8.69758 1.09864 8.70106V10.8566H1.36329C1.96746 10.8566 2.57163 10.8531 3.17579 10.8566C3.51009 10.8583 3.6546 10.9819 3.77822 11.2953C3.92099 11.661 4.07421 12.0248 4.23787 12.3818C4.39283 12.7213 4.36497 12.9267 4.0951 13.1966C3.67897 13.6127 3.26111 14.0289 2.84672 14.445C2.78927 14.5025 2.73703 14.5651 2.70395 14.6017C3.21932 15.1223 3.71206 15.6237 4.20827 16.1252C4.2222 16.1147 4.2431 16.1043 4.25877 16.0886C4.72538 15.6237 5.192 15.1589 5.65688 14.694C5.90412 14.4485 6.11479 14.4224 6.43342 14.5669C6.77119 14.7201 7.11071 14.8663 7.45893 14.9952C7.86287 15.1432 7.96908 15.272 7.97082 15.7125C7.97082 16.2697 7.96734 16.8286 7.96908 17.3857C7.96908 17.4919 7.97953 17.5964 7.98475 17.7096H10.1385C10.1385 17.6225 10.1385 17.5459 10.1385 17.4711C10.1385 16.8512 10.1385 16.2314 10.1403 15.6115C10.1403 15.2894 10.2604 15.1362 10.5581 15.0161C10.9377 14.8646 11.3155 14.7062 11.6898 14.5425C11.998 14.4067 12.2035 14.4345 12.4472 14.6748C12.745 14.9691 13.0375 15.2668 13.3352 15.561C13.525 15.7491 13.7165 15.9371 13.8889 16.106C14.4095 15.5906 14.9092 15.0979 15.435 14.5791C14.9527 14.1037 14.4669 13.6284 13.9846 13.1496C13.7148 12.8815 13.6939 12.7021 13.8453 12.3574C13.9968 12.0109 14.1431 11.661 14.2754 11.3075C14.4095 10.9488 14.5435 10.8391 14.9266 10.8374C15.5377 10.8339 16.1506 10.8357 16.7617 10.8339C16.8366 10.8339 16.9114 10.827 16.9933 10.8235V8.66798C16.8905 8.66798 16.8 8.66798 16.7095 8.66798C16.1123 8.66798 15.5168 8.67146 14.9196 8.66798C14.5609 8.66798 14.4008 8.53739 14.2771 8.21181C14.1396 7.85139 13.9916 7.49447 13.8314 7.1445C13.6817 6.81543 13.7095 6.60824 13.969 6.34881C14.3903 5.92746 14.8134 5.50611 15.2347 5.08476C15.2939 5.02557 15.3479 4.96289 15.3775 4.93155C14.8639 4.41269 14.3642 3.90951 13.8523 3.39066C13.3927 3.85554 12.9243 4.32912 12.4559 4.80096C12.1599 5.09869 11.9702 5.1161 11.5836 4.93155C11.2702 4.78181 10.9481 4.64949 10.6225 4.53109C10.2343 4.39006 10.1281 4.26992 10.1246 3.85554C10.1194 3.25834 10.1141 2.66287 10.1298 2.06567C10.135 1.84455 10.0584 1.78535 9.85297 1.7958C9.55872 1.80973 9.26447 1.80102 8.97022 1.80102C8.63941 1.80102 8.3086 1.80102 7.95515 1.80102C7.95515 1.90549 7.95515 1.98036 7.95515 2.05697C7.95515 2.65417 7.95515 3.24963 7.95515 3.84683C7.95515 4.2351 7.84372 4.3831 7.48157 4.52238C7.11419 4.66341 6.75204 4.81663 6.39163 4.97507C6.09042 5.1074 5.88497 5.08128 5.65166 4.8532C5.47406 4.67908 5.29995 4.50323 5.12584 4.32738C4.8194 4.01398 4.51297 3.69884 4.2222 3.39937C3.68594 3.92692 3.1845 4.41966 2.6552 4.94199L2.65172 4.93851Z" fill="#6C757D"/>
<path d="M12.3323 9.77355C12.3132 11.6487 10.835 13.0747 8.93541 13.0503C7.20126 13.0294 5.73872 11.5181 5.75614 9.7631C5.77355 7.89489 7.25001 6.45151 9.12171 6.47414C10.8942 6.49503 12.3515 7.99065 12.3341 9.77355H12.3323ZM6.85304 9.74918C6.85304 10.9749 7.82284 11.9499 9.04858 11.9587C10.236 11.9674 11.2528 10.9488 11.2406 9.76485C11.2285 8.53562 10.2534 7.56756 9.02943 7.5693C7.84025 7.57278 6.84955 8.56174 6.8513 9.74743L6.85304 9.74918Z" fill="#6C757D"/>
</g>
<defs>
<clipPath id="clip0_24630_1280">
<rect width="18.0937" height="18.0919" fill="white" transform="translate(0 0.716309)"/>
</clipPath>
</defs>
</svg>
