<svg width="20" height="17" viewBox="0 0 20 17" fill="none" xmlns="http://www.w3.org/2000/svg">
<g clip-path="url(#clip0_24630_1318)">
<path d="M4.2531 10.2265C4.05912 10.2265 3.88938 10.2265 3.71965 10.2265C3.16195 10.2265 2.61637 10.2265 2.05867 10.2265C1.07664 10.2265 0.361328 9.51123 0.361328 8.54132C0.361328 7.83814 0.361328 7.14707 0.361328 6.44389C0.361328 5.47398 1.07664 4.77079 2.04655 4.75867C2.3254 4.75867 2.60425 4.75867 2.8831 4.75867C3.06496 4.75867 3.14982 4.71017 3.23469 4.54044C4.10761 2.66123 5.53823 1.3761 7.5023 0.721412C10.9212 -0.40611 14.6796 1.24274 16.1709 4.51619C16.2558 4.69805 16.3527 4.75867 16.5467 4.75867C16.9347 4.75867 17.3348 4.73442 17.7106 4.79504C18.4502 4.90415 19.0321 5.57097 19.0442 6.31053C19.0564 7.09858 19.0564 7.88663 19.0442 8.66256C19.02 9.49911 18.3168 10.1902 17.4803 10.2265C17.1408 10.2265 16.8134 10.2265 16.474 10.2265C16.3285 10.2265 16.2558 10.2629 16.183 10.4084C15.3101 12.2876 13.8916 13.5606 11.9396 14.2517C11.782 14.3002 11.6244 14.3487 11.4668 14.385C11.3577 14.4093 11.3335 14.4578 11.3335 14.5548C11.3335 14.8579 11.3335 15.161 11.2971 15.4641C11.1637 16.2764 10.412 16.8462 9.58761 16.7977C8.76319 16.7492 8.09637 16.0824 8.04788 15.258C7.99938 14.4335 8.5692 13.6819 9.3815 13.5485C9.76947 13.4879 10.1574 13.5 10.5454 13.4394C12.4125 13.1605 13.8795 12.2149 14.8373 10.6024C16.0739 8.50495 16.0739 6.3469 14.7888 4.27371C12.5095 0.588049 7.17496 0.515305 4.72593 4.1161C3.61053 5.76495 3.41655 7.54716 3.98637 9.43849C4.05912 9.69309 4.15611 9.95982 4.24097 10.2387L4.2531 10.2265ZM16.6437 5.84982C16.8983 6.95309 16.8862 8.04424 16.6437 9.13539C16.9226 9.13539 17.1772 9.13539 17.4318 9.13539C17.7227 9.13539 17.9531 8.90504 17.9531 8.60194C17.9531 7.86238 17.9531 7.12283 17.9531 6.37115C17.9531 6.08017 17.7349 5.86194 17.4439 5.84982C17.1893 5.84982 16.9226 5.84982 16.6437 5.84982ZM2.76186 5.84982C2.48301 5.84982 2.21628 5.84982 1.94956 5.84982C1.68283 5.86194 1.4646 6.0923 1.45248 6.37115C1.45248 7.1107 1.45248 7.85026 1.45248 8.60194C1.45248 8.86867 1.64646 9.09902 1.90106 9.12327C2.17991 9.14752 2.47089 9.12327 2.74973 9.12327C2.59617 8.05637 2.59617 6.96522 2.74973 5.84982H2.76186ZM10.2544 14.6154C10.0483 14.6154 9.85434 14.6154 9.67248 14.6154C9.36938 14.6396 9.13903 14.9064 9.16327 15.1973C9.1754 15.4762 9.43 15.7065 9.70885 15.7065C9.99982 15.7065 10.2544 15.4762 10.2665 15.1731C10.2665 14.9912 10.2665 14.8094 10.2665 14.6154H10.2544Z" fill="#6C757D"/>
<path d="M4.78657 12.4211V11.3299C5.19878 11.2935 5.53825 11.1238 5.74436 10.748C5.8171 10.6146 5.82922 10.5055 5.72011 10.3721C3.59843 7.45026 5.24728 3.31601 8.78745 2.63707C11.6123 2.10362 14.3159 4.10406 14.619 6.9653C14.91 9.68105 12.9338 12.1301 10.2302 12.3726C9.4179 12.4453 8.59347 12.4089 7.76905 12.4089C6.83551 12.4089 5.88984 12.4089 4.9563 12.4089C4.90781 12.4089 4.85931 12.4089 4.79869 12.4089L4.78657 12.4211ZM6.73852 11.3299C7.40533 11.3299 8.08427 11.3299 8.77533 11.3299C9.3209 11.3299 9.8786 11.342 10.4121 11.2572C12.5216 10.8934 13.928 8.77176 13.4552 6.68645C12.9581 4.5284 10.8121 3.21902 8.70259 3.80096C5.93834 4.56477 4.9563 7.92309 6.87188 10.0811C6.9325 10.1539 6.98099 10.2751 6.96887 10.3721C6.90825 10.6873 6.82338 11.0026 6.75064 11.342L6.73852 11.3299Z" fill="#6C757D"/>
<path d="M6.98096 6.95312H8.04786V8.03215H6.98096V6.95312Z" fill="#6C757D"/>
<path d="M9.17542 8.03215V6.95312H10.2544V8.03215H9.17542Z" fill="#6C757D"/>
<path d="M12.4367 8.03215H11.3577V6.95312H12.4367V8.03215Z" fill="#6C757D"/>
</g>
<defs>
<clipPath id="clip0_24630_1318">
<rect width="18.7072" height="16.44" fill="white" transform="translate(0.361328 0.369873)"/>
</clipPath>
</defs>
</svg>
