<svg width="18" height="14" viewBox="0 0 18 14" fill="none" xmlns="http://www.w3.org/2000/svg">
<path d="M8.34482 3.7417C8.40341 3.68311 8.4913 3.65381 8.57919 3.65381C8.63778 3.65381 8.72568 3.68311 8.78427 3.7417L14.2042 8.16553V12.9702C14.2042 13.2339 13.9698 13.439 13.7354 13.439H10.4249C10.1905 13.439 9.95614 13.2339 9.95614 12.9702V10.1577C9.95614 9.92334 9.75107 9.68896 9.48739 9.68896H7.61239C7.37802 9.68896 7.14364 9.92334 7.14364 10.1577V12.9702C7.14364 13.2339 6.93857 13.439 6.70419 13.439H3.42294C3.15927 13.439 2.95419 13.2339 2.95419 12.9702V8.19482L8.34482 3.7417ZM16.8702 6.75928C16.9581 6.81787 17.0167 6.93506 17.0167 7.02295C17.0167 7.11084 16.9874 7.19873 16.9288 7.25732L16.1671 8.16553C16.1085 8.25342 16.0206 8.28271 15.9034 8.28271C15.8155 8.28271 15.7276 8.25342 15.669 8.19482L8.78427 2.54053C8.72568 2.48193 8.63778 2.45264 8.57919 2.45264C8.4913 2.45264 8.40341 2.48193 8.34482 2.54053L1.46005 8.19482C1.40146 8.25342 1.31357 8.28271 1.22568 8.28271C1.10849 8.28271 1.0206 8.25342 0.962004 8.16553L0.200285 7.25732C0.170988 7.19873 0.112394 7.11084 0.112394 7.02295C0.112394 6.93506 0.170988 6.81787 0.258879 6.75928L7.67099 0.63623C7.90536 0.460449 8.22763 0.343262 8.57919 0.343262C8.90146 0.343262 9.22372 0.460449 9.4581 0.63623L12.0948 2.8042V0.694824C12.0948 0.489746 12.2413 0.343262 12.4464 0.343262H14.087C14.2628 0.343262 14.4386 0.489746 14.4386 0.694824V4.73779L16.8702 6.75928Z" fill="#6C757D"/>
</svg>
